NotoSerifMalayalam-Light.ufo
<glyph name="exclam.mlym" format="2">
  <advance width="240"/>
  <unicode hex="0021"/>
  <outline>
    <contour>
      <point x="111" y="167" type="line"/>
      <point x="133" y="167" type="line"/>
      <point x="135" y="714" type="line"/>
      <point x="107" y="714" type="line"/>
    </contour>
    <contour>
      <point x="120" y="-5" type="curve" smooth="yes"/>
      <point x="136" y="-5"/>
      <point x="149" y="4"/>
      <point x="149" y="35" type="curve" smooth="yes"/>
      <point x="149" y="65"/>
      <point x="136" y="73"/>
      <point x="120" y="73" type="curve" smooth="yes"/>
      <point x="105" y="73"/>
      <point x="91" y="65"/>
      <point x="91" y="35" type="curve" smooth="yes"/>
      <point x="91" y="4"/>
      <point x="105" y="-5"/>
    </contour>
  </outline>
</glyph>
<glyph name="quotedbl.mlym" format="2">
  <advance width="339"/>
  <unicode hex="0022"/>
  <outline>
    <contour>
      <point x="234" y="585" type="line"/>
      <point x="254" y="585" type="line"/>
      <point x="264" y="800" type="line"/>
      <point x="222" y="800" type="line"/>
    </contour>
    <contour>
      <point x="86" y="585" type="line"/>
      <point x="106" y="585" type="line"/>
      <point x="116" y="800" type="line"/>
      <point x="74" y="800" type="line"/>
    </contour>
  </outline>
</glyph>
<glyph name="numbersign.mlym" format="2">
  <advance width="559"/>
  <unicode hex="0023"/>
  <outline>
    <contour>
      <point x="98" y="0" type="line"/>
      <point x="126" y="0" type="line"/>
      <point x="167" y="219" type="line"/>
      <point x="335" y="219" type="line"/>
      <point x="294" y="0" type="line"/>
      <point x="322" y="0" type="line"/>
      <point x="363" y="219" type="line"/>
      <point x="497" y="219" type="line"/>
      <point x="497" y="244" type="line"/>
      <point x="368" y="244" type="line"/>
      <point x="411" y="476" type="line"/>
      <point x="529" y="476" type="line"/>
      <point x="529" y="501" type="line"/>
      <point x="416" y="501" type="line"/>
      <point x="456" y="714" type="line"/>
      <point x="428" y="714" type="line"/>
      <point x="388" y="501" type="line"/>
      <point x="220" y="501" type="line"/>
      <point x="260" y="714" type="line"/>
      <point x="232" y="714" type="line"/>
      <point x="192" y="501" type="line"/>
      <point x="62" y="501" type="line"/>
      <point x="62" y="476" type="line"/>
      <point x="187" y="476" type="line"/>
      <point x="144" y="244" type="line"/>
      <point x="30" y="244" type="line"/>
      <point x="30" y="219" type="line"/>
      <point x="139" y="219" type="line"/>
    </contour>
    <contour>
      <point x="172" y="244" type="line"/>
      <point x="215" y="476" type="line"/>
      <point x="383" y="476" type="line"/>
      <point x="340" y="244" type="line"/>
    </contour>
  </outline>
</glyph>
<glyph name="percent.mlym" format="2">
  <advance width="817"/>
  <unicode hex="0025"/>
  <outline>
    <contour>
      <point x="211" y="0" type="line"/>
      <point x="243" y="0" type="line"/>
      <point x="600" y="714" type="line"/>
      <point x="568" y="714" type="line"/>
    </contour>
    <contour>
      <point x="190" y="280" type="curve" smooth="yes"/>
      <point x="295" y="280"/>
      <point x="334" y="371"/>
      <point x="334" y="503" type="curve" smooth="yes"/>
      <point x="334" y="639"/>
      <point x="288" y="724"/>
      <point x="191" y="724" type="curve" smooth="yes"/>
      <point x="89" y="724"/>
      <point x="46" y="637"/>
      <point x="46" y="503" type="curve" smooth="yes"/>
      <point x="46" y="365"/>
      <point x="88" y="280"/>
    </contour>
    <contour>
      <point x="188" y="305" type="curve" smooth="yes"/>
      <point x="109" y="305"/>
      <point x="74" y="376"/>
      <point x="74" y="503" type="curve" smooth="yes"/>
      <point x="74" y="612"/>
      <point x="104" y="699"/>
      <point x="189" y="699" type="curve" smooth="yes"/>
      <point x="269" y="699"/>
      <point x="306" y="632"/>
      <point x="306" y="503" type="curve" smooth="yes"/>
      <point x="306" y="389"/>
      <point x="276" y="305"/>
    </contour>
    <contour>
      <point x="628" y="-10" type="curve" smooth="yes"/>
      <point x="733" y="-10"/>
      <point x="772" y="81"/>
      <point x="772" y="213" type="curve" smooth="yes"/>
      <point x="772" y="349"/>
      <point x="726" y="434"/>
      <point x="629" y="434" type="curve" smooth="yes"/>
      <point x="527" y="434"/>
      <point x="484" y="347"/>
      <point x="484" y="213" type="curve" smooth="yes"/>
      <point x="484" y="75"/>
      <point x="526" y="-10"/>
    </contour>
    <contour>
      <point x="626" y="15" type="curve" smooth="yes"/>
      <point x="547" y="15"/>
      <point x="512" y="86"/>
      <point x="512" y="213" type="curve" smooth="yes"/>
      <point x="512" y="322"/>
      <point x="542" y="409"/>
      <point x="627" y="409" type="curve" smooth="yes"/>
      <point x="707" y="409"/>
      <point x="744" y="342"/>
      <point x="744" y="213" type="curve" smooth="yes"/>
      <point x="744" y="99"/>
      <point x="714" y="15"/>
    </contour>
  </outline>
</glyph>
<glyph name="quotesingle.mlym" format="2">
  <advance width="191"/>
  <unicode hex="0027"/>
  <outline>
    <contour>
      <point x="86" y="585" type="line"/>
      <point x="106" y="585" type="line"/>
      <point x="116" y="800" type="line"/>
      <point x="74" y="800" type="line"/>
    </contour>
  </outline>
</glyph>
<glyph name="parenleft.mlym" format="2">
  <advance width="313"/>
  <unicode hex="0028"/>
  <outline>
    <contour>
      <point x="282" y="-244" type="curve"/>
      <point x="282" y="-219" type="line"/>
      <point x="117" y="-146"/>
      <point x="91" y="67"/>
      <point x="91" y="281" type="curve" smooth="yes"/>
      <point x="91" y="495"/>
      <point x="117" y="708"/>
      <point x="282" y="779" type="curve"/>
      <point x="282" y="804" type="line"/>
      <point x="118" y="743"/>
      <point x="63" y="572"/>
      <point x="63" y="281" type="curve" smooth="yes"/>
      <point x="63" y="-10"/>
      <point x="118" y="-181"/>
    </contour>
  </outline>
</glyph>
<glyph name="parenright.mlym" format="2">
  <advance width="313"/>
  <unicode hex="0029"/>
  <outline>
    <contour>
      <point x="31" y="804" type="curve"/>
      <point x="31" y="779" type="line"/>
      <point x="196" y="706"/>
      <point x="222" y="493"/>
      <point x="222" y="279" type="curve" smooth="yes"/>
      <point x="222" y="65"/>
      <point x="196" y="-148"/>
      <point x="31" y="-219" type="curve"/>
      <point x="31" y="-244" type="line"/>
      <point x="195" y="-183"/>
      <point x="250" y="-12"/>
      <point x="250" y="279" type="curve" smooth="yes"/>
      <point x="250" y="570"/>
      <point x="195" y="741"/>
    </contour>
  </outline>
</glyph>
<glyph name="asterisk.mlym" format="2">
  <advance width="412"/>
  <unicode hex="002A"/>
  <outline>
    <contour>
      <point x="187" y="418" type="line"/>
      <point x="226" y="418" type="line"/>
      <point x="215" y="593" type="line"/>
      <point x="349" y="509" type="line"/>
      <point x="367" y="543" type="line"/>
      <point x="215" y="609" type="line"/>
      <point x="367" y="675" type="line"/>
      <point x="351" y="708" type="line"/>
      <point x="215" y="625" type="line"/>
      <point x="224" y="800" type="line"/>
      <point x="187" y="800" type="line"/>
      <point x="198" y="626" type="line"/>
      <point x="63" y="710" type="line"/>
      <point x="45" y="676" type="line"/>
      <point x="197" y="609" type="line"/>
      <point x="45" y="542" type="line"/>
      <point x="63" y="507" type="line"/>
      <point x="198" y="592" type="line"/>
    </contour>
  </outline>
</glyph>
<glyph name="plus.mlym" format="2">
  <advance width="559"/>
  <unicode hex="002B"/>
  <outline>
    <contour>
      <point x="265" y="143" type="line"/>
      <point x="293" y="143" type="line"/>
      <point x="293" y="343" type="line"/>
      <point x="494" y="343" type="line"/>
      <point x="494" y="371" type="line"/>
      <point x="293" y="371" type="line"/>
      <point x="293" y="572" type="line"/>
      <point x="265" y="572" type="line"/>
      <point x="265" y="371" type="line"/>
      <point x="65" y="371" type="line"/>
      <point x="65" y="343" type="line"/>
      <point x="265" y="343" type="line"/>
    </contour>
  </outline>
</glyph>
<glyph name="hyphen.mlym" format="2">
  <advance width="319"/>
  <unicode hex="002D"/>
  <outline>
    <contour>
      <point x="40" y="256" type="line"/>
      <point x="279" y="256" type="line"/>
      <point x="279" y="282" type="line"/>
      <point x="40" y="282" type="line"/>
    </contour>
  </outline>
</glyph>
<glyph name="slash.mlym" format="2">
  <advance width="324"/>
  <unicode hex="002F"/>
  <outline>
    <contour>
      <point x="24" y="-244" type="line"/>
      <point x="53" y="-244" type="line"/>
      <point x="300" y="800" type="line"/>
      <point x="271" y="800" type="line"/>
    </contour>
  </outline>
</glyph>
<glyph name="one.mlym" format="2">
  <advance width="559"/>
  <unicode hex="0031"/>
  <outline>
    <contour>
      <point x="155" y="0" type="line"/>
      <point x="436" y="0" type="line"/>
      <point x="436" y="20" type="line"/>
      <point x="367" y="20" type="line" smooth="yes"/>
      <point x="317" y="20"/>
      <point x="311" y="31"/>
      <point x="311" y="108" type="curve" smooth="yes"/>
      <point x="311" y="718" type="line"/>
      <point x="291" y="718" type="line"/>
      <point x="261" y="677" type="line"/>
      <point x="210" y="614"/>
      <point x="171" y="599"/>
      <point x="117" y="589" type="curve"/>
      <point x="117" y="578"/>
      <point x="126" y="571"/>
      <point x="150" y="571" type="curve" smooth="yes"/>
      <point x="190" y="571"/>
      <point x="236" y="607"/>
      <point x="283" y="669" type="curve"/>
      <point x="283" y="108" type="line" smooth="yes"/>
      <point x="283" y="31"/>
      <point x="277" y="20"/>
      <point x="227" y="20" type="curve" smooth="yes"/>
      <point x="155" y="20" type="line"/>
    </contour>
  </outline>
</glyph>
<glyph name="two.mlym" format="2">
  <advance width="559"/>
  <unicode hex="0032"/>
  <outline>
    <contour>
      <point x="51" y="0" type="line"/>
      <point x="463" y="0" type="line"/>
      <point x="468" y="127" type="line"/>
      <point x="448" y="127" type="line"/>
      <point x="446" y="95" type="line" smooth="yes"/>
      <point x="443" y="39"/>
      <point x="437" y="25"/>
      <point x="385" y="25" type="curve" smooth="yes"/>
      <point x="89" y="25" type="line"/>
      <point x="332" y="291" type="line" smooth="yes"/>
      <point x="402" y="368"/>
      <point x="447" y="428"/>
      <point x="447" y="541" type="curve" smooth="yes"/>
      <point x="447" y="634"/>
      <point x="392" y="724"/>
      <point x="256" y="724" type="curve" smooth="yes"/>
      <point x="134" y="724"/>
      <point x="78" y="655"/>
      <point x="78" y="607" type="curve" smooth="yes"/>
      <point x="78" y="583"/>
      <point x="85" y="569"/>
      <point x="99" y="569" type="curve"/>
      <point x="99" y="654"/>
      <point x="158" y="699"/>
      <point x="256" y="699" type="curve" smooth="yes"/>
      <point x="378" y="699"/>
      <point x="419" y="612"/>
      <point x="419" y="539" type="curve" smooth="yes"/>
      <point x="419" y="435"/>
      <point x="376" y="381"/>
      <point x="287" y="282" type="curve" smooth="yes"/>
      <point x="51" y="22" type="line"/>
    </contour>
  </outline>
</glyph>
<glyph name="three.mlym" format="2">
  <advance width="559"/>
  <unicode hex="0033"/>
  <outline>
    <contour>
      <point x="247" y="-9" type="curve" smooth="yes"/>
      <point x="358" y="-9"/>
      <point x="460" y="51"/>
      <point x="460" y="192" type="curve" smooth="yes"/>
      <point x="460" y="319"/>
      <point x="391" y="369"/>
      <point x="317" y="377" type="curve"/>
      <point x="378" y="393"/>
      <point x="435" y="453"/>
      <point x="435" y="555" type="curve" smooth="yes"/>
      <point x="435" y="664"/>
      <point x="373" y="724"/>
      <point x="256" y="724" type="curve" smooth="yes"/>
      <point x="141" y="724"/>
      <point x="85" y="658"/>
      <point x="85" y="604" type="curve" smooth="yes"/>
      <point x="85" y="583"/>
      <point x="92" y="569"/>
      <point x="106" y="569" type="curve"/>
      <point x="106" y="652"/>
      <point x="158" y="699"/>
      <point x="259" y="699" type="curve" smooth="yes"/>
      <point x="355" y="699"/>
      <point x="407" y="647"/>
      <point x="407" y="554" type="curve" smooth="yes"/>
      <point x="407" y="448"/>
      <point x="340" y="387"/>
      <point x="241" y="387" type="curve" smooth="yes"/>
      <point x="213" y="387" type="line"/>
      <point x="213" y="362" type="line"/>
      <point x="247" y="362" type="line" smooth="yes"/>
      <point x="384" y="362"/>
      <point x="432" y="300"/>
      <point x="432" y="189" type="curve" smooth="yes"/>
      <point x="432" y="76"/>
      <point x="347" y="16"/>
      <point x="248" y="16" type="curve" smooth="yes"/>
      <point x="133" y="16"/>
      <point x="86" y="65"/>
      <point x="86" y="136" type="curve"/>
      <point x="75" y="136"/>
      <point x="65" y="128"/>
      <point x="65" y="102" type="curve" smooth="yes"/>
      <point x="65" y="48"/>
      <point x="121" y="-9"/>
    </contour>
  </outline>
</glyph>
<glyph name="four.mlym" format="2">
  <advance width="559"/>
  <unicode hex="0034"/>
  <outline>
    <contour>
      <point x="260" y="0" type="line"/>
      <point x="491" y="0" type="line"/>
      <point x="491" y="20" type="line"/>
      <point x="453" y="20" type="line" smooth="yes"/>
      <point x="403" y="20"/>
      <point x="397" y="31"/>
      <point x="397" y="108" type="curve" smooth="yes"/>
      <point x="397" y="208" type="line"/>
      <point x="538" y="208" type="line"/>
      <point x="538" y="233" type="line"/>
      <point x="397" y="233" type="line"/>
      <point x="397" y="714" type="line"/>
      <point x="368" y="714" type="line"/>
      <point x="16" y="225" type="line"/>
      <point x="16" y="208" type="line"/>
      <point x="369" y="208" type="line"/>
      <point x="369" y="108" type="line" smooth="yes"/>
      <point x="369" y="31"/>
      <point x="363" y="20"/>
      <point x="313" y="20" type="curve" smooth="yes"/>
      <point x="260" y="20" type="line"/>
    </contour>
    <contour>
      <point x="52" y="233" type="line"/>
      <point x="254" y="512" type="line" smooth="yes"/>
      <point x="290" y="562"/>
      <point x="358" y="660"/>
      <point x="371" y="683" type="curve"/>
      <point x="369" y="622"/>
      <point x="369" y="507"/>
      <point x="369" y="449" type="curve" smooth="yes"/>
      <point x="369" y="233" type="line"/>
    </contour>
  </outline>
</glyph>
<glyph name="five.mlym" format="2">
  <advance width="559"/>
  <unicode hex="0035"/>
  <outline>
    <contour>
      <point x="250" y="-10" type="curve" smooth="yes"/>
      <point x="390" y="-10"/>
      <point x="461" y="91"/>
      <point x="461" y="216" type="curve" smooth="yes"/>
      <point x="461" y="353"/>
      <point x="370" y="423"/>
      <point x="257" y="423" type="curve" smooth="yes"/>
      <point x="212" y="423"/>
      <point x="170" y="412"/>
      <point x="139" y="390" type="curve"/>
      <point x="167" y="684" type="line"/>
      <point x="355" y="684" type="line" smooth="yes"/>
      <point x="410" y="684"/>
      <point x="418" y="682"/>
      <point x="420" y="629" type="curve" smooth="yes"/>
      <point x="421" y="601" type="line"/>
      <point x="441" y="601" type="line"/>
      <point x="438" y="712" type="line"/>
      <point x="144" y="712" type="line"/>
      <point x="110" y="355" type="line"/>
      <point x="123" y="351" type="line"/>
      <point x="159" y="386"/>
      <point x="214" y="398"/>
      <point x="263" y="398" type="curve" smooth="yes"/>
      <point x="358" y="398"/>
      <point x="433" y="332"/>
      <point x="433" y="216" type="curve" smooth="yes"/>
      <point x="433" y="99"/>
      <point x="369" y="15"/>
      <point x="256" y="15" type="curve" smooth="yes"/>
      <point x="171" y="15"/>
      <point x="102" y="45"/>
      <point x="102" y="126" type="curve"/>
      <point x="91" y="126"/>
      <point x="81" y="119"/>
      <point x="81" y="93" type="curve" smooth="yes"/>
      <point x="81" y="39"/>
      <point x="145" y="-10"/>
    </contour>
  </outline>
</glyph>
<glyph name="eight.mlym" format="2">
  <advance width="559"/>
  <unicode hex="0038"/>
  <outline>
    <contour>
      <point x="275" y="-10" type="curve" smooth="yes"/>
      <point x="401" y="-10"/>
      <point x="489" y="50"/>
      <point x="489" y="167" type="curve" smooth="yes"/>
      <point x="489" y="274"/>
      <point x="440" y="320"/>
      <point x="319" y="374" type="curve"/>
      <point x="414" y="406"/>
      <point x="468" y="470"/>
      <point x="468" y="562" type="curve" smooth="yes"/>
      <point x="468" y="653"/>
      <point x="405" y="724"/>
      <point x="279" y="724" type="curve" smooth="yes"/>
      <point x="163" y="724"/>
      <point x="95" y="661"/>
      <point x="95" y="555" type="curve" smooth="yes"/>
      <point x="95" y="463"/>
      <point x="156" y="416"/>
      <point x="247" y="376" type="curve"/>
      <point x="135" y="339"/>
      <point x="70" y="271"/>
      <point x="70" y="169" type="curve" smooth="yes"/>
      <point x="70" y="57"/>
      <point x="141" y="-10"/>
    </contour>
    <contour>
      <point x="272" y="15" type="curve" smooth="yes"/>
      <point x="156" y="15"/>
      <point x="98" y="71"/>
      <point x="98" y="171" type="curve" smooth="yes"/>
      <point x="98" y="254"/>
      <point x="158" y="324"/>
      <point x="281" y="362" type="curve"/>
      <point x="434" y="300"/>
      <point x="461" y="245"/>
      <point x="461" y="169" type="curve" smooth="yes"/>
      <point x="461" y="64"/>
      <point x="387" y="15"/>
    </contour>
    <contour>
      <point x="287" y="388" type="curve"/>
      <point x="178" y="434"/>
      <point x="123" y="469"/>
      <point x="123" y="561" type="curve" smooth="yes"/>
      <point x="123" y="646"/>
      <point x="180" y="699"/>
      <point x="285" y="699" type="curve" smooth="yes"/>
      <point x="397" y="699"/>
      <point x="440" y="631"/>
      <point x="440" y="558" type="curve" smooth="yes"/>
      <point x="440" y="484"/>
      <point x="403" y="424"/>
    </contour>
  </outline>
</glyph>
<glyph name="colon.mlym" format="2">
  <advance width="212"/>
  <unicode hex="003A"/>
  <outline>
    <contour>
      <point x="106" y="-5" type="curve" smooth="yes"/>
      <point x="122" y="-5"/>
      <point x="135" y="4"/>
      <point x="135" y="35" type="curve" smooth="yes"/>
      <point x="135" y="65"/>
      <point x="122" y="73"/>
      <point x="106" y="73" type="curve" smooth="yes"/>
      <point x="91" y="73"/>
      <point x="77" y="65"/>
      <point x="77" y="35" type="curve" smooth="yes"/>
      <point x="77" y="4"/>
      <point x="91" y="-5"/>
    </contour>
    <contour>
      <point x="106" y="443" type="curve" smooth="yes"/>
      <point x="122" y="443"/>
      <point x="135" y="452"/>
      <point x="135" y="483" type="curve" smooth="yes"/>
      <point x="135" y="513"/>
      <point x="122" y="521"/>
      <point x="106" y="521" type="curve" smooth="yes"/>
      <point x="91" y="521"/>
      <point x="77" y="513"/>
      <point x="77" y="483" type="curve" smooth="yes"/>
      <point x="77" y="452"/>
      <point x="91" y="443"/>
    </contour>
  </outline>
</glyph>
<glyph name="semicolon.mlym" format="2">
  <advance width="229"/>
  <unicode hex="003B"/>
  <outline>
    <contour>
      <point x="50" y="-158" type="line"/>
      <point x="139" y="-123"/>
      <point x="157" y="-73"/>
      <point x="157" y="-19" type="curve" smooth="yes"/>
      <point x="157" y="42"/>
      <point x="129" y="73"/>
      <point x="102" y="73" type="curve" smooth="yes"/>
      <point x="83" y="73"/>
      <point x="72" y="61"/>
      <point x="72" y="46" type="curve" smooth="yes"/>
      <point x="72" y="5"/>
      <point x="129" y="17"/>
      <point x="129" y="-38" type="curve" smooth="yes"/>
      <point x="129" y="-81"/>
      <point x="104" y="-112"/>
      <point x="50" y="-133" type="curve"/>
    </contour>
    <contour>
      <point x="111" y="443" type="curve" smooth="yes"/>
      <point x="127" y="443"/>
      <point x="140" y="452"/>
      <point x="140" y="483" type="curve" smooth="yes"/>
      <point x="140" y="513"/>
      <point x="127" y="521"/>
      <point x="111" y="521" type="curve" smooth="yes"/>
      <point x="96" y="521"/>
      <point x="82" y="513"/>
      <point x="82" y="483" type="curve" smooth="yes"/>
      <point x="82" y="452"/>
      <point x="96" y="443"/>
    </contour>
  </outline>
</glyph>
<glyph name="less.mlym" format="2">
  <advance width="559"/>
  <unicode hex="003C"/>
  <outline>
    <contour>
      <point x="494" y="118" type="line"/>
      <point x="494" y="149" type="line"/>
      <point x="95" y="357" type="line"/>
      <point x="494" y="567" type="line"/>
      <point x="494" y="598" type="line"/>
      <point x="65" y="371" type="line"/>
      <point x="65" y="344" type="line"/>
    </contour>
  </outline>
</glyph>
<glyph name="equal.mlym" format="2">
  <advance width="559"/>
  <unicode hex="003D"/>
  <outline>
    <contour>
      <point x="68" y="451" type="line"/>
      <point x="491" y="451" type="line"/>
      <point x="491" y="479" type="line"/>
      <point x="68" y="479" type="line"/>
    </contour>
    <contour>
      <point x="68" y="235" type="line"/>
      <point x="491" y="235" type="line"/>
      <point x="491" y="263" type="line"/>
      <point x="68" y="263" type="line"/>
    </contour>
  </outline>
</glyph>
<glyph name="question.mlym" format="2">
  <advance width="416"/>
  <unicode hex="003F"/>
  <outline>
    <contour>
      <point x="193" y="201" type="line"/>
      <point x="213" y="201" type="line"/>
      <point x="217" y="324" type="line"/>
      <point x="329" y="377"/>
      <point x="376" y="441"/>
      <point x="376" y="551" type="curve" smooth="yes"/>
      <point x="376" y="651"/>
      <point x="312" y="724"/>
      <point x="197" y="724" type="curve" smooth="yes"/>
      <point x="70" y="724"/>
      <point x="33" y="656"/>
      <point x="33" y="618" type="curve" smooth="yes"/>
      <point x="33" y="594"/>
      <point x="40" y="579"/>
      <point x="54" y="579" type="curve"/>
      <point x="54" y="639"/>
      <point x="80" y="699"/>
      <point x="199" y="699" type="curve" smooth="yes"/>
      <point x="299" y="699"/>
      <point x="351" y="634"/>
      <point x="351" y="551" type="curve" smooth="yes"/>
      <point x="351" y="448"/>
      <point x="301" y="389"/>
      <point x="189" y="337" type="curve"/>
    </contour>
    <contour>
      <point x="202" y="-5" type="curve" smooth="yes"/>
      <point x="218" y="-5"/>
      <point x="231" y="4"/>
      <point x="231" y="35" type="curve" smooth="yes"/>
      <point x="231" y="65"/>
      <point x="218" y="73"/>
      <point x="202" y="73" type="curve" smooth="yes"/>
      <point x="187" y="73"/>
      <point x="173" y="65"/>
      <point x="173" y="35" type="curve" smooth="yes"/>
      <point x="173" y="4"/>
      <point x="187" y="-5"/>
    </contour>
  </outline>
</glyph>
<glyph name="bracketleft.mlym" format="2">
  <advance width="298"/>
  <unicode hex="005B"/>
  <outline>
    <contour>
      <point x="106" y="-244" type="line"/>
      <point x="261" y="-244" type="line"/>
      <point x="261" y="-222" type="line"/>
      <point x="177" y="-222" type="line" smooth="yes"/>
      <point x="140" y="-222"/>
      <point x="134" y="-213"/>
      <point x="134" y="-166" type="curve" smooth="yes"/>
      <point x="134" y="722" type="line" smooth="yes"/>
      <point x="134" y="769"/>
      <point x="140" y="778"/>
      <point x="180" y="778" type="curve" smooth="yes"/>
      <point x="261" y="778" type="line"/>
      <point x="261" y="800" type="line"/>
      <point x="106" y="800" type="line"/>
    </contour>
  </outline>
</glyph>
<glyph name="backslash.mlym" format="2">
  <advance width="324"/>
  <unicode hex="005C"/>
  <outline>
    <contour>
      <point x="271" y="-244" type="line"/>
      <point x="300" y="-244" type="line"/>
      <point x="53" y="800" type="line"/>
      <point x="24" y="800" type="line"/>
    </contour>
  </outline>
</glyph>
<glyph name="bracketright.mlym" format="2">
  <advance width="298"/>
  <unicode hex="005D"/>
  <outline>
    <contour>
      <point x="36" y="-244" type="line"/>
      <point x="191" y="-244" type="line"/>
      <point x="191" y="800" type="line"/>
      <point x="36" y="800" type="line"/>
      <point x="36" y="780" type="line"/>
      <point x="107" y="780" type="line" smooth="yes"/>
      <point x="157" y="780"/>
      <point x="163" y="769"/>
      <point x="163" y="692" type="curve" smooth="yes"/>
      <point x="163" y="-166" type="line" smooth="yes"/>
      <point x="163" y="-213"/>
      <point x="157" y="-222"/>
      <point x="117" y="-222" type="curve" smooth="yes"/>
      <point x="36" y="-222" type="line"/>
    </contour>
  </outline>
</glyph>
<glyph name="asciicircum.mlym" format="2">
  <advance width="559"/>
  <unicode hex="005E"/>
  <outline>
    <contour>
      <point x="58" y="272" type="line"/>
      <point x="89" y="272" type="line"/>
      <point x="279" y="679" type="line"/>
      <point x="471" y="272" type="line"/>
      <point x="502" y="272" type="line"/>
      <point x="291" y="714" type="line"/>
      <point x="266" y="714" type="line"/>
    </contour>
  </outline>
</glyph>
<glyph name="braceleft.mlym" format="2">
  <advance width="372"/>
  <unicode hex="007B"/>
  <outline>
    <contour>
      <point x="286" y="-243" type="curve" smooth="yes"/>
      <point x="336" y="-243" type="line"/>
      <point x="336" y="-218" type="line"/>
      <point x="286" y="-218" type="line" smooth="yes"/>
      <point x="229" y="-218"/>
      <point x="204" y="-171"/>
      <point x="204" y="-98" type="curve" smooth="yes"/>
      <point x="204" y="150" type="line" smooth="yes"/>
      <point x="204" y="222"/>
      <point x="169" y="270"/>
      <point x="110" y="277" type="curve"/>
      <point x="110" y="280" type="line"/>
      <point x="169" y="287"/>
      <point x="204" y="336"/>
      <point x="204" y="406" type="curve" smooth="yes"/>
      <point x="204" y="660" type="line" smooth="yes"/>
      <point x="204" y="737"/>
      <point x="229" y="775"/>
      <point x="291" y="775" type="curve" smooth="yes"/>
      <point x="336" y="775" type="line"/>
      <point x="336" y="800" type="line"/>
      <point x="286" y="800" type="line" smooth="yes"/>
      <point x="216" y="800"/>
      <point x="176" y="750"/>
      <point x="176" y="661" type="curve" smooth="yes"/>
      <point x="176" y="408" type="line" smooth="yes"/>
      <point x="176" y="321"/>
      <point x="124" y="292"/>
      <point x="56" y="290" type="curve"/>
      <point x="56" y="267" type="line"/>
      <point x="124" y="264"/>
      <point x="176" y="237"/>
      <point x="176" y="147" type="curve" smooth="yes"/>
      <point x="176" y="-96" type="line" smooth="yes"/>
      <point x="176" y="-188"/>
      <point x="216" y="-243"/>
    </contour>
  </outline>
</glyph>
<glyph name="bar.mlym" format="2">
  <advance width="506"/>
  <unicode hex="007C"/>
  <outline>
    <contour>
      <point x="239" y="-244" type="line"/>
      <point x="267" y="-244" type="line"/>
      <point x="267" y="800" type="line"/>
      <point x="239" y="800" type="line"/>
    </contour>
  </outline>
</glyph>
<glyph name="braceright.mlym" format="2">
  <advance width="372"/>
  <unicode hex="007D"/>
  <outline>
    <contour>
      <point x="36" y="-243" type="line"/>
      <point x="86" y="-243" type="line" smooth="yes"/>
      <point x="156" y="-243"/>
      <point x="196" y="-193"/>
      <point x="196" y="-104" type="curve" smooth="yes"/>
      <point x="196" y="149" type="line" smooth="yes"/>
      <point x="196" y="236"/>
      <point x="248" y="265"/>
      <point x="316" y="267" type="curve"/>
      <point x="316" y="290" type="line"/>
      <point x="248" y="293"/>
      <point x="196" y="320"/>
      <point x="196" y="410" type="curve" smooth="yes"/>
      <point x="196" y="653" type="line" smooth="yes"/>
      <point x="196" y="745"/>
      <point x="156" y="800"/>
      <point x="86" y="800" type="curve" smooth="yes"/>
      <point x="36" y="800" type="line"/>
      <point x="36" y="775" type="line"/>
      <point x="86" y="775" type="line" smooth="yes"/>
      <point x="143" y="775"/>
      <point x="168" y="728"/>
      <point x="168" y="655" type="curve" smooth="yes"/>
      <point x="168" y="407" type="line" smooth="yes"/>
      <point x="168" y="335"/>
      <point x="203" y="287"/>
      <point x="262" y="280" type="curve"/>
      <point x="262" y="277" type="line"/>
      <point x="203" y="270"/>
      <point x="168" y="221"/>
      <point x="168" y="151" type="curve" smooth="yes"/>
      <point x="168" y="-103" type="line" smooth="yes"/>
      <point x="168" y="-180"/>
      <point x="143" y="-218"/>
      <point x="81" y="-218" type="curve" smooth="yes"/>
      <point x="36" y="-218" type="line"/>
    </contour>
  </outline>
</glyph>
<glyph name="asciitilde.mlym" format="2">
  <advance width="559"/>
  <unicode hex="007E"/>
  <outline>
    <contour>
      <point x="64" y="277" type="curve"/>
      <point x="94" y="277" type="line"/>
      <point x="111" y="363"/>
      <point x="124" y="408"/>
      <point x="173" y="408" type="curve" smooth="yes"/>
      <point x="208" y="408"/>
      <point x="224" y="394"/>
      <point x="277" y="339" type="curve" smooth="yes"/>
      <point x="310" y="304"/>
      <point x="345" y="277"/>
      <point x="386" y="277" type="curve" smooth="yes"/>
      <point x="459" y="277"/>
      <point x="477" y="350"/>
      <point x="494" y="436" type="curve"/>
      <point x="463" y="436" type="line"/>
      <point x="443" y="343"/>
      <point x="432" y="305"/>
      <point x="386" y="305" type="curve" smooth="yes"/>
      <point x="356" y="305"/>
      <point x="332" y="323"/>
      <point x="289" y="367" type="curve" smooth="yes"/>
      <point x="242" y="416"/>
      <point x="215" y="436"/>
      <point x="177" y="436" type="curve" smooth="yes"/>
      <point x="102" y="436"/>
      <point x="85" y="379"/>
    </contour>
  </outline>
</glyph>
<glyph name="uni0307" format="2">
  <unicode hex="0307"/>
  <outline>
    <contour>
      <point x="-282" y="671" type="curve" smooth="yes"/>
      <point x="-258" y="671"/>
      <point x="-255" y="685"/>
      <point x="-255" y="702" type="curve" smooth="yes"/>
      <point x="-255" y="718"/>
      <point x="-258" y="733"/>
      <point x="-282" y="733" type="curve" smooth="yes"/>
      <point x="-302" y="733"/>
      <point x="-307" y="718"/>
      <point x="-307" y="702" type="curve" smooth="yes"/>
      <point x="-307" y="685"/>
      <point x="-302" y="671"/>
    </contour>
  </outline>
</glyph>
<glyph name="uni0323" format="2">
  <unicode hex="0323"/>
  <outline>
    <contour>
      <point x="-282" y="-173" type="curve" smooth="yes"/>
      <point x="-258" y="-173"/>
      <point x="-255" y="-159"/>
      <point x="-255" y="-142" type="curve" smooth="yes"/>
      <point x="-255" y="-126"/>
      <point x="-258" y="-111"/>
      <point x="-282" y="-111" type="curve" smooth="yes"/>
      <point x="-302" y="-111"/>
      <point x="-307" y="-126"/>
      <point x="-307" y="-142" type="curve" smooth="yes"/>
      <point x="-307" y="-159"/>
      <point x="-302" y="-173"/>
    </contour>
  </outline>
</glyph>
<glyph name="uni0951" format="2">
  <unicode hex="0951"/>
  <outline>
    <contour>
      <point x="-293" y="667" type="line"/>
      <point x="-266" y="667" type="line"/>
      <point x="-266" y="864" type="line"/>
      <point x="-293" y="864" type="line"/>
    </contour>
  </outline>
</glyph>
<glyph name="uni0952" format="2">
  <unicode hex="0952"/>
  <outline>
    <contour>
      <point x="-93" y="-157" type="line"/>
      <point x="-93" y="-132" type="line"/>
      <point x="-466" y="-132" type="line"/>
      <point x="-466" y="-157" type="line"/>
    </contour>
  </outline>
</glyph>
<glyph name="danda.mlym" format="2">
  <advance width="285"/>
  <unicode hex="0964"/>
  <outline>
    <contour>
      <point x="176" y="-59" type="line"/>
      <point x="203" y="-59" type="line"/>
      <point x="203" y="605" type="line"/>
      <point x="176" y="605" type="line"/>
    </contour>
  </outline>
</glyph>
<glyph name="dbldanda.mlym" format="2">
  <advance width="457"/>
  <unicode hex="0965"/>
  <outline>
    <contour>
      <point x="176" y="-59" type="line"/>
      <point x="203" y="-59" type="line"/>
      <point x="203" y="605" type="line"/>
      <point x="176" y="605" type="line"/>
    </contour>
    <contour>
      <point x="348" y="-59" type="line"/>
      <point x="375" y="-59" type="line"/>
      <point x="375" y="605" type="line"/>
      <point x="348" y="605" type="line"/>
    </contour>
  </outline>
</glyph>
<glyph name="candrabindumlym" format="2">
  <unicode hex="0D01"/>
  <outline>
    <contour>
      <point x="-279" y="672" type="curve" smooth="yes"/>
      <point x="-179" y="672"/>
      <point x="-139" y="735"/>
      <point x="-139" y="788" type="curve" smooth="yes"/>
      <point x="-139" y="824"/>
      <point x="-152" y="843"/>
      <point x="-167" y="843" type="curve" smooth="yes"/>
      <point x="-170" y="843"/>
      <point x="-173" y="842"/>
      <point x="-176" y="841" type="curve"/>
      <point x="-169" y="826"/>
      <point x="-166" y="809"/>
      <point x="-166" y="794" type="curve" smooth="yes"/>
      <point x="-166" y="738"/>
      <point x="-202" y="696"/>
      <point x="-279" y="696" type="curve" smooth="yes"/>
      <point x="-357" y="696"/>
      <point x="-394" y="738"/>
      <point x="-394" y="794" type="curve" smooth="yes"/>
      <point x="-394" y="809"/>
      <point x="-391" y="826"/>
      <point x="-384" y="841" type="curve"/>
      <point x="-387" y="842"/>
      <point x="-390" y="843"/>
      <point x="-393" y="843" type="curve" smooth="yes"/>
      <point x="-408" y="843"/>
      <point x="-421" y="824"/>
      <point x="-421" y="788" type="curve" smooth="yes"/>
      <point x="-421" y="735"/>
      <point x="-381" y="672"/>
    </contour>
    <contour>
      <point x="-280" y="782" type="curve" smooth="yes"/>
      <point x="-257" y="782"/>
      <point x="-254" y="796"/>
      <point x="-254" y="813" type="curve" smooth="yes"/>
      <point x="-254" y="829"/>
      <point x="-257" y="844"/>
      <point x="-280" y="844" type="curve" smooth="yes"/>
      <point x="-301" y="844"/>
      <point x="-306" y="829"/>
      <point x="-306" y="813" type="curve" smooth="yes"/>
      <point x="-306" y="796"/>
      <point x="-301" y="782"/>
    </contour>
  </outline>
</glyph>
<glyph name="anusvaramlym" format="2">
  <advance width="424"/>
  <unicode hex="0D02"/>
  <outline>
    <contour>
      <point x="211" y="9" type="curve" smooth="yes"/>
      <point x="318" y="9"/>
      <point x="383" y="87"/>
      <point x="383" y="182" type="curve" smooth="yes"/>
      <point x="383" y="277"/>
      <point x="318" y="355"/>
      <point x="213" y="355" type="curve" smooth="yes"/>
      <point x="107" y="355"/>
      <point x="41" y="277"/>
      <point x="41" y="182" type="curve" smooth="yes"/>
      <point x="41" y="87"/>
      <point x="106" y="9"/>
    </contour>
    <contour>
      <point x="213" y="34" type="curve" smooth="yes"/>
      <point x="123" y="34"/>
      <point x="69" y="95"/>
      <point x="69" y="182" type="curve" smooth="yes"/>
      <point x="69" y="268"/>
      <point x="123" y="330"/>
      <point x="211" y="330" type="curve" smooth="yes"/>
      <point x="300" y="330"/>
      <point x="355" y="269"/>
      <point x="355" y="182" type="curve" smooth="yes"/>
      <point x="355" y="96"/>
      <point x="300" y="34"/>
    </contour>
  </outline>
</glyph>
<glyph name="visargamlym" format="2">
  <advance width="251"/>
  <unicode hex="0D03"/>
  <outline>
    <contour>
      <point x="125" y="8" type="curve" smooth="yes"/>
      <point x="177" y="8"/>
      <point x="217" y="42"/>
      <point x="217" y="100" type="curve" smooth="yes"/>
      <point x="217" y="158"/>
      <point x="177" y="192"/>
      <point x="126" y="192" type="curve" smooth="yes"/>
      <point x="74" y="192"/>
      <point x="34" y="158"/>
      <point x="34" y="100" type="curve" smooth="yes"/>
      <point x="34" y="42"/>
      <point x="74" y="8"/>
    </contour>
    <contour>
      <point x="126" y="33" type="curve" smooth="yes"/>
      <point x="94" y="33"/>
      <point x="61" y="52"/>
      <point x="61" y="100" type="curve" smooth="yes"/>
      <point x="61" y="148"/>
      <point x="94" y="167"/>
      <point x="126" y="167" type="curve" smooth="yes"/>
      <point x="157" y="167"/>
      <point x="190" y="148"/>
      <point x="190" y="100" type="curve" smooth="yes"/>
      <point x="190" y="52"/>
      <point x="157" y="33"/>
    </contour>
    <contour>
      <point x="125" y="326" type="curve" smooth="yes"/>
      <point x="177" y="326"/>
      <point x="217" y="360"/>
      <point x="217" y="418" type="curve" smooth="yes"/>
      <point x="217" y="476"/>
      <point x="177" y="510"/>
      <point x="126" y="510" type="curve" smooth="yes"/>
      <point x="74" y="510"/>
      <point x="34" y="476"/>
      <point x="34" y="418" type="curve" smooth="yes"/>
      <point x="34" y="360"/>
      <point x="74" y="326"/>
    </contour>
    <contour>
      <point x="126" y="351" type="curve" smooth="yes"/>
      <point x="94" y="351"/>
      <point x="61" y="370"/>
      <point x="61" y="418" type="curve" smooth="yes"/>
      <point x="61" y="466"/>
      <point x="94" y="485"/>
      <point x="126" y="485" type="curve" smooth="yes"/>
      <point x="157" y="485"/>
      <point x="190" y="466"/>
      <point x="190" y="418" type="curve" smooth="yes"/>
      <point x="190" y="370"/>
      <point x="157" y="351"/>
    </contour>
  </outline>
</glyph>
<glyph name="amlym" format="2">
  <advance width="1333"/>
  <unicode hex="0D05"/>
  <outline>
    <contour>
      <point x="183" y="-6" type="curve" smooth="yes"/>
      <point x="192" y="-6"/>
      <point x="197" y="-4"/>
      <point x="202" y="1" type="curve"/>
      <point x="114" y="57"/>
      <point x="76" y="159"/>
      <point x="76" y="256" type="curve" smooth="yes"/>
      <point x="76" y="446"/>
      <point x="215" y="524"/>
      <point x="334" y="524" type="curve" smooth="yes"/>
      <point x="491" y="524"/>
      <point x="584" y="465"/>
      <point x="584" y="373" type="curve" smooth="yes"/>
      <point x="584" y="304"/>
      <point x="528" y="269"/>
      <point x="440" y="267" type="curve"/>
      <point x="440" y="242" type="line"/>
      <point x="512" y="240"/>
      <point x="583" y="213"/>
      <point x="583" y="125" type="curve" smooth="yes"/>
      <point x="583" y="46"/>
      <point x="524" y="19"/>
      <point x="465" y="19" type="curve" smooth="yes"/>
      <point x="380" y="19"/>
      <point x="306" y="78"/>
      <point x="306" y="236" type="curve" smooth="yes"/>
      <point x="306" y="399"/>
      <point x="415" y="524"/>
      <point x="563" y="524" type="curve" smooth="yes"/>
      <point x="687" y="524"/>
      <point x="769" y="449"/>
      <point x="769" y="290" type="curve" smooth="yes"/>
      <point x="769" y="0" type="line"/>
      <point x="796" y="0" type="line"/>
      <point x="796" y="300" type="line" smooth="yes"/>
      <point x="796" y="434"/>
      <point x="870" y="524"/>
      <point x="1011" y="524" type="curve" smooth="yes"/>
      <point x="1156" y="524"/>
      <point x="1257" y="406"/>
      <point x="1257" y="237" type="curve" smooth="yes"/>
      <point x="1257" y="106"/>
      <point x="1209" y="19"/>
      <point x="1115" y="19" type="curve" smooth="yes"/>
      <point x="1039" y="19"/>
      <point x="984" y="92"/>
      <point x="984" y="206" type="curve" smooth="yes"/>
      <point x="984" y="340"/>
      <point x="1052" y="441"/>
      <point x="1134" y="498" type="curve"/>
      <point x="1116" y="516" type="line"/>
      <point x="1024" y="453"/>
      <point x="956" y="343"/>
      <point x="956" y="206" type="curve" smooth="yes"/>
      <point x="956" y="88"/>
      <point x="1015" y="-6"/>
      <point x="1115" y="-6" type="curve" smooth="yes"/>
      <point x="1226" y="-6"/>
      <point x="1285" y="90"/>
      <point x="1285" y="237" type="curve" smooth="yes"/>
      <point x="1285" y="421"/>
      <point x="1170" y="549"/>
      <point x="1010" y="549" type="curve" smooth="yes"/>
      <point x="884" y="549"/>
      <point x="794" y="487"/>
      <point x="779" y="355" type="curve"/>
      <point x="786" y="351" type="line"/>
      <point x="774" y="482"/>
      <point x="689" y="549"/>
      <point x="563" y="549" type="curve" smooth="yes"/>
      <point x="406" y="549"/>
      <point x="278" y="413"/>
      <point x="278" y="235" type="curve" smooth="yes"/>
      <point x="278" y="71"/>
      <point x="357" y="-6"/>
      <point x="465" y="-6" type="curve" smooth="yes"/>
      <point x="554" y="-6"/>
      <point x="611" y="42"/>
      <point x="611" y="125" type="curve" smooth="yes"/>
      <point x="611" y="213"/>
      <point x="553" y="242"/>
      <point x="500" y="254" type="curve"/>
      <point x="501" y="255" type="line"/>
      <point x="573" y="270"/>
      <point x="612" y="304"/>
      <point x="612" y="374" type="curve" smooth="yes"/>
      <point x="612" y="441"/>
      <point x="572" y="494"/>
      <point x="488" y="520" type="curve"/>
      <point x="478" y="528" type="line"/>
      <point x="439" y="542"/>
      <point x="391" y="549"/>
      <point x="336" y="549" type="curve" smooth="yes"/>
      <point x="202" y="549"/>
      <point x="48" y="459"/>
      <point x="48" y="256" type="curve" smooth="yes"/>
      <point x="48" y="112"/>
      <point x="134" y="-6"/>
    </contour>
  </outline>
</glyph>
<glyph name="aamlym" format="2">
  <advance width="1501"/>
  <unicode hex="0D06"/>
  <outline>
    <contour>
      <point x="786" y="300" type="line"/>
      <point x="786" y="351" type="line"/>
      <point x="774" y="482"/>
      <point x="689" y="549"/>
      <point x="563" y="549" type="curve" smooth="yes"/>
      <point x="406" y="549"/>
      <point x="278" y="413"/>
      <point x="278" y="235" type="curve" smooth="yes"/>
      <point x="278" y="71"/>
      <point x="357" y="-6"/>
      <point x="465" y="-6" type="curve" smooth="yes"/>
      <point x="554" y="-6"/>
      <point x="611" y="42"/>
      <point x="611" y="125" type="curve" smooth="yes"/>
      <point x="611" y="213"/>
      <point x="553" y="242"/>
      <point x="500" y="254" type="curve"/>
      <point x="501" y="255" type="line"/>
      <point x="573" y="270"/>
      <point x="612" y="304"/>
      <point x="612" y="374" type="curve" smooth="yes"/>
      <point x="612" y="441"/>
      <point x="572" y="494"/>
      <point x="488" y="520" type="curve"/>
      <point x="478" y="528" type="line"/>
      <point x="439" y="542"/>
      <point x="391" y="549"/>
      <point x="336" y="549" type="curve" smooth="yes"/>
      <point x="202" y="549"/>
      <point x="48" y="459"/>
      <point x="48" y="256" type="curve" smooth="yes"/>
      <point x="48" y="112"/>
      <point x="134" y="-6"/>
      <point x="183" y="-6" type="curve" smooth="yes"/>
      <point x="192" y="-6"/>
      <point x="197" y="-4"/>
      <point x="202" y="1" type="curve"/>
      <point x="114" y="57"/>
      <point x="76" y="159"/>
      <point x="76" y="256" type="curve" smooth="yes"/>
      <point x="76" y="446"/>
      <point x="215" y="524"/>
      <point x="334" y="524" type="curve" smooth="yes"/>
      <point x="491" y="524"/>
      <point x="584" y="465"/>
      <point x="584" y="373" type="curve" smooth="yes"/>
      <point x="584" y="304"/>
      <point x="528" y="269"/>
      <point x="440" y="267" type="curve"/>
      <point x="440" y="242" type="line"/>
      <point x="512" y="240"/>
      <point x="583" y="213"/>
      <point x="583" y="125" type="curve" smooth="yes"/>
      <point x="583" y="46"/>
      <point x="524" y="19"/>
      <point x="465" y="19" type="curve" smooth="yes"/>
      <point x="380" y="19"/>
      <point x="306" y="78"/>
      <point x="306" y="236" type="curve" smooth="yes"/>
      <point x="306" y="399"/>
      <point x="415" y="524"/>
      <point x="563" y="524" type="curve" smooth="yes"/>
      <point x="687" y="524"/>
      <point x="769" y="449"/>
      <point x="769" y="290" type="curve" smooth="yes"/>
      <point x="769" y="0" type="line"/>
      <point x="786" y="0" type="line"/>
    </contour>
    <contour>
      <point x="1179" y="-161" type="curve" smooth="yes"/>
      <point x="1339" y="-161"/>
      <point x="1457" y="-69"/>
      <point x="1457" y="138" type="curve" smooth="yes"/>
      <point x="1457" y="341"/>
      <point x="1342" y="428"/>
      <point x="1194" y="428" type="curve" smooth="yes"/>
      <point x="1041" y="428"/>
      <point x="936" y="326"/>
      <point x="936" y="181" type="curve" smooth="yes"/>
      <point x="936" y="71"/>
      <point x="997" y="-6"/>
      <point x="1097" y="-6" type="curve" smooth="yes"/>
      <point x="1210" y="-6"/>
      <point x="1270" y="83"/>
      <point x="1270" y="237" type="curve" smooth="yes"/>
      <point x="1270" y="420"/>
      <point x="1154" y="549"/>
      <point x="1006" y="549" type="curve" smooth="yes"/>
      <point x="884" y="549"/>
      <point x="794" y="487"/>
      <point x="779" y="354" type="curve"/>
      <point x="779" y="295" type="line"/>
      <point x="779" y="0" type="line"/>
      <point x="796" y="0" type="line"/>
      <point x="796" y="300" type="line" smooth="yes"/>
      <point x="796" y="434"/>
      <point x="870" y="524"/>
      <point x="1007" y="524" type="curve" smooth="yes"/>
      <point x="1144" y="524"/>
      <point x="1242" y="402"/>
      <point x="1242" y="237" type="curve" smooth="yes"/>
      <point x="1242" y="100"/>
      <point x="1194" y="19"/>
      <point x="1097" y="19" type="curve" smooth="yes"/>
      <point x="1014" y="19"/>
      <point x="964" y="82"/>
      <point x="964" y="181" type="curve" smooth="yes"/>
      <point x="964" y="309"/>
      <point x="1052" y="403"/>
      <point x="1195" y="403" type="curve" smooth="yes"/>
      <point x="1330" y="403"/>
      <point x="1429" y="324"/>
      <point x="1429" y="137" type="curve" smooth="yes"/>
      <point x="1429" y="-49"/>
      <point x="1325" y="-136"/>
      <point x="1179" y="-136" type="curve" smooth="yes"/>
      <point x="1102" y="-136"/>
      <point x="1050" y="-117"/>
      <point x="1009" y="-91" type="curve"/>
      <point x="1007" y="-95"/>
      <point x="1005" y="-99"/>
      <point x="1005" y="-104" type="curve" smooth="yes"/>
      <point x="1005" y="-126"/>
      <point x="1068" y="-161"/>
    </contour>
  </outline>
</glyph>
<glyph name="imlym" format="2">
  <advance width="912"/>
  <unicode hex="0D07"/>
  <outline>
    <contour>
      <point x="193" y="-170" type="curve" smooth="yes"/>
      <point x="852" y="-170" type="line"/>
      <point x="852" y="-145" type="line"/>
      <point x="195" y="-145" type="line" smooth="yes"/>
      <point x="100" y="-145"/>
      <point x="81" y="-110"/>
      <point x="81" y="-72" type="curve" smooth="yes"/>
      <point x="81" y="-29"/>
      <point x="108" y="0"/>
      <point x="194" y="0" type="curve" smooth="yes"/>
      <point x="535" y="0" type="line" smooth="yes"/>
      <point x="783" y="0"/>
      <point x="862" y="118"/>
      <point x="862" y="300" type="curve" smooth="yes"/>
      <point x="862" y="435"/>
      <point x="805" y="549"/>
      <point x="664" y="549" type="curve" smooth="yes"/>
      <point x="579" y="549"/>
      <point x="511" y="498"/>
      <point x="495" y="403" type="curve"/>
      <point x="503" y="389" type="line"/>
      <point x="485" y="467"/>
      <point x="429" y="549"/>
      <point x="303" y="549" type="curve" smooth="yes"/>
      <point x="168" y="549"/>
      <point x="50" y="453"/>
      <point x="50" y="295" type="curve" smooth="yes"/>
      <point x="50" y="164"/>
      <point x="128" y="102"/>
      <point x="216" y="102" type="curve" smooth="yes"/>
      <point x="303" y="102"/>
      <point x="359" y="164"/>
      <point x="359" y="246" type="curve" smooth="yes"/>
      <point x="359" y="335"/>
      <point x="292" y="381"/>
      <point x="226" y="381" type="curve" smooth="yes"/>
      <point x="148" y="381"/>
      <point x="98" y="329"/>
      <point x="64" y="274" type="curve"/>
      <point x="69" y="242" type="line"/>
      <point x="108" y="305"/>
      <point x="150" y="356"/>
      <point x="224" y="356" type="curve" smooth="yes"/>
      <point x="285" y="356"/>
      <point x="331" y="310"/>
      <point x="331" y="240" type="curve" smooth="yes"/>
      <point x="331" y="180"/>
      <point x="289" y="127"/>
      <point x="216" y="127" type="curve" smooth="yes"/>
      <point x="132" y="127"/>
      <point x="77" y="189"/>
      <point x="77" y="294" type="curve" smooth="yes"/>
      <point x="77" y="451"/>
      <point x="193" y="524"/>
      <point x="306" y="524" type="curve" smooth="yes"/>
      <point x="414" y="524"/>
      <point x="485" y="448"/>
      <point x="485" y="328" type="curve" smooth="yes"/>
      <point x="485" y="114" type="line"/>
      <point x="512" y="114" type="line"/>
      <point x="512" y="357" type="line" smooth="yes"/>
      <point x="512" y="457"/>
      <point x="574" y="524"/>
      <point x="664" y="524" type="curve" smooth="yes"/>
      <point x="781" y="524"/>
      <point x="834" y="428"/>
      <point x="834" y="300" type="curve" smooth="yes"/>
      <point x="834" y="137"/>
      <point x="772" y="25"/>
      <point x="530" y="25" type="curve" smooth="yes"/>
      <point x="193" y="25" type="line" smooth="yes"/>
      <point x="101" y="25"/>
      <point x="53" y="-8"/>
      <point x="53" y="-71" type="curve" smooth="yes"/>
      <point x="53" y="-131"/>
      <point x="92" y="-170"/>
    </contour>
  </outline>
</glyph>
<glyph name="umlym" format="2">
  <advance width="614"/>
  <unicode hex="0D09"/>
  <outline>
    <contour>
      <point x="193" y="-170" type="curve" smooth="yes"/>
      <point x="556" y="-170" type="line"/>
      <point x="556" y="-145" type="line"/>
      <point x="195" y="-145" type="line" smooth="yes"/>
      <point x="100" y="-145"/>
      <point x="81" y="-110"/>
      <point x="81" y="-72" type="curve" smooth="yes"/>
      <point x="81" y="-29"/>
      <point x="108" y="0"/>
      <point x="194" y="0" type="curve" smooth="yes"/>
      <point x="251" y="0" type="line" smooth="yes"/>
      <point x="488" y="0"/>
      <point x="566" y="118"/>
      <point x="566" y="280" type="curve" smooth="yes"/>
      <point x="566" y="440"/>
      <point x="478" y="549"/>
      <point x="312" y="549" type="curve" smooth="yes"/>
      <point x="164" y="549"/>
      <point x="50" y="453"/>
      <point x="50" y="295" type="curve" smooth="yes"/>
      <point x="50" y="164"/>
      <point x="128" y="102"/>
      <point x="216" y="102" type="curve" smooth="yes"/>
      <point x="303" y="102"/>
      <point x="359" y="164"/>
      <point x="359" y="246" type="curve" smooth="yes"/>
      <point x="359" y="334"/>
      <point x="292" y="381"/>
      <point x="226" y="381" type="curve" smooth="yes"/>
      <point x="148" y="381"/>
      <point x="98" y="329"/>
      <point x="64" y="274" type="curve"/>
      <point x="69" y="242" type="line"/>
      <point x="108" y="305"/>
      <point x="150" y="356"/>
      <point x="224" y="356" type="curve" smooth="yes"/>
      <point x="285" y="356"/>
      <point x="331" y="310"/>
      <point x="331" y="240" type="curve" smooth="yes"/>
      <point x="331" y="181"/>
      <point x="289" y="127"/>
      <point x="216" y="127" type="curve" smooth="yes"/>
      <point x="132" y="127"/>
      <point x="77" y="189"/>
      <point x="77" y="294" type="curve" smooth="yes"/>
      <point x="77" y="451"/>
      <point x="191" y="524"/>
      <point x="312" y="524" type="curve" smooth="yes"/>
      <point x="458" y="524"/>
      <point x="538" y="429"/>
      <point x="538" y="280" type="curve" smooth="yes"/>
      <point x="538" y="137"/>
      <point x="476" y="25"/>
      <point x="248" y="25" type="curve" smooth="yes"/>
      <point x="193" y="25" type="line" smooth="yes"/>
      <point x="101" y="25"/>
      <point x="53" y="-8"/>
      <point x="53" y="-71" type="curve" smooth="yes"/>
      <point x="53" y="-131"/>
      <point x="92" y="-170"/>
    </contour>
  </outline>
</glyph>
<glyph name="rvocalicmlym" format="2">
  <advance width="751"/>
  <unicode hex="0D0B"/>
  <outline>
    <contour>
      <point x="374" y="105" type="curve" smooth="yes"/>
      <point x="593" y="105"/>
      <point x="713" y="177"/>
      <point x="713" y="353" type="curve" smooth="yes"/>
      <point x="713" y="492"/>
      <point x="635" y="549"/>
      <point x="559" y="549" type="curve" smooth="yes"/>
      <point x="479" y="549"/>
      <point x="425" y="491"/>
      <point x="425" y="412" type="curve" smooth="yes"/>
      <point x="425" y="332"/>
      <point x="479" y="282"/>
      <point x="555" y="282" type="curve" smooth="yes"/>
      <point x="608" y="282"/>
      <point x="663" y="301"/>
      <point x="697" y="368" type="curve"/>
      <point x="693" y="400" type="line"/>
      <point x="664" y="340"/>
      <point x="618" y="307"/>
      <point x="556" y="307" type="curve" smooth="yes"/>
      <point x="494" y="307"/>
      <point x="453" y="346"/>
      <point x="453" y="412" type="curve" smooth="yes"/>
      <point x="453" y="470"/>
      <point x="487" y="524"/>
      <point x="559" y="524" type="curve" smooth="yes"/>
      <point x="630" y="524"/>
      <point x="687" y="470"/>
      <point x="687" y="353" type="curve" smooth="yes"/>
      <point x="687" y="182"/>
      <point x="555" y="125"/>
      <point x="374" y="125" type="curve" smooth="yes"/>
      <point x="196" y="125"/>
      <point x="64" y="184"/>
      <point x="64" y="353" type="curve" smooth="yes"/>
      <point x="64" y="468"/>
      <point x="121" y="524"/>
      <point x="192" y="524" type="curve" smooth="yes"/>
      <point x="264" y="524"/>
      <point x="298" y="470"/>
      <point x="298" y="412" type="curve" smooth="yes"/>
      <point x="298" y="346"/>
      <point x="257" y="307"/>
      <point x="195" y="307" type="curve" smooth="yes"/>
      <point x="133" y="307"/>
      <point x="87" y="340"/>
      <point x="58" y="400" type="curve"/>
      <point x="54" y="368" type="line"/>
      <point x="86" y="303"/>
      <point x="143" y="282"/>
      <point x="196" y="282" type="curve" smooth="yes"/>
      <point x="272" y="282"/>
      <point x="326" y="332"/>
      <point x="326" y="412" type="curve" smooth="yes"/>
      <point x="326" y="491"/>
      <point x="272" y="549"/>
      <point x="192" y="549" type="curve" smooth="yes"/>
      <point x="116" y="549"/>
      <point x="38" y="490"/>
      <point x="38" y="353" type="curve" smooth="yes"/>
      <point x="38" y="182"/>
      <point x="158" y="105"/>
    </contour>
    <contour>
      <point x="375" y="-186" type="curve" smooth="yes"/>
      <point x="611" y="-186"/>
      <point x="681" y="-124"/>
      <point x="681" y="-30" type="curve" smooth="yes"/>
      <point x="681" y="69"/>
      <point x="599" y="120"/>
      <point x="372" y="120" type="curve" smooth="yes"/>
      <point x="149" y="120"/>
      <point x="67" y="69"/>
      <point x="67" y="-30" type="curve" smooth="yes"/>
      <point x="67" y="-124"/>
      <point x="137" y="-186"/>
    </contour>
    <contour>
      <point x="375" y="-161" type="curve" smooth="yes"/>
      <point x="171" y="-161"/>
      <point x="95" y="-117"/>
      <point x="95" y="-30" type="curve" smooth="yes"/>
      <point x="95" y="63"/>
      <point x="190" y="101"/>
      <point x="373" y="101" type="curve" smooth="yes"/>
      <point x="558" y="101"/>
      <point x="653" y="63"/>
      <point x="653" y="-30" type="curve" smooth="yes"/>
      <point x="653" y="-117"/>
      <point x="577" y="-161"/>
    </contour>
  </outline>
</glyph>
<glyph name="lvocalicmlym" format="2">
  <advance width="1086"/>
  <unicode hex="0D0C"/>
  <outline>
    <contour>
      <point x="237" y="-6" type="curve" smooth="yes"/>
      <point x="329" y="-6"/>
      <point x="388" y="60"/>
      <point x="388" y="143" type="curve" smooth="yes"/>
      <point x="388" y="235"/>
      <point x="329" y="295"/>
      <point x="247" y="295" type="curve" smooth="yes"/>
      <point x="161" y="295"/>
      <point x="105" y="237"/>
      <point x="72" y="182" type="curve"/>
      <point x="81" y="154" type="line"/>
      <point x="124" y="227"/>
      <point x="177" y="270"/>
      <point x="245" y="270" type="curve" smooth="yes"/>
      <point x="308" y="270"/>
      <point x="360" y="227"/>
      <point x="360" y="143" type="curve" smooth="yes"/>
      <point x="360" y="65"/>
      <point x="301" y="19"/>
      <point x="237" y="19" type="curve" smooth="yes"/>
      <point x="128" y="19"/>
      <point x="75" y="129"/>
      <point x="75" y="261" type="curve" smooth="yes"/>
      <point x="75" y="416"/>
      <point x="184" y="524"/>
      <point x="318" y="524" type="curve" smooth="yes"/>
      <point x="447" y="524"/>
      <point x="522" y="448"/>
      <point x="522" y="320" type="curve" smooth="yes"/>
      <point x="522" y="0" type="line"/>
      <point x="539" y="0" type="line"/>
      <point x="539" y="354" type="line"/>
      <point x="540" y="384" type="line"/>
      <point x="517" y="481"/>
      <point x="448" y="549"/>
      <point x="318" y="549" type="curve"/>
      <point x="169" y="549"/>
      <point x="48" y="431"/>
      <point x="48" y="261" type="curve" smooth="yes"/>
      <point x="48" y="100"/>
      <point x="119" y="-6"/>
    </contour>
    <contour>
      <point x="532" y="290" type="line"/>
      <point x="532" y="0" type="line"/>
      <point x="549" y="0" type="line"/>
      <point x="549" y="300" type="line" smooth="yes"/>
      <point x="549" y="434"/>
      <point x="623" y="524"/>
      <point x="764" y="524" type="curve" smooth="yes"/>
      <point x="909" y="524"/>
      <point x="1010" y="406"/>
      <point x="1010" y="237" type="curve" smooth="yes"/>
      <point x="1010" y="106"/>
      <point x="962" y="19"/>
      <point x="868" y="19" type="curve" smooth="yes"/>
      <point x="792" y="19"/>
      <point x="737" y="92"/>
      <point x="737" y="206" type="curve" smooth="yes"/>
      <point x="737" y="340"/>
      <point x="805" y="441"/>
      <point x="887" y="498" type="curve"/>
      <point x="869" y="516" type="line"/>
      <point x="777" y="453"/>
      <point x="709" y="343"/>
      <point x="709" y="206" type="curve" smooth="yes"/>
      <point x="709" y="88"/>
      <point x="768" y="-6"/>
      <point x="868" y="-6" type="curve" smooth="yes"/>
      <point x="979" y="-6"/>
      <point x="1038" y="90"/>
      <point x="1038" y="237" type="curve" smooth="yes"/>
      <point x="1038" y="421"/>
      <point x="923" y="549"/>
      <point x="763" y="549" type="curve" smooth="yes"/>
      <point x="637" y="549"/>
      <point x="547" y="487"/>
      <point x="532" y="355" type="curve"/>
    </contour>
  </outline>
</glyph>
<glyph name="emlym" format="2">
  <advance width="1203"/>
  <unicode hex="0D0E"/>
  <outline>
    <contour>
      <point x="148" y="-4" type="curve" smooth="yes"/>
      <point x="159" y="-4"/>
      <point x="163" y="0"/>
      <point x="166" y="6" type="curve"/>
      <point x="116" y="34"/>
      <point x="68" y="76"/>
      <point x="68" y="164" type="curve" smooth="yes"/>
      <point x="68" y="241"/>
      <point x="128" y="301"/>
      <point x="208" y="301" type="curve" smooth="yes"/>
      <point x="289" y="301"/>
      <point x="339" y="241"/>
      <point x="339" y="167" type="curve" smooth="yes"/>
      <point x="339" y="90"/>
      <point x="296" y="45"/>
      <point x="257" y="12" type="curve"/>
      <point x="264" y="0" type="line"/>
      <point x="821" y="0" type="line"/>
      <point x="821" y="25" type="line"/>
      <point x="304" y="25" type="line"/>
      <point x="339" y="56"/>
      <point x="367" y="104"/>
      <point x="367" y="167" type="curve" smooth="yes"/>
      <point x="367" y="268"/>
      <point x="292" y="326"/>
      <point x="208" y="326" type="curve" smooth="yes"/>
      <point x="125" y="326"/>
      <point x="40" y="268"/>
      <point x="40" y="164" type="curve" smooth="yes"/>
      <point x="40" y="52"/>
      <point x="121" y="-4"/>
    </contour>
    <contour>
      <point x="999" y="-230" type="curve" smooth="yes"/>
      <point x="1033" y="-230"/>
      <point x="1153" y="-118"/>
      <point x="1153" y="139" type="curve" smooth="yes"/>
      <point x="1153" y="397"/>
      <point x="1031" y="549"/>
      <point x="843" y="549" type="curve" smooth="yes"/>
      <point x="657" y="549"/>
      <point x="511" y="409"/>
      <point x="511" y="131" type="curve" smooth="yes"/>
      <point x="511" y="-83"/>
      <point x="585" y="-228"/>
      <point x="716" y="-228" type="curve" smooth="yes"/>
      <point x="806" y="-228"/>
      <point x="838" y="-170"/>
      <point x="838" y="-83" type="curve" smooth="yes"/>
      <point x="838" y="418" type="line"/>
      <point x="811" y="418" type="line"/>
      <point x="811" y="-84" type="line" smooth="yes"/>
      <point x="811" y="-151"/>
      <point x="789" y="-203"/>
      <point x="716" y="-203" type="curve" smooth="yes"/>
      <point x="611" y="-203"/>
      <point x="539" y="-81"/>
      <point x="539" y="131" type="curve" smooth="yes"/>
      <point x="539" y="399"/>
      <point x="680" y="524"/>
      <point x="843" y="524" type="curve" smooth="yes"/>
      <point x="1005" y="524"/>
      <point x="1124" y="388"/>
      <point x="1124" y="139" type="curve" smooth="yes"/>
      <point x="1124" y="-22"/>
      <point x="1072" y="-157"/>
      <point x="980" y="-225" type="curve"/>
      <point x="985" y="-228"/>
      <point x="992" y="-230"/>
    </contour>
  </outline>
</glyph>
<glyph name="eemlym" format="2">
  <advance width="1195"/>
  <unicode hex="0D0F"/>
  <outline>
    <contour>
      <point x="716" y="-228" type="curve" smooth="yes"/>
      <point x="806" y="-228"/>
      <point x="838" y="-170"/>
      <point x="838" y="-83" type="curve" smooth="yes"/>
      <point x="838" y="418" type="line"/>
      <point x="811" y="418" type="line"/>
      <point x="811" y="-84" type="line" smooth="yes"/>
      <point x="811" y="-150"/>
      <point x="789" y="-203"/>
      <point x="716" y="-203" type="curve" smooth="yes"/>
      <point x="610" y="-203"/>
      <point x="539" y="-80"/>
      <point x="539" y="131" type="curve" smooth="yes"/>
      <point x="539" y="399"/>
      <point x="690" y="524"/>
      <point x="886" y="524" type="curve" smooth="yes"/>
      <point x="1034" y="524"/>
      <point x="1113" y="444"/>
      <point x="1113" y="329" type="curve" smooth="yes"/>
      <point x="1113" y="226"/>
      <point x="1052" y="162"/>
      <point x="954" y="162" type="curve"/>
      <point x="954" y="137" type="line"/>
      <point x="1073" y="137"/>
      <point x="1142" y="63"/>
      <point x="1142" y="-48" type="curve" smooth="yes"/>
      <point x="1142" y="-167"/>
      <point x="1081" y="-203"/>
      <point x="1007" y="-203" type="curve" smooth="yes"/>
      <point x="972" y="-203"/>
      <point x="950" y="-197"/>
      <point x="927" y="-186" type="curve"/>
      <point x="925" y="-189"/>
      <point x="925" y="-193"/>
      <point x="925" y="-195" type="curve" smooth="yes"/>
      <point x="925" y="-206"/>
      <point x="944" y="-228"/>
      <point x="1007" y="-228" type="curve" smooth="yes"/>
      <point x="1104" y="-228"/>
      <point x="1170" y="-177"/>
      <point x="1170" y="-48" type="curve" smooth="yes"/>
      <point x="1170" y="65"/>
      <point x="1110" y="132"/>
      <point x="1014" y="149" type="curve"/>
      <point x="1014" y="151" type="line"/>
      <point x="1089" y="170"/>
      <point x="1141" y="223"/>
      <point x="1141" y="329" type="curve" smooth="yes"/>
      <point x="1141" y="461"/>
      <point x="1049" y="549"/>
      <point x="886" y="549" type="curve" smooth="yes"/>
      <point x="667" y="549"/>
      <point x="511" y="409"/>
      <point x="511" y="131" type="curve" smooth="yes"/>
      <point x="511" y="-83"/>
      <point x="585" y="-228"/>
    </contour>
    <contour>
      <point x="148" y="-4" type="curve" smooth="yes"/>
      <point x="159" y="-4"/>
      <point x="163" y="0"/>
      <point x="166" y="6" type="curve"/>
      <point x="116" y="34"/>
      <point x="68" y="76"/>
      <point x="68" y="164" type="curve" smooth="yes"/>
      <point x="68" y="241"/>
      <point x="128" y="301"/>
      <point x="208" y="301" type="curve" smooth="yes"/>
      <point x="289" y="301"/>
      <point x="339" y="241"/>
      <point x="339" y="167" type="curve" smooth="yes"/>
      <point x="339" y="90"/>
      <point x="296" y="45"/>
      <point x="257" y="12" type="curve"/>
      <point x="264" y="0" type="line"/>
      <point x="826" y="0" type="line"/>
      <point x="826" y="25" type="line"/>
      <point x="304" y="25" type="line"/>
      <point x="339" y="56"/>
      <point x="367" y="104"/>
      <point x="367" y="167" type="curve" smooth="yes"/>
      <point x="367" y="268"/>
      <point x="292" y="326"/>
      <point x="208" y="326" type="curve" smooth="yes"/>
      <point x="125" y="326"/>
      <point x="40" y="268"/>
      <point x="40" y="164" type="curve" smooth="yes"/>
      <point x="40" y="52"/>
      <point x="121" y="-4"/>
    </contour>
  </outline>
</glyph>
<glyph name="omlym" format="2">
  <advance width="695"/>
  <unicode hex="0D12"/>
  <outline>
    <contour>
      <point x="234" y="-6" type="curve" smooth="yes"/>
      <point x="327" y="-6"/>
      <point x="386" y="60"/>
      <point x="386" y="143" type="curve" smooth="yes"/>
      <point x="386" y="235"/>
      <point x="327" y="295"/>
      <point x="245" y="295" type="curve" smooth="yes"/>
      <point x="159" y="295"/>
      <point x="103" y="237"/>
      <point x="70" y="182" type="curve"/>
      <point x="79" y="154" type="line"/>
      <point x="122" y="227"/>
      <point x="175" y="270"/>
      <point x="243" y="270" type="curve" smooth="yes"/>
      <point x="306" y="270"/>
      <point x="358" y="227"/>
      <point x="358" y="143" type="curve" smooth="yes"/>
      <point x="358" y="65"/>
      <point x="299" y="19"/>
      <point x="234" y="19" type="curve" smooth="yes"/>
      <point x="126" y="19"/>
      <point x="73" y="124"/>
      <point x="73" y="237" type="curve" smooth="yes"/>
      <point x="73" y="423"/>
      <point x="221" y="524"/>
      <point x="409" y="524" type="curve" smooth="yes"/>
      <point x="553" y="524"/>
      <point x="612" y="481"/>
      <point x="612" y="401" type="curve" smooth="yes"/>
      <point x="612" y="326"/>
      <point x="558" y="288"/>
      <point x="466" y="288" type="curve" smooth="yes"/>
      <point x="454" y="288" type="line"/>
      <point x="454" y="263" type="line"/>
      <point x="466" y="263" type="line" smooth="yes"/>
      <point x="561" y="263"/>
      <point x="623" y="219"/>
      <point x="623" y="136" type="curve" smooth="yes"/>
      <point x="623" y="69"/>
      <point x="586" y="19"/>
      <point x="505" y="19" type="curve" smooth="yes"/>
      <point x="469" y="19"/>
      <point x="438" y="27"/>
      <point x="410" y="47" type="curve"/>
      <point x="407" y="43"/>
      <point x="406" y="39"/>
      <point x="406" y="34" type="curve" smooth="yes"/>
      <point x="406" y="18"/>
      <point x="441" y="-6"/>
      <point x="505" y="-6" type="curve" smooth="yes"/>
      <point x="597" y="-6"/>
      <point x="651" y="50"/>
      <point x="651" y="136" type="curve" smooth="yes"/>
      <point x="651" y="219"/>
      <point x="597" y="262"/>
      <point x="532" y="273" type="curve"/>
      <point x="532" y="275" type="line"/>
      <point x="609" y="293"/>
      <point x="640" y="337"/>
      <point x="640" y="402" type="curve" smooth="yes"/>
      <point x="640" y="482"/>
      <point x="586" y="549"/>
      <point x="409" y="549" type="curve" smooth="yes"/>
      <point x="205" y="549"/>
      <point x="46" y="436"/>
      <point x="46" y="237" type="curve" smooth="yes"/>
      <point x="46" y="99"/>
      <point x="117" y="-6"/>
    </contour>
  </outline>
</glyph>
<glyph name="kamlym" format="2">
  <advance width="909"/>
  <unicode hex="0D15"/>
  <outline>
    <contour>
      <point x="168" y="-6" type="curve" smooth="yes"/>
      <point x="238" y="-6"/>
      <point x="297" y="31"/>
      <point x="328" y="99" type="curve"/>
      <point x="309" y="111" type="line"/>
      <point x="277" y="44"/>
      <point x="224" y="19"/>
      <point x="171" y="19" type="curve" smooth="yes"/>
      <point x="121" y="19"/>
      <point x="69" y="48"/>
      <point x="69" y="127" type="curve" smooth="yes"/>
      <point x="69" y="235"/>
      <point x="158" y="264"/>
      <point x="258" y="264" type="curve" smooth="yes"/>
      <point x="660" y="264" type="line" smooth="yes"/>
      <point x="779" y="264"/>
      <point x="840" y="221"/>
      <point x="840" y="133" type="curve" smooth="yes"/>
      <point x="840" y="55"/>
      <point x="785" y="19"/>
      <point x="746" y="19" type="curve" smooth="yes"/>
      <point x="723" y="19"/>
      <point x="703" y="23"/>
      <point x="689" y="27" type="curve"/>
      <point x="689" y="3"/>
      <point x="712" y="-6"/>
      <point x="746" y="-6" type="curve" smooth="yes"/>
      <point x="807" y="-6"/>
      <point x="868" y="41"/>
      <point x="868" y="133" type="curve" smooth="yes"/>
      <point x="868" y="235"/>
      <point x="795" y="289"/>
      <point x="663" y="289" type="curve" smooth="yes"/>
      <point x="257" y="289" type="line" smooth="yes"/>
      <point x="158" y="289"/>
      <point x="41" y="256"/>
      <point x="41" y="127" type="curve" smooth="yes"/>
      <point x="41" y="42"/>
      <point x="95" y="-6"/>
    </contour>
    <contour>
      <point x="459" y="-6" type="curve" smooth="yes"/>
      <point x="581" y="-6"/>
      <point x="650" y="115"/>
      <point x="650" y="271" type="curve" smooth="yes"/>
      <point x="650" y="442"/>
      <point x="584" y="549"/>
      <point x="460" y="549" type="curve" smooth="yes"/>
      <point x="342" y="549"/>
      <point x="269" y="446"/>
      <point x="269" y="271" type="curve" smooth="yes"/>
      <point x="269" y="123"/>
      <point x="338" y="-6"/>
    </contour>
    <contour>
      <point x="460" y="19" type="curve" smooth="yes"/>
      <point x="352" y="19"/>
      <point x="296" y="143"/>
      <point x="296" y="271" type="curve" smooth="yes"/>
      <point x="296" y="419"/>
      <point x="352" y="524"/>
      <point x="460" y="524" type="curve" smooth="yes"/>
      <point x="571" y="524"/>
      <point x="623" y="419"/>
      <point x="623" y="271" type="curve" smooth="yes"/>
      <point x="623" y="143"/>
      <point x="571" y="19"/>
    </contour>
  </outline>
</glyph>
<glyph name="khamlym" format="2">
  <advance width="889"/>
  <unicode hex="0D16"/>
  <outline>
    <contour>
      <point x="237" y="-6" type="curve" smooth="yes"/>
      <point x="329" y="-6"/>
      <point x="388" y="60"/>
      <point x="388" y="143" type="curve" smooth="yes"/>
      <point x="388" y="235"/>
      <point x="329" y="295"/>
      <point x="247" y="295" type="curve" smooth="yes"/>
      <point x="161" y="295"/>
      <point x="105" y="237"/>
      <point x="72" y="182" type="curve"/>
      <point x="81" y="154" type="line"/>
      <point x="124" y="227"/>
      <point x="177" y="270"/>
      <point x="245" y="270" type="curve" smooth="yes"/>
      <point x="308" y="270"/>
      <point x="360" y="227"/>
      <point x="360" y="143" type="curve" smooth="yes"/>
      <point x="360" y="65"/>
      <point x="301" y="19"/>
      <point x="237" y="19" type="curve" smooth="yes"/>
      <point x="128" y="19"/>
      <point x="75" y="129"/>
      <point x="75" y="253" type="curve" smooth="yes"/>
      <point x="75" y="416"/>
      <point x="174" y="524"/>
      <point x="322" y="524" type="curve" smooth="yes"/>
      <point x="459" y="524"/>
      <point x="564" y="427"/>
      <point x="564" y="265" type="curve" smooth="yes"/>
      <point x="564" y="173"/>
      <point x="528" y="97"/>
      <point x="449" y="18" type="curve"/>
      <point x="458" y="0" type="line"/>
      <point x="811" y="0" type="line"/>
      <point x="811" y="543" type="line"/>
      <point x="784" y="543" type="line"/>
      <point x="784" y="25" type="line"/>
      <point x="480" y="25" type="line"/>
      <point x="483" y="20" type="line"/>
      <point x="546" y="80"/>
      <point x="592" y="169"/>
      <point x="592" y="265" type="curve" smooth="yes"/>
      <point x="592" y="443"/>
      <point x="476" y="549"/>
      <point x="322" y="549" type="curve"/>
      <point x="163" y="549"/>
      <point x="48" y="431"/>
      <point x="48" y="255" type="curve" smooth="yes"/>
      <point x="48" y="100"/>
      <point x="119" y="-6"/>
    </contour>
  </outline>
</glyph>
<glyph name="gamlym" format="2">
  <advance width="812"/>
  <unicode hex="0D17"/>
  <outline>
    <contour>
      <point x="245" y="-6" type="curve" smooth="yes"/>
      <point x="357" y="-6"/>
      <point x="420" y="64"/>
      <point x="420" y="208" type="curve" smooth="yes"/>
      <point x="420" y="328" type="line" smooth="yes"/>
      <point x="420" y="455"/>
      <point x="462" y="524"/>
      <point x="566" y="524" type="curve" smooth="yes"/>
      <point x="662" y="524"/>
      <point x="736" y="454"/>
      <point x="736" y="283" type="curve" smooth="yes"/>
      <point x="736" y="145"/>
      <point x="674" y="47"/>
      <point x="600" y="1" type="curve"/>
      <point x="605" y="-4"/>
      <point x="610" y="-6"/>
      <point x="618" y="-6" type="curve" smooth="yes"/>
      <point x="659" y="-6"/>
      <point x="764" y="99"/>
      <point x="764" y="283" type="curve" smooth="yes"/>
      <point x="764" y="471"/>
      <point x="679" y="549"/>
      <point x="567" y="549" type="curve" smooth="yes"/>
      <point x="457" y="549"/>
      <point x="392" y="479"/>
      <point x="392" y="336" type="curve" smooth="yes"/>
      <point x="392" y="214" type="line" smooth="yes"/>
      <point x="392" y="88"/>
      <point x="350" y="19"/>
      <point x="246" y="19" type="curve" smooth="yes"/>
      <point x="150" y="19"/>
      <point x="76" y="89"/>
      <point x="76" y="260" type="curve" smooth="yes"/>
      <point x="76" y="398"/>
      <point x="138" y="496"/>
      <point x="212" y="542" type="curve"/>
      <point x="207" y="547"/>
      <point x="202" y="549"/>
      <point x="194" y="549" type="curve" smooth="yes"/>
      <point x="153" y="549"/>
      <point x="48" y="444"/>
      <point x="48" y="260" type="curve" smooth="yes"/>
      <point x="48" y="72"/>
      <point x="133" y="-6"/>
    </contour>
  </outline>
</glyph>
<glyph name="ghamlym" format="2">
  <advance width="1184"/>
  <unicode hex="0D18"/>
  <outline>
    <contour>
      <point x="497" y="0" type="line"/>
      <point x="1106" y="0" type="line"/>
      <point x="1106" y="543" type="line"/>
      <point x="1079" y="543" type="line"/>
      <point x="1079" y="25" type="line"/>
      <point x="524" y="25" type="line"/>
      <point x="524" y="323" type="line" smooth="yes"/>
      <point x="524" y="453"/>
      <point x="586" y="524"/>
      <point x="698" y="524" type="curve" smooth="yes"/>
      <point x="807" y="524"/>
      <point x="866" y="453"/>
      <point x="866" y="324" type="curve" smooth="yes"/>
      <point x="866" y="261" type="line"/>
      <point x="508" y="261" type="line"/>
      <point x="508" y="236" type="line"/>
      <point x="893" y="236" type="line"/>
      <point x="893" y="324" type="line" smooth="yes"/>
      <point x="893" y="475"/>
      <point x="817" y="549"/>
      <point x="698" y="549" type="curve" smooth="yes"/>
      <point x="575" y="549"/>
      <point x="497" y="474"/>
      <point x="497" y="324" type="curve" smooth="yes"/>
    </contour>
    <contour>
      <point x="143" y="233" type="curve" smooth="yes"/>
      <point x="151" y="233"/>
      <point x="157" y="238"/>
      <point x="160" y="244" type="curve"/>
      <point x="113" y="270"/>
      <point x="68" y="314"/>
      <point x="68" y="394" type="curve" smooth="yes"/>
      <point x="68" y="461"/>
      <point x="118" y="524"/>
      <point x="202" y="524" type="curve" smooth="yes"/>
      <point x="284" y="524"/>
      <point x="329" y="461"/>
      <point x="329" y="397" type="curve" smooth="yes"/>
      <point x="329" y="329"/>
      <point x="296" y="283"/>
      <point x="253" y="248" type="curve"/>
      <point x="260" y="236" type="line"/>
      <point x="504" y="236" type="line"/>
      <point x="504" y="261" type="line"/>
      <point x="282" y="261" type="line"/>
      <point x="294" y="256" type="line"/>
      <point x="332" y="291"/>
      <point x="357" y="336"/>
      <point x="357" y="397" type="curve" smooth="yes"/>
      <point x="357" y="488"/>
      <point x="288" y="549"/>
      <point x="202" y="549" type="curve" smooth="yes"/>
      <point x="113" y="549"/>
      <point x="40" y="488"/>
      <point x="40" y="394" type="curve" smooth="yes"/>
      <point x="40" y="297"/>
      <point x="110" y="233"/>
    </contour>
  </outline>
</glyph>
<glyph name="ngamlym" format="2">
  <advance width="1013"/>
  <unicode hex="0D19"/>
  <outline>
    <contour>
      <point x="237" y="-6" type="curve" smooth="yes"/>
      <point x="329" y="-6"/>
      <point x="388" y="60"/>
      <point x="388" y="143" type="curve" smooth="yes"/>
      <point x="388" y="235"/>
      <point x="329" y="295"/>
      <point x="247" y="295" type="curve" smooth="yes"/>
      <point x="161" y="295"/>
      <point x="105" y="237"/>
      <point x="72" y="182" type="curve"/>
      <point x="81" y="154" type="line"/>
      <point x="124" y="227"/>
      <point x="177" y="270"/>
      <point x="245" y="270" type="curve" smooth="yes"/>
      <point x="308" y="270"/>
      <point x="360" y="227"/>
      <point x="360" y="143" type="curve" smooth="yes"/>
      <point x="360" y="65"/>
      <point x="301" y="19"/>
      <point x="237" y="19" type="curve" smooth="yes"/>
      <point x="128" y="19"/>
      <point x="75" y="129"/>
      <point x="75" y="261" type="curve" smooth="yes"/>
      <point x="75" y="416"/>
      <point x="184" y="524"/>
      <point x="318" y="524" type="curve" smooth="yes"/>
      <point x="447" y="524"/>
      <point x="522" y="448"/>
      <point x="522" y="320" type="curve" smooth="yes"/>
      <point x="522" y="0" type="line"/>
      <point x="539" y="0" type="line"/>
      <point x="539" y="354" type="line"/>
      <point x="540" y="384" type="line"/>
      <point x="517" y="481"/>
      <point x="448" y="549"/>
      <point x="318" y="549" type="curve" smooth="yes"/>
      <point x="169" y="549"/>
      <point x="48" y="431"/>
      <point x="48" y="261" type="curve" smooth="yes"/>
      <point x="48" y="100"/>
      <point x="119" y="-6"/>
    </contour>
    <contour>
      <point x="773" y="549" type="curve" smooth="yes"/>
      <point x="663" y="549"/>
      <point x="556" y="488"/>
      <point x="531" y="351" type="curve"/>
      <point x="532" y="290" type="line"/>
      <point x="532" y="0" type="line"/>
      <point x="549" y="0" type="line"/>
      <point x="549" y="286" type="line" smooth="yes"/>
      <point x="549" y="462"/>
      <point x="672" y="524"/>
      <point x="774" y="524" type="curve" smooth="yes"/>
      <point x="869" y="524"/>
      <point x="930" y="481"/>
      <point x="930" y="403" type="curve" smooth="yes"/>
      <point x="930" y="326"/>
      <point x="876" y="288"/>
      <point x="784" y="288" type="curve" smooth="yes"/>
      <point x="752" y="288" type="line"/>
      <point x="752" y="263" type="line"/>
      <point x="784" y="263" type="line" smooth="yes"/>
      <point x="879" y="263"/>
      <point x="941" y="219"/>
      <point x="941" y="136" type="curve" smooth="yes"/>
      <point x="941" y="69"/>
      <point x="904" y="19"/>
      <point x="820" y="19" type="curve" smooth="yes"/>
      <point x="776" y="19"/>
      <point x="734" y="32"/>
      <point x="705" y="55" type="curve"/>
      <point x="702" y="51"/>
      <point x="701" y="47"/>
      <point x="701" y="42" type="curve" smooth="yes"/>
      <point x="701" y="25"/>
      <point x="743" y="-6"/>
      <point x="820" y="-6" type="curve" smooth="yes"/>
      <point x="915" y="-6"/>
      <point x="969" y="50"/>
      <point x="969" y="136" type="curve" smooth="yes"/>
      <point x="969" y="219"/>
      <point x="915" y="262"/>
      <point x="850" y="273" type="curve"/>
      <point x="850" y="275" type="line"/>
      <point x="927" y="293"/>
      <point x="958" y="337"/>
      <point x="958" y="406" type="curve" smooth="yes"/>
      <point x="958" y="482"/>
      <point x="903" y="549"/>
    </contour>
  </outline>
</glyph>
<glyph name="camlym" format="2">
  <advance width="884"/>
  <unicode hex="0D1A"/>
  <outline>
    <contour>
      <point x="17" y="0" type="line"/>
      <point x="806" y="0" type="line"/>
      <point x="806" y="543" type="line"/>
      <point x="778" y="543" type="line"/>
      <point x="778" y="25" type="line"/>
      <point x="17" y="25" type="line"/>
    </contour>
    <contour>
      <point x="371" y="13" type="line"/>
      <point x="390" y="13" type="line"/>
      <point x="427" y="45"/>
      <point x="481" y="98"/>
      <point x="481" y="190" type="curve" smooth="yes"/>
      <point x="481" y="282"/>
      <point x="417" y="345"/>
      <point x="330" y="345" type="curve" smooth="yes"/>
      <point x="226" y="345"/>
      <point x="169" y="275"/>
      <point x="169" y="202" type="curve" smooth="yes"/>
      <point x="169" y="169"/>
      <point x="179" y="139"/>
      <point x="198" y="139" type="curve" smooth="yes"/>
      <point x="202" y="139"/>
      <point x="205" y="140"/>
      <point x="207" y="142" type="curve"/>
      <point x="199" y="161"/>
      <point x="197" y="180"/>
      <point x="197" y="202" type="curve" smooth="yes"/>
      <point x="197" y="270"/>
      <point x="247" y="320"/>
      <point x="329" y="320" type="curve" smooth="yes"/>
      <point x="408" y="320"/>
      <point x="453" y="262"/>
      <point x="453" y="190" type="curve" smooth="yes"/>
      <point x="453" y="105"/>
      <point x="405" y="56"/>
      <point x="366" y="22" type="curve"/>
    </contour>
  </outline>
</glyph>
<glyph name="chamlym" format="2">
  <advance width="1239"/>
  <unicode hex="0D1B"/>
  <outline>
    <contour>
      <point x="1021" y="-6" type="curve" smooth="yes"/>
      <point x="1132" y="-6"/>
      <point x="1191" y="90"/>
      <point x="1191" y="237" type="curve" smooth="yes"/>
      <point x="1191" y="421"/>
      <point x="1077" y="549"/>
      <point x="918" y="549" type="curve" smooth="yes"/>
      <point x="763" y="549"/>
      <point x="641" y="433"/>
      <point x="641" y="256" type="curve" smooth="yes"/>
      <point x="641" y="151"/>
      <point x="686" y="66"/>
      <point x="729" y="25" type="curve"/>
      <point x="17" y="25" type="line"/>
      <point x="17" y="0" type="line"/>
      <point x="759" y="0" type="line"/>
      <point x="769" y="19" type="line"/>
      <point x="709" y="70"/>
      <point x="669" y="154"/>
      <point x="669" y="256" type="curve" smooth="yes"/>
      <point x="669" y="398"/>
      <point x="762" y="524"/>
      <point x="918" y="524" type="curve" smooth="yes"/>
      <point x="1062" y="524"/>
      <point x="1163" y="406"/>
      <point x="1163" y="237" type="curve" smooth="yes"/>
      <point x="1163" y="106"/>
      <point x="1115" y="19"/>
      <point x="1021" y="19" type="curve" smooth="yes"/>
      <point x="945" y="19"/>
      <point x="890" y="92"/>
      <point x="890" y="206" type="curve" smooth="yes"/>
      <point x="890" y="340"/>
      <point x="958" y="441"/>
      <point x="1040" y="498" type="curve"/>
      <point x="1022" y="516" type="line"/>
      <point x="930" y="453"/>
      <point x="862" y="343"/>
      <point x="862" y="206" type="curve" smooth="yes"/>
      <point x="862" y="88"/>
      <point x="921" y="-6"/>
    </contour>
    <contour>
      <point x="371" y="13" type="line"/>
      <point x="390" y="13" type="line"/>
      <point x="427" y="45"/>
      <point x="481" y="98"/>
      <point x="481" y="190" type="curve" smooth="yes"/>
      <point x="481" y="282"/>
      <point x="417" y="345"/>
      <point x="330" y="345" type="curve" smooth="yes"/>
      <point x="226" y="345"/>
      <point x="169" y="275"/>
      <point x="169" y="202" type="curve" smooth="yes"/>
      <point x="169" y="169"/>
      <point x="179" y="139"/>
      <point x="198" y="139" type="curve" smooth="yes"/>
      <point x="202" y="139"/>
      <point x="205" y="140"/>
      <point x="207" y="142" type="curve"/>
      <point x="199" y="161"/>
      <point x="197" y="180"/>
      <point x="197" y="202" type="curve" smooth="yes"/>
      <point x="197" y="270"/>
      <point x="247" y="320"/>
      <point x="329" y="320" type="curve" smooth="yes"/>
      <point x="408" y="320"/>
      <point x="453" y="262"/>
      <point x="453" y="190" type="curve" smooth="yes"/>
      <point x="453" y="105"/>
      <point x="405" y="56"/>
      <point x="366" y="22" type="curve"/>
    </contour>
  </outline>
</glyph>
<glyph name="jamlym" format="2">
  <advance width="882"/>
  <unicode hex="0D1C"/>
  <outline>
    <contour>
      <point x="184" y="-6" type="curve" smooth="yes"/>
      <point x="324" y="-6"/>
      <point x="388" y="29"/>
      <point x="569" y="128" type="curve"/>
      <point x="581" y="135" type="line"/>
      <point x="626" y="160"/>
      <point x="673" y="182"/>
      <point x="714" y="182" type="curve" smooth="yes"/>
      <point x="764" y="182"/>
      <point x="798" y="149"/>
      <point x="798" y="97" type="curve" smooth="yes"/>
      <point x="798" y="37"/>
      <point x="760" y="19"/>
      <point x="714" y="19" type="curve" smooth="yes"/>
      <point x="656" y="19"/>
      <point x="617" y="52"/>
      <point x="581" y="148" type="curve"/>
      <point x="558" y="138" type="line"/>
      <point x="600" y="28"/>
      <point x="649" y="-6"/>
      <point x="715" y="-6" type="curve" smooth="yes"/>
      <point x="786" y="-6"/>
      <point x="826" y="31"/>
      <point x="826" y="95" type="curve" smooth="yes"/>
      <point x="826" y="150"/>
      <point x="793" y="202"/>
      <point x="718" y="202" type="curve" smooth="yes"/>
      <point x="698" y="202"/>
      <point x="674" y="195"/>
      <point x="654" y="186" type="curve"/>
      <point x="622" y="177"/>
      <point x="589" y="163"/>
      <point x="561" y="149" type="curve" smooth="yes"/>
      <point x="354" y="44"/>
      <point x="300" y="19"/>
      <point x="185" y="19" type="curve" smooth="yes"/>
      <point x="113" y="19"/>
      <point x="76" y="48"/>
      <point x="76" y="97" type="curve" smooth="yes"/>
      <point x="76" y="141"/>
      <point x="107" y="166"/>
      <point x="187" y="166" type="curve" smooth="yes"/>
      <point x="522" y="166" type="line" smooth="yes"/>
      <point x="575" y="166"/>
      <point x="610" y="170"/>
      <point x="641" y="175" type="curve" smooth="yes"/>
      <point x="664" y="179"/>
      <point x="688" y="183"/>
      <point x="708" y="189" type="curve" smooth="yes"/>
      <point x="787" y="213"/>
      <point x="834" y="266"/>
      <point x="834" y="370" type="curve" smooth="yes"/>
      <point x="834" y="474"/>
      <point x="761" y="549"/>
      <point x="654" y="549" type="curve" smooth="yes"/>
      <point x="563" y="549"/>
      <point x="498" y="494"/>
      <point x="483" y="388" type="curve"/>
      <point x="492" y="383" type="line"/>
      <point x="477" y="485"/>
      <point x="401" y="549"/>
      <point x="283" y="549" type="curve" smooth="yes"/>
      <point x="110" y="549"/>
      <point x="54" y="445"/>
      <point x="54" y="366" type="curve" smooth="yes"/>
      <point x="54" y="286"/>
      <point x="106" y="223"/>
      <point x="209" y="223" type="curve" smooth="yes"/>
      <point x="297" y="223"/>
      <point x="352" y="258"/>
      <point x="352" y="331" type="curve" smooth="yes"/>
      <point x="352" y="389"/>
      <point x="310" y="438"/>
      <point x="223" y="438" type="curve" smooth="yes"/>
      <point x="156" y="438"/>
      <point x="101" y="401"/>
      <point x="67" y="340" type="curve"/>
      <point x="75" y="315" type="line"/>
      <point x="109" y="374"/>
      <point x="156" y="413"/>
      <point x="221" y="413" type="curve" smooth="yes"/>
      <point x="282" y="413"/>
      <point x="324" y="385"/>
      <point x="324" y="331" type="curve" smooth="yes"/>
      <point x="324" y="279"/>
      <point x="291" y="248"/>
      <point x="209" y="248" type="curve" smooth="yes"/>
      <point x="115" y="248"/>
      <point x="80" y="303"/>
      <point x="80" y="366" type="curve" smooth="yes"/>
      <point x="80" y="441"/>
      <point x="132" y="524"/>
      <point x="282" y="524" type="curve" smooth="yes"/>
      <point x="403" y="524"/>
      <point x="475" y="454"/>
      <point x="475" y="332" type="curve" smooth="yes"/>
      <point x="475" y="242" type="line"/>
      <point x="502" y="242" type="line"/>
      <point x="502" y="354" type="line" smooth="yes"/>
      <point x="502" y="459"/>
      <point x="563" y="524"/>
      <point x="655" y="524" type="curve" smooth="yes"/>
      <point x="745" y="524"/>
      <point x="806" y="465"/>
      <point x="806" y="370" type="curve" smooth="yes"/>
      <point x="806" y="308"/>
      <point x="788" y="260"/>
      <point x="747" y="231" type="curve" smooth="yes"/>
      <point x="710" y="205"/>
      <point x="663" y="191"/>
      <point x="553" y="191" type="curve" smooth="yes"/>
      <point x="184" y="191" type="line" smooth="yes"/>
      <point x="103" y="191"/>
      <point x="48" y="161"/>
      <point x="48" y="97" type="curve" smooth="yes"/>
      <point x="48" y="22"/>
      <point x="114" y="-6"/>
    </contour>
  </outline>
</glyph>
<glyph name="jhamlym" format="2">
  <advance width="1486"/>
  <unicode hex="0D1D"/>
  <outline>
    <contour>
      <point x="183" y="-6" type="curve" smooth="yes"/>
      <point x="192" y="-6"/>
      <point x="197" y="-4"/>
      <point x="202" y="1" type="curve"/>
      <point x="114" y="57"/>
      <point x="76" y="159"/>
      <point x="76" y="256" type="curve" smooth="yes"/>
      <point x="76" y="446"/>
      <point x="215" y="524"/>
      <point x="320" y="524" type="curve" smooth="yes"/>
      <point x="460" y="524"/>
      <point x="574" y="408"/>
      <point x="574" y="226" type="curve" smooth="yes"/>
      <point x="574" y="104"/>
      <point x="519" y="19"/>
      <point x="440" y="19" type="curve" smooth="yes"/>
      <point x="354" y="19"/>
      <point x="306" y="107"/>
      <point x="306" y="211" type="curve" smooth="yes"/>
      <point x="306" y="439"/>
      <point x="468" y="524"/>
      <point x="571" y="524" type="curve" smooth="yes"/>
      <point x="629" y="524"/>
      <point x="671" y="509"/>
      <point x="703" y="479" type="curve" smooth="yes"/>
      <point x="741" y="443"/>
      <point x="759" y="392"/>
      <point x="759" y="285" type="curve" smooth="yes"/>
      <point x="759" y="199" type="line" smooth="yes"/>
      <point x="759" y="48"/>
      <point x="831" y="-6"/>
      <point x="915" y="-6" type="curve" smooth="yes"/>
      <point x="1011" y="-6"/>
      <point x="1059" y="55"/>
      <point x="1072" y="139" type="curve"/>
      <point x="1061" y="147" type="line"/>
      <point x="1072" y="67"/>
      <point x="1130" y="-6"/>
      <point x="1229" y="-6" type="curve" smooth="yes"/>
      <point x="1353" y="-6"/>
      <point x="1438" y="82"/>
      <point x="1438" y="257" type="curve" smooth="yes"/>
      <point x="1438" y="444"/>
      <point x="1333" y="549"/>
      <point x="1292" y="549" type="curve" smooth="yes"/>
      <point x="1284" y="549"/>
      <point x="1278" y="546"/>
      <point x="1274" y="542" type="curve"/>
      <point x="1348" y="496"/>
      <point x="1410" y="398"/>
      <point x="1410" y="257" type="curve" smooth="yes"/>
      <point x="1410" y="91"/>
      <point x="1329" y="19"/>
      <point x="1230" y="19" type="curve" smooth="yes"/>
      <point x="1139" y="19"/>
      <point x="1080" y="92"/>
      <point x="1080" y="186" type="curve" smooth="yes"/>
      <point x="1080" y="543" type="line"/>
      <point x="1053" y="543" type="line"/>
      <point x="1053" y="183" type="line" smooth="yes"/>
      <point x="1053" y="76"/>
      <point x="1000" y="19"/>
      <point x="917" y="19" type="curve" smooth="yes"/>
      <point x="834" y="19"/>
      <point x="787" y="75"/>
      <point x="787" y="208" type="curve" smooth="yes"/>
      <point x="787" y="294" type="line" smooth="yes"/>
      <point x="787" y="390"/>
      <point x="769" y="454"/>
      <point x="723" y="497" type="curve" smooth="yes"/>
      <point x="689" y="529"/>
      <point x="642" y="549"/>
      <point x="571" y="549" type="curve" smooth="yes"/>
      <point x="463" y="549"/>
      <point x="278" y="456"/>
      <point x="278" y="211" type="curve" smooth="yes"/>
      <point x="278" y="77"/>
      <point x="342" y="-6"/>
      <point x="440" y="-6" type="curve" smooth="yes"/>
      <point x="547" y="-6"/>
      <point x="602" y="99"/>
      <point x="602" y="226" type="curve" smooth="yes"/>
      <point x="602" y="434"/>
      <point x="462" y="549"/>
      <point x="320" y="549" type="curve" smooth="yes"/>
      <point x="202" y="549"/>
      <point x="48" y="459"/>
      <point x="48" y="256" type="curve" smooth="yes"/>
      <point x="48" y="112"/>
      <point x="134" y="-6"/>
    </contour>
  </outline>
</glyph>
<glyph name="nyamlym" format="2">
  <advance width="1311"/>
  <unicode hex="0D1E"/>
  <outline>
    <contour>
      <point x="237" y="-6" type="curve" smooth="yes"/>
      <point x="329" y="-6"/>
      <point x="388" y="60"/>
      <point x="388" y="143" type="curve" smooth="yes"/>
      <point x="388" y="235"/>
      <point x="329" y="295"/>
      <point x="247" y="295" type="curve" smooth="yes"/>
      <point x="161" y="295"/>
      <point x="105" y="237"/>
      <point x="72" y="182" type="curve"/>
      <point x="81" y="154" type="line"/>
      <point x="124" y="227"/>
      <point x="177" y="270"/>
      <point x="245" y="270" type="curve" smooth="yes"/>
      <point x="308" y="270"/>
      <point x="360" y="227"/>
      <point x="360" y="143" type="curve" smooth="yes"/>
      <point x="360" y="65"/>
      <point x="301" y="19"/>
      <point x="237" y="19" type="curve" smooth="yes"/>
      <point x="128" y="19"/>
      <point x="75" y="129"/>
      <point x="75" y="261" type="curve" smooth="yes"/>
      <point x="75" y="416"/>
      <point x="184" y="524"/>
      <point x="318" y="524" type="curve" smooth="yes"/>
      <point x="447" y="524"/>
      <point x="522" y="448"/>
      <point x="522" y="320" type="curve" smooth="yes"/>
      <point x="522" y="0" type="line"/>
      <point x="539" y="0" type="line"/>
      <point x="539" y="354" type="line"/>
      <point x="540" y="389" type="line"/>
      <point x="515" y="481"/>
      <point x="448" y="549"/>
      <point x="318" y="549" type="curve"/>
      <point x="169" y="549"/>
      <point x="48" y="431"/>
      <point x="48" y="261" type="curve" smooth="yes"/>
      <point x="48" y="100"/>
      <point x="119" y="-6"/>
    </contour>
    <contour>
      <point x="759" y="549" type="curve" smooth="yes"/>
      <point x="637" y="549"/>
      <point x="547" y="487"/>
      <point x="532" y="355" type="curve"/>
      <point x="532" y="295" type="line"/>
      <point x="532" y="0" type="line"/>
      <point x="549" y="0" type="line"/>
      <point x="549" y="300" type="line" smooth="yes"/>
      <point x="549" y="434"/>
      <point x="624" y="524"/>
      <point x="759" y="524" type="curve" smooth="yes"/>
      <point x="893" y="524"/>
      <point x="1005" y="410"/>
      <point x="1005" y="226" type="curve" smooth="yes"/>
      <point x="1005" y="104"/>
      <point x="950" y="19"/>
      <point x="871" y="19" type="curve" smooth="yes"/>
      <point x="785" y="19"/>
      <point x="737" y="107"/>
      <point x="737" y="211" type="curve" smooth="yes"/>
      <point x="737" y="439"/>
      <point x="899" y="524"/>
      <point x="1005" y="524" type="curve" smooth="yes"/>
      <point x="1126" y="524"/>
      <point x="1235" y="446"/>
      <point x="1235" y="256" type="curve" smooth="yes"/>
      <point x="1235" y="137"/>
      <point x="1180" y="44"/>
      <point x="1109" y="1" type="curve"/>
      <point x="1112" y="-3"/>
      <point x="1120" y="-6"/>
      <point x="1130" y="-6" type="curve" smooth="yes"/>
      <point x="1168" y="-6"/>
      <point x="1263" y="96"/>
      <point x="1263" y="256" type="curve" smooth="yes"/>
      <point x="1263" y="459"/>
      <point x="1139" y="549"/>
      <point x="1005" y="549" type="curve" smooth="yes"/>
      <point x="893" y="549"/>
      <point x="709" y="456"/>
      <point x="709" y="211" type="curve" smooth="yes"/>
      <point x="709" y="76"/>
      <point x="773" y="-6"/>
      <point x="871" y="-6" type="curve" smooth="yes"/>
      <point x="978" y="-6"/>
      <point x="1033" y="99"/>
      <point x="1033" y="226" type="curve" smooth="yes"/>
      <point x="1033" y="434"/>
      <point x="897" y="549"/>
    </contour>
  </outline>
</glyph>
<glyph name="ttamlym" format="2">
  <advance width="521"/>
  <unicode hex="0D1F"/>
  <outline>
    <contour>
      <point x="257" y="-6" type="curve" smooth="yes"/>
      <point x="393" y="-6"/>
      <point x="479" y="49"/>
      <point x="479" y="144" type="curve" smooth="yes"/>
      <point x="479" y="259"/>
      <point x="382" y="282"/>
      <point x="263" y="291" type="curve" smooth="yes"/>
      <point x="150" y="300"/>
      <point x="74" y="321"/>
      <point x="74" y="405" type="curve" smooth="yes"/>
      <point x="74" y="481"/>
      <point x="143" y="524"/>
      <point x="256" y="524" type="curve" smooth="yes"/>
      <point x="342" y="524"/>
      <point x="395" y="505"/>
      <point x="451" y="471" type="curve"/>
      <point x="454" y="475"/>
      <point x="455" y="480"/>
      <point x="455" y="485" type="curve" smooth="yes"/>
      <point x="455" y="509"/>
      <point x="369" y="549"/>
      <point x="256" y="549" type="curve" smooth="yes"/>
      <point x="139" y="549"/>
      <point x="46" y="503"/>
      <point x="46" y="405" type="curve" smooth="yes"/>
      <point x="46" y="297"/>
      <point x="143" y="276"/>
      <point x="260" y="265" type="curve" smooth="yes"/>
      <point x="362" y="255"/>
      <point x="451" y="246"/>
      <point x="451" y="144" type="curve" smooth="yes"/>
      <point x="451" y="62"/>
      <point x="377" y="19"/>
      <point x="257" y="19" type="curve" smooth="yes"/>
      <point x="156" y="19"/>
      <point x="92" y="40"/>
      <point x="41" y="77" type="curve"/>
      <point x="38" y="74"/>
      <point x="37" y="69"/>
      <point x="37" y="65" type="curve" smooth="yes"/>
      <point x="37" y="33"/>
      <point x="126" y="-6"/>
    </contour>
  </outline>
</glyph>
<glyph name="tthamlym" format="2">
  <advance width="619"/>
  <unicode hex="0D20"/>
  <outline>
    <contour>
      <point x="309" y="-6" type="curve" smooth="yes"/>
      <point x="430" y="-6"/>
      <point x="571" y="72"/>
      <point x="571" y="271" type="curve" smooth="yes"/>
      <point x="571" y="470"/>
      <point x="434" y="549"/>
      <point x="310" y="549" type="curve" smooth="yes"/>
      <point x="189" y="549"/>
      <point x="48" y="471"/>
      <point x="48" y="271" type="curve" smooth="yes"/>
      <point x="48" y="73"/>
      <point x="185" y="-6"/>
    </contour>
    <contour>
      <point x="310" y="19" type="curve" smooth="yes"/>
      <point x="192" y="19"/>
      <point x="76" y="94"/>
      <point x="76" y="271" type="curve" smooth="yes"/>
      <point x="76" y="449"/>
      <point x="196" y="524"/>
      <point x="310" y="524" type="curve" smooth="yes"/>
      <point x="427" y="524"/>
      <point x="543" y="449"/>
      <point x="543" y="271" type="curve" smooth="yes"/>
      <point x="543" y="94"/>
      <point x="423" y="19"/>
    </contour>
  </outline>
</glyph>
<glyph name="ddamlym" format="2">
  <advance width="1119"/>
  <unicode hex="0D21"/>
  <outline>
    <contour>
      <point x="194" y="-6" type="curve" smooth="yes"/>
      <point x="202" y="-6"/>
      <point x="207" y="-4"/>
      <point x="212" y="1" type="curve"/>
      <point x="138" y="47"/>
      <point x="76" y="145"/>
      <point x="76" y="283" type="curve" smooth="yes"/>
      <point x="76" y="454"/>
      <point x="153" y="524"/>
      <point x="246" y="524" type="curve" smooth="yes"/>
      <point x="350" y="524"/>
      <point x="392" y="455"/>
      <point x="392" y="329" type="curve" smooth="yes"/>
      <point x="392" y="199" type="line" smooth="yes"/>
      <point x="392" y="48"/>
      <point x="464" y="-6"/>
      <point x="548" y="-6" type="curve" smooth="yes"/>
      <point x="644" y="-6"/>
      <point x="692" y="55"/>
      <point x="705" y="139" type="curve"/>
      <point x="694" y="147" type="line"/>
      <point x="705" y="67"/>
      <point x="763" y="-6"/>
      <point x="862" y="-6" type="curve" smooth="yes"/>
      <point x="986" y="-6"/>
      <point x="1071" y="82"/>
      <point x="1071" y="257" type="curve" smooth="yes"/>
      <point x="1071" y="444"/>
      <point x="966" y="549"/>
      <point x="925" y="549" type="curve" smooth="yes"/>
      <point x="917" y="549"/>
      <point x="911" y="546"/>
      <point x="907" y="542" type="curve"/>
      <point x="981" y="496"/>
      <point x="1043" y="398"/>
      <point x="1043" y="257" type="curve" smooth="yes"/>
      <point x="1043" y="91"/>
      <point x="962" y="19"/>
      <point x="862" y="19" type="curve" smooth="yes"/>
      <point x="772" y="19"/>
      <point x="713" y="92"/>
      <point x="713" y="186" type="curve" smooth="yes"/>
      <point x="713" y="543" type="line"/>
      <point x="686" y="543" type="line"/>
      <point x="686" y="183" type="line" smooth="yes"/>
      <point x="686" y="76"/>
      <point x="633" y="19"/>
      <point x="548" y="19" type="curve" smooth="yes"/>
      <point x="467" y="19"/>
      <point x="420" y="75"/>
      <point x="420" y="208" type="curve" smooth="yes"/>
      <point x="420" y="335" type="line" smooth="yes"/>
      <point x="420" y="479"/>
      <point x="358" y="549"/>
      <point x="246" y="549" type="curve" smooth="yes"/>
      <point x="137" y="549"/>
      <point x="48" y="471"/>
      <point x="48" y="283" type="curve" smooth="yes"/>
      <point x="48" y="99"/>
      <point x="153" y="-6"/>
    </contour>
  </outline>
</glyph>
<glyph name="ddhamlym" format="2">
  <advance width="1235"/>
  <unicode hex="0D22"/>
  <outline>
    <contour>
      <point x="194" y="-6" type="curve" smooth="yes"/>
      <point x="202" y="-6"/>
      <point x="207" y="-4"/>
      <point x="212" y="1" type="curve"/>
      <point x="138" y="47"/>
      <point x="76" y="145"/>
      <point x="76" y="283" type="curve" smooth="yes"/>
      <point x="76" y="454"/>
      <point x="153" y="524"/>
      <point x="246" y="524" type="curve" smooth="yes"/>
      <point x="350" y="524"/>
      <point x="392" y="455"/>
      <point x="392" y="329" type="curve" smooth="yes"/>
      <point x="392" y="199" type="line" smooth="yes"/>
      <point x="392" y="48"/>
      <point x="464" y="-6"/>
      <point x="548" y="-6" type="curve" smooth="yes"/>
      <point x="644" y="-6"/>
      <point x="692" y="55"/>
      <point x="705" y="139" type="curve"/>
      <point x="703" y="186" type="line"/>
      <point x="703" y="543" type="line"/>
      <point x="686" y="543" type="line"/>
      <point x="686" y="183" type="line" smooth="yes"/>
      <point x="686" y="76"/>
      <point x="633" y="19"/>
      <point x="548" y="19" type="curve" smooth="yes"/>
      <point x="467" y="19"/>
      <point x="420" y="75"/>
      <point x="420" y="208" type="curve" smooth="yes"/>
      <point x="420" y="335" type="line" smooth="yes"/>
      <point x="420" y="479"/>
      <point x="358" y="549"/>
      <point x="246" y="549" type="curve" smooth="yes"/>
      <point x="137" y="549"/>
      <point x="48" y="471"/>
      <point x="48" y="283" type="curve" smooth="yes"/>
      <point x="48" y="99"/>
      <point x="153" y="-6"/>
    </contour>
    <contour>
      <point x="995" y="549" type="curve" smooth="yes"/>
      <point x="903" y="549"/>
      <point x="844" y="483"/>
      <point x="844" y="400" type="curve" smooth="yes"/>
      <point x="844" y="308"/>
      <point x="903" y="248"/>
      <point x="985" y="248" type="curve" smooth="yes"/>
      <point x="1074" y="248"/>
      <point x="1129" y="306"/>
      <point x="1160" y="361" type="curve"/>
      <point x="1151" y="389" type="line"/>
      <point x="1114" y="320"/>
      <point x="1060" y="273"/>
      <point x="987" y="273" type="curve" smooth="yes"/>
      <point x="924" y="273"/>
      <point x="872" y="316"/>
      <point x="872" y="400" type="curve" smooth="yes"/>
      <point x="872" y="478"/>
      <point x="931" y="524"/>
      <point x="995" y="524" type="curve" smooth="yes"/>
      <point x="1107" y="524"/>
      <point x="1160" y="417"/>
      <point x="1160" y="278" type="curve" smooth="yes"/>
      <point x="1160" y="127"/>
      <point x="1064" y="19"/>
      <point x="917" y="19" type="curve" smooth="yes"/>
      <point x="788" y="19"/>
      <point x="713" y="87"/>
      <point x="713" y="210" type="curve" smooth="yes"/>
      <point x="713" y="543" type="line"/>
      <point x="696" y="543" type="line"/>
      <point x="696" y="189" type="line"/>
      <point x="695" y="147" type="line"/>
      <point x="720" y="55"/>
      <point x="784" y="-6"/>
      <point x="917" y="-6" type="curve"/>
      <point x="1079" y="-6"/>
      <point x="1187" y="112"/>
      <point x="1187" y="278" type="curve" smooth="yes"/>
      <point x="1187" y="445"/>
      <point x="1116" y="549"/>
    </contour>
  </outline>
</glyph>
<glyph name="nnamlym" format="2">
  <advance width="1261"/>
  <unicode hex="0D23"/>
  <outline>
    <contour>
      <point x="237" y="-6" type="curve" smooth="yes"/>
      <point x="329" y="-6"/>
      <point x="388" y="60"/>
      <point x="388" y="143" type="curve" smooth="yes"/>
      <point x="388" y="235"/>
      <point x="329" y="295"/>
      <point x="247" y="295" type="curve" smooth="yes"/>
      <point x="161" y="295"/>
      <point x="105" y="237"/>
      <point x="72" y="182" type="curve"/>
      <point x="81" y="154" type="line"/>
      <point x="124" y="227"/>
      <point x="177" y="270"/>
      <point x="245" y="270" type="curve" smooth="yes"/>
      <point x="308" y="270"/>
      <point x="360" y="227"/>
      <point x="360" y="143" type="curve" smooth="yes"/>
      <point x="360" y="65"/>
      <point x="301" y="19"/>
      <point x="237" y="19" type="curve" smooth="yes"/>
      <point x="128" y="19"/>
      <point x="75" y="129"/>
      <point x="75" y="261" type="curve" smooth="yes"/>
      <point x="75" y="416"/>
      <point x="184" y="524"/>
      <point x="318" y="524" type="curve" smooth="yes"/>
      <point x="447" y="524"/>
      <point x="522" y="448"/>
      <point x="522" y="320" type="curve" smooth="yes"/>
      <point x="522" y="0" type="line"/>
      <point x="549" y="0" type="line"/>
      <point x="549" y="354" type="line" smooth="yes"/>
      <point x="549" y="450"/>
      <point x="596" y="524"/>
      <point x="687" y="524" type="curve" smooth="yes"/>
      <point x="780" y="524"/>
      <point x="828" y="456"/>
      <point x="828" y="355" type="curve" smooth="yes"/>
      <point x="828" y="0" type="line"/>
      <point x="855" y="0" type="line"/>
      <point x="855" y="357" type="line" smooth="yes"/>
      <point x="855" y="456"/>
      <point x="917" y="524"/>
      <point x="1007" y="524" type="curve" smooth="yes"/>
      <point x="1084" y="524"/>
      <point x="1185" y="475"/>
      <point x="1185" y="284" type="curve" smooth="yes"/>
      <point x="1185" y="146"/>
      <point x="1121" y="44"/>
      <point x="1049" y="1" type="curve"/>
      <point x="1053" y="-3"/>
      <point x="1059" y="-6"/>
      <point x="1068" y="-6" type="curve" smooth="yes"/>
      <point x="1111" y="-6"/>
      <point x="1213" y="106"/>
      <point x="1213" y="284" type="curve" smooth="yes"/>
      <point x="1213" y="489"/>
      <point x="1101" y="549"/>
      <point x="1007" y="549" type="curve" smooth="yes"/>
      <point x="922" y="549"/>
      <point x="854" y="498"/>
      <point x="838" y="403" type="curve"/>
      <point x="845" y="410" type="line"/>
      <point x="832" y="486"/>
      <point x="786" y="549"/>
      <point x="687" y="549" type="curve" smooth="yes"/>
      <point x="600" y="549"/>
      <point x="545" y="494"/>
      <point x="531" y="402" type="curve"/>
      <point x="540" y="389" type="line"/>
      <point x="515" y="481"/>
      <point x="448" y="549"/>
      <point x="318" y="549" type="curve"/>
      <point x="169" y="549"/>
      <point x="48" y="431"/>
      <point x="48" y="261" type="curve" smooth="yes"/>
      <point x="48" y="100"/>
      <point x="121" y="-6"/>
    </contour>
  </outline>
</glyph>
<glyph name="tamlym" format="2">
  <advance width="880"/>
  <unicode hex="0D24"/>
  <outline>
    <contour>
      <point x="183" y="-6" type="curve" smooth="yes"/>
      <point x="192" y="-6"/>
      <point x="197" y="-4"/>
      <point x="202" y="1" type="curve"/>
      <point x="114" y="57"/>
      <point x="76" y="159"/>
      <point x="76" y="256" type="curve" smooth="yes"/>
      <point x="76" y="446"/>
      <point x="215" y="524"/>
      <point x="320" y="524" type="curve" smooth="yes"/>
      <point x="460" y="524"/>
      <point x="574" y="409"/>
      <point x="574" y="226" type="curve" smooth="yes"/>
      <point x="574" y="104"/>
      <point x="519" y="19"/>
      <point x="440" y="19" type="curve" smooth="yes"/>
      <point x="354" y="19"/>
      <point x="306" y="107"/>
      <point x="306" y="211" type="curve" smooth="yes"/>
      <point x="306" y="439"/>
      <point x="468" y="524"/>
      <point x="574" y="524" type="curve" smooth="yes"/>
      <point x="695" y="524"/>
      <point x="804" y="446"/>
      <point x="804" y="256" type="curve" smooth="yes"/>
      <point x="804" y="137"/>
      <point x="749" y="44"/>
      <point x="678" y="1" type="curve"/>
      <point x="681" y="-3"/>
      <point x="689" y="-6"/>
      <point x="699" y="-6" type="curve" smooth="yes"/>
      <point x="737" y="-6"/>
      <point x="832" y="96"/>
      <point x="832" y="256" type="curve" smooth="yes"/>
      <point x="832" y="459"/>
      <point x="708" y="549"/>
      <point x="574" y="549" type="curve" smooth="yes"/>
      <point x="462" y="549"/>
      <point x="278" y="456"/>
      <point x="278" y="211" type="curve" smooth="yes"/>
      <point x="278" y="77"/>
      <point x="342" y="-6"/>
      <point x="440" y="-6" type="curve" smooth="yes"/>
      <point x="547" y="-6"/>
      <point x="602" y="99"/>
      <point x="602" y="226" type="curve" smooth="yes"/>
      <point x="602" y="434"/>
      <point x="463" y="549"/>
      <point x="320" y="549" type="curve" smooth="yes"/>
      <point x="202" y="549"/>
      <point x="48" y="459"/>
      <point x="48" y="256" type="curve" smooth="yes"/>
      <point x="48" y="112"/>
      <point x="134" y="-6"/>
    </contour>
  </outline>
</glyph>
<glyph name="thamlym" format="2">
  <advance width="808"/>
  <unicode hex="0D25"/>
  <outline>
    <contour>
      <point x="78" y="0" type="line"/>
      <point x="735" y="0" type="line"/>
      <point x="735" y="303" type="line" smooth="yes"/>
      <point x="735" y="434"/>
      <point x="674" y="549"/>
      <point x="524" y="549" type="curve" smooth="yes"/>
      <point x="374" y="549"/>
      <point x="313" y="434"/>
      <point x="313" y="304" type="curve" smooth="yes"/>
      <point x="313" y="25" type="line"/>
      <point x="105" y="25" type="line"/>
      <point x="105" y="543" type="line"/>
      <point x="78" y="543" type="line"/>
    </contour>
    <contour>
      <point x="340" y="25" type="line"/>
      <point x="340" y="294" type="line" smooth="yes"/>
      <point x="340" y="435"/>
      <point x="399" y="524"/>
      <point x="524" y="524" type="curve" smooth="yes"/>
      <point x="649" y="524"/>
      <point x="708" y="435"/>
      <point x="708" y="294" type="curve" smooth="yes"/>
      <point x="708" y="25" type="line"/>
    </contour>
  </outline>
</glyph>
<glyph name="damlym" format="2">
  <advance width="585"/>
  <unicode hex="0D26"/>
  <outline>
    <contour>
      <point x="133" y="-6" type="curve" smooth="yes"/>
      <point x="140" y="-6"/>
      <point x="145" y="-4"/>
      <point x="150" y="0" type="curve"/>
      <point x="117" y="41"/>
      <point x="80" y="114"/>
      <point x="80" y="227" type="curve" smooth="yes"/>
      <point x="80" y="410"/>
      <point x="194" y="524"/>
      <point x="343" y="524" type="curve" smooth="yes"/>
      <point x="441" y="524"/>
      <point x="502" y="481"/>
      <point x="502" y="403" type="curve" smooth="yes"/>
      <point x="502" y="326"/>
      <point x="448" y="288"/>
      <point x="356" y="288" type="curve" smooth="yes"/>
      <point x="297" y="288" type="line"/>
      <point x="297" y="263" type="line"/>
      <point x="356" y="263" type="line" smooth="yes"/>
      <point x="451" y="263"/>
      <point x="513" y="219"/>
      <point x="513" y="136" type="curve" smooth="yes"/>
      <point x="513" y="69"/>
      <point x="476" y="19"/>
      <point x="381" y="19" type="curve" smooth="yes"/>
      <point x="321" y="19"/>
      <point x="279" y="32"/>
      <point x="250" y="55" type="curve"/>
      <point x="247" y="51"/>
      <point x="246" y="47"/>
      <point x="246" y="42" type="curve" smooth="yes"/>
      <point x="246" y="25"/>
      <point x="288" y="-6"/>
      <point x="381" y="-6" type="curve" smooth="yes"/>
      <point x="487" y="-6"/>
      <point x="541" y="50"/>
      <point x="541" y="136" type="curve" smooth="yes"/>
      <point x="541" y="219"/>
      <point x="487" y="262"/>
      <point x="422" y="273" type="curve"/>
      <point x="422" y="275" type="line"/>
      <point x="499" y="293"/>
      <point x="530" y="337"/>
      <point x="530" y="406" type="curve" smooth="yes"/>
      <point x="530" y="482"/>
      <point x="475" y="549"/>
      <point x="342" y="549" type="curve" smooth="yes"/>
      <point x="176" y="549"/>
      <point x="52" y="419"/>
      <point x="52" y="227" type="curve" smooth="yes"/>
      <point x="52" y="87"/>
      <point x="113" y="-6"/>
    </contour>
  </outline>
</glyph>
<glyph name="dhamlym" format="2">
  <advance width="839"/>
  <unicode hex="0D27"/>
  <outline>
    <contour>
      <point x="254" y="-6" type="curve" smooth="yes"/>
      <point x="339" y="-6"/>
      <point x="407" y="45"/>
      <point x="423" y="140" type="curve"/>
      <point x="414" y="147" type="line"/>
      <point x="425" y="67"/>
      <point x="483" y="-6"/>
      <point x="582" y="-6" type="curve" smooth="yes"/>
      <point x="706" y="-6"/>
      <point x="791" y="82"/>
      <point x="791" y="257" type="curve" smooth="yes"/>
      <point x="791" y="444"/>
      <point x="686" y="549"/>
      <point x="645" y="549" type="curve" smooth="yes"/>
      <point x="637" y="549"/>
      <point x="631" y="546"/>
      <point x="627" y="542" type="curve"/>
      <point x="701" y="496"/>
      <point x="763" y="398"/>
      <point x="763" y="257" type="curve" smooth="yes"/>
      <point x="763" y="91"/>
      <point x="682" y="19"/>
      <point x="582" y="19" type="curve" smooth="yes"/>
      <point x="492" y="19"/>
      <point x="433" y="92"/>
      <point x="433" y="186" type="curve" smooth="yes"/>
      <point x="433" y="543" type="line"/>
      <point x="406" y="543" type="line"/>
      <point x="406" y="186" type="line" smooth="yes"/>
      <point x="406" y="87"/>
      <point x="344" y="19"/>
      <point x="254" y="19" type="curve" smooth="yes"/>
      <point x="177" y="19"/>
      <point x="76" y="68"/>
      <point x="76" y="259" type="curve" smooth="yes"/>
      <point x="76" y="397"/>
      <point x="140" y="499"/>
      <point x="212" y="542" type="curve"/>
      <point x="208" y="546"/>
      <point x="202" y="549"/>
      <point x="193" y="549" type="curve" smooth="yes"/>
      <point x="150" y="549"/>
      <point x="48" y="437"/>
      <point x="48" y="259" type="curve" smooth="yes"/>
      <point x="48" y="54"/>
      <point x="160" y="-6"/>
    </contour>
  </outline>
</glyph>
<glyph name="namlym" format="2">
  <advance width="839"/>
  <unicode hex="0D28"/>
  <outline>
    <contour>
      <point x="194" y="-6" type="curve" smooth="yes"/>
      <point x="202" y="-6"/>
      <point x="208" y="-3"/>
      <point x="212" y="1" type="curve"/>
      <point x="138" y="47"/>
      <point x="76" y="145"/>
      <point x="76" y="286" type="curve" smooth="yes"/>
      <point x="76" y="452"/>
      <point x="157" y="524"/>
      <point x="257" y="524" type="curve" smooth="yes"/>
      <point x="347" y="524"/>
      <point x="406" y="451"/>
      <point x="406" y="357" type="curve" smooth="yes"/>
      <point x="406" y="0" type="line"/>
      <point x="433" y="0" type="line"/>
      <point x="433" y="357" type="line" smooth="yes"/>
      <point x="433" y="456"/>
      <point x="495" y="524"/>
      <point x="585" y="524" type="curve" smooth="yes"/>
      <point x="662" y="524"/>
      <point x="763" y="475"/>
      <point x="763" y="284" type="curve" smooth="yes"/>
      <point x="763" y="146"/>
      <point x="699" y="44"/>
      <point x="627" y="1" type="curve"/>
      <point x="631" y="-3"/>
      <point x="637" y="-6"/>
      <point x="646" y="-6" type="curve" smooth="yes"/>
      <point x="689" y="-6"/>
      <point x="791" y="106"/>
      <point x="791" y="284" type="curve" smooth="yes"/>
      <point x="791" y="489"/>
      <point x="679" y="549"/>
      <point x="585" y="549" type="curve" smooth="yes"/>
      <point x="500" y="549"/>
      <point x="432" y="498"/>
      <point x="416" y="403" type="curve"/>
      <point x="425" y="396" type="line"/>
      <point x="414" y="476"/>
      <point x="356" y="549"/>
      <point x="257" y="549" type="curve" smooth="yes"/>
      <point x="133" y="549"/>
      <point x="48" y="461"/>
      <point x="48" y="286" type="curve" smooth="yes"/>
      <point x="48" y="99"/>
      <point x="153" y="-6"/>
    </contour>
  </outline>
</glyph>
<glyph name="nnnamlym" format="2">
  <advance width="955"/>
  <unicode hex="0D29"/>
  <outline>
    <contour>
      <point x="237" y="-6" type="curve" smooth="yes"/>
      <point x="329" y="-6"/>
      <point x="388" y="60"/>
      <point x="388" y="143" type="curve" smooth="yes"/>
      <point x="388" y="235"/>
      <point x="329" y="295"/>
      <point x="247" y="295" type="curve" smooth="yes"/>
      <point x="161" y="295"/>
      <point x="105" y="237"/>
      <point x="72" y="182" type="curve"/>
      <point x="81" y="154" type="line"/>
      <point x="124" y="227"/>
      <point x="177" y="270"/>
      <point x="245" y="270" type="curve" smooth="yes"/>
      <point x="308" y="270"/>
      <point x="360" y="227"/>
      <point x="360" y="143" type="curve" smooth="yes"/>
      <point x="360" y="65"/>
      <point x="301" y="19"/>
      <point x="237" y="19" type="curve" smooth="yes"/>
      <point x="128" y="19"/>
      <point x="75" y="129"/>
      <point x="75" y="261" type="curve" smooth="yes"/>
      <point x="75" y="416"/>
      <point x="184" y="524"/>
      <point x="318" y="524" type="curve" smooth="yes"/>
      <point x="447" y="524"/>
      <point x="522" y="448"/>
      <point x="522" y="320" type="curve" smooth="yes"/>
      <point x="522" y="0" type="line"/>
      <point x="539" y="0" type="line"/>
      <point x="539" y="354" type="line"/>
      <point x="540" y="389" type="line"/>
      <point x="515" y="481"/>
      <point x="448" y="549"/>
      <point x="318" y="549" type="curve"/>
      <point x="169" y="549"/>
      <point x="48" y="431"/>
      <point x="48" y="261" type="curve" smooth="yes"/>
      <point x="48" y="100"/>
      <point x="119" y="-6"/>
    </contour>
    <contour>
      <point x="701" y="549" type="curve" smooth="yes"/>
      <point x="616" y="549"/>
      <point x="548" y="498"/>
      <point x="532" y="403" type="curve"/>
      <point x="532" y="357" type="line"/>
      <point x="532" y="0" type="line"/>
      <point x="549" y="0" type="line"/>
      <point x="549" y="357" type="line" smooth="yes"/>
      <point x="549" y="456"/>
      <point x="611" y="524"/>
      <point x="701" y="524" type="curve" smooth="yes"/>
      <point x="778" y="524"/>
      <point x="879" y="475"/>
      <point x="879" y="284" type="curve" smooth="yes"/>
      <point x="879" y="146"/>
      <point x="815" y="44"/>
      <point x="743" y="1" type="curve"/>
      <point x="747" y="-3"/>
      <point x="753" y="-6"/>
      <point x="762" y="-6" type="curve" smooth="yes"/>
      <point x="803" y="-6"/>
      <point x="907" y="106"/>
      <point x="907" y="284" type="curve" smooth="yes"/>
      <point x="907" y="489"/>
      <point x="795" y="549"/>
    </contour>
  </outline>
</glyph>
<glyph name="pamlym" format="2">
  <advance width="842"/>
  <unicode hex="0D2A"/>
  <outline>
    <contour>
      <point x="148" y="-4" type="curve" smooth="yes"/>
      <point x="159" y="-4"/>
      <point x="163" y="0"/>
      <point x="166" y="6" type="curve"/>
      <point x="116" y="34"/>
      <point x="68" y="76"/>
      <point x="68" y="164" type="curve" smooth="yes"/>
      <point x="68" y="241"/>
      <point x="128" y="301"/>
      <point x="208" y="301" type="curve" smooth="yes"/>
      <point x="289" y="301"/>
      <point x="339" y="241"/>
      <point x="339" y="167" type="curve" smooth="yes"/>
      <point x="339" y="90"/>
      <point x="296" y="45"/>
      <point x="257" y="12" type="curve"/>
      <point x="264" y="0" type="line"/>
      <point x="747" y="0" type="line"/>
      <point x="747" y="25" type="line"/>
      <point x="304" y="25" type="line"/>
      <point x="339" y="56"/>
      <point x="367" y="104"/>
      <point x="367" y="167" type="curve" smooth="yes"/>
      <point x="367" y="268"/>
      <point x="292" y="326"/>
      <point x="208" y="326" type="curve" smooth="yes"/>
      <point x="125" y="326"/>
      <point x="40" y="268"/>
      <point x="40" y="164" type="curve" smooth="yes"/>
      <point x="40" y="52"/>
      <point x="121" y="-4"/>
    </contour>
    <contour>
      <point x="737" y="0" type="line"/>
      <point x="764" y="0" type="line"/>
      <point x="764" y="543" type="line"/>
      <point x="737" y="543" type="line"/>
    </contour>
  </outline>
</glyph>
<glyph name="phamlym" format="2">
  <advance width="1035"/>
  <unicode hex="0D2B"/>
  <outline>
    <contour>
      <point x="148" y="-4" type="curve" smooth="yes"/>
      <point x="159" y="-4"/>
      <point x="163" y="0"/>
      <point x="166" y="6" type="curve"/>
      <point x="116" y="34"/>
      <point x="68" y="76"/>
      <point x="68" y="164" type="curve" smooth="yes"/>
      <point x="68" y="241"/>
      <point x="128" y="301"/>
      <point x="208" y="301" type="curve" smooth="yes"/>
      <point x="289" y="301"/>
      <point x="339" y="241"/>
      <point x="339" y="167" type="curve" smooth="yes"/>
      <point x="339" y="90"/>
      <point x="296" y="45"/>
      <point x="257" y="12" type="curve"/>
      <point x="264" y="0" type="line"/>
      <point x="627" y="0" type="line"/>
      <point x="627" y="25" type="line"/>
      <point x="304" y="25" type="line"/>
      <point x="339" y="56"/>
      <point x="367" y="104"/>
      <point x="367" y="167" type="curve" smooth="yes"/>
      <point x="367" y="268"/>
      <point x="292" y="326"/>
      <point x="208" y="326" type="curve" smooth="yes"/>
      <point x="125" y="326"/>
      <point x="40" y="268"/>
      <point x="40" y="164" type="curve" smooth="yes"/>
      <point x="40" y="52"/>
      <point x="121" y="-4"/>
    </contour>
    <contour>
      <point x="540" y="0" type="line"/>
      <point x="962" y="0" type="line"/>
      <point x="962" y="303" type="line" smooth="yes"/>
      <point x="962" y="434"/>
      <point x="901" y="549"/>
      <point x="751" y="549" type="curve" smooth="yes"/>
      <point x="601" y="549"/>
      <point x="540" y="434"/>
      <point x="540" y="304" type="curve" smooth="yes"/>
    </contour>
    <contour>
      <point x="567" y="25" type="line"/>
      <point x="567" y="294" type="line" smooth="yes"/>
      <point x="567" y="435"/>
      <point x="626" y="524"/>
      <point x="751" y="524" type="curve" smooth="yes"/>
      <point x="876" y="524"/>
      <point x="935" y="435"/>
      <point x="935" y="294" type="curve" smooth="yes"/>
      <point x="935" y="25" type="line"/>
    </contour>
  </outline>
</glyph>
<glyph name="bhamlym" format="2">
  <advance width="594"/>
  <unicode hex="0D2D"/>
  <outline>
    <contour>
      <point x="133" y="-6" type="curve" smooth="yes"/>
      <point x="140" y="-6"/>
      <point x="145" y="-4"/>
      <point x="150" y="0" type="curve"/>
      <point x="117" y="41"/>
      <point x="80" y="114"/>
      <point x="80" y="227" type="curve" smooth="yes"/>
      <point x="80" y="410"/>
      <point x="192" y="524"/>
      <point x="361" y="524" type="curve" smooth="yes"/>
      <point x="458" y="524"/>
      <point x="525" y="483"/>
      <point x="525" y="415" type="curve" smooth="yes"/>
      <point x="525" y="371"/>
      <point x="505" y="347"/>
      <point x="439" y="347" type="curve" smooth="yes"/>
      <point x="421" y="347"/>
      <point x="397" y="349"/>
      <point x="377" y="349" type="curve" smooth="yes"/>
      <point x="315" y="349"/>
      <point x="259" y="325"/>
      <point x="259" y="263" type="curve" smooth="yes"/>
      <point x="259" y="198"/>
      <point x="314" y="175"/>
      <point x="392" y="175" type="curve" smooth="yes"/>
      <point x="416" y="175" type="line" smooth="yes"/>
      <point x="481" y="175"/>
      <point x="517" y="154"/>
      <point x="517" y="102" type="curve" smooth="yes"/>
      <point x="517" y="53"/>
      <point x="482" y="19"/>
      <point x="394" y="19" type="curve" smooth="yes"/>
      <point x="337" y="19"/>
      <point x="299" y="33"/>
      <point x="264" y="54" type="curve"/>
      <point x="261" y="49"/>
      <point x="260" y="46"/>
      <point x="260" y="41" type="curve" smooth="yes"/>
      <point x="260" y="20"/>
      <point x="319" y="-6"/>
      <point x="394" y="-6" type="curve" smooth="yes"/>
      <point x="488" y="-6"/>
      <point x="545" y="30"/>
      <point x="545" y="103" type="curve" smooth="yes"/>
      <point x="545" y="177"/>
      <point x="487" y="200"/>
      <point x="416" y="200" type="curve" smooth="yes"/>
      <point x="392" y="200" type="line" smooth="yes"/>
      <point x="324" y="200"/>
      <point x="287" y="215"/>
      <point x="287" y="263" type="curve" smooth="yes"/>
      <point x="287" y="309"/>
      <point x="325" y="324"/>
      <point x="379" y="324" type="curve" smooth="yes"/>
      <point x="403" y="324"/>
      <point x="428" y="322"/>
      <point x="442" y="322" type="curve" smooth="yes"/>
      <point x="513" y="322"/>
      <point x="553" y="354"/>
      <point x="553" y="415" type="curve" smooth="yes"/>
      <point x="553" y="501"/>
      <point x="470" y="549"/>
      <point x="360" y="549" type="curve" smooth="yes"/>
      <point x="174" y="549"/>
      <point x="52" y="419"/>
      <point x="52" y="227" type="curve" smooth="yes"/>
      <point x="52" y="87"/>
      <point x="113" y="-6"/>
    </contour>
  </outline>
</glyph>
<glyph name="mamlym" format="2">
  <advance width="633"/>
  <unicode hex="0D2E"/>
  <outline>
    <contour>
      <point x="70" y="0" type="line"/>
      <point x="563" y="0" type="line"/>
      <point x="563" y="281" type="line" smooth="yes"/>
      <point x="563" y="470"/>
      <point x="464" y="548"/>
      <point x="326" y="548" type="curve" smooth="yes"/>
      <point x="192" y="548"/>
      <point x="70" y="465"/>
      <point x="70" y="276" type="curve" smooth="yes"/>
    </contour>
    <contour>
      <point x="113" y="9" type="line"/>
      <point x="330" y="102"/>
      <point x="409" y="219"/>
      <point x="409" y="325" type="curve" smooth="yes"/>
      <point x="409" y="438"/>
      <point x="335" y="487"/>
      <point x="253" y="487" type="curve" smooth="yes"/>
      <point x="208" y="487"/>
      <point x="168" y="472"/>
      <point x="135" y="442" type="curve"/>
      <point x="136" y="441" type="line"/>
      <point x="168" y="484"/>
      <point x="236" y="523"/>
      <point x="326" y="523" type="curve" smooth="yes"/>
      <point x="431" y="523"/>
      <point x="536" y="470"/>
      <point x="536" y="281" type="curve" smooth="yes"/>
      <point x="536" y="25" type="line"/>
      <point x="97" y="25" type="line"/>
      <point x="97" y="276" type="line" smooth="yes"/>
      <point x="97" y="416"/>
      <point x="158" y="462"/>
      <point x="247" y="462" type="curve" smooth="yes"/>
      <point x="319" y="462"/>
      <point x="381" y="427"/>
      <point x="381" y="325" type="curve" smooth="yes"/>
      <point x="381" y="228"/>
      <point x="314" y="122"/>
      <point x="97" y="25" type="curve"/>
    </contour>
  </outline>
</glyph>
<glyph name="yamlym" format="2">
  <advance width="901"/>
  <unicode hex="0D2F"/>
  <outline>
    <contour>
      <point x="330" y="-6" type="curve"/>
      <point x="485" y="-6"/>
      <point x="623" y="111"/>
      <point x="623" y="326" type="curve" smooth="yes"/>
      <point x="623" y="440"/>
      <point x="568" y="549"/>
      <point x="456" y="549" type="curve" smooth="yes"/>
      <point x="353" y="549"/>
      <point x="289" y="457"/>
      <point x="289" y="339" type="curve" smooth="yes"/>
      <point x="289" y="87"/>
      <point x="463" y="-6"/>
      <point x="596" y="-6" type="curve" smooth="yes"/>
      <point x="734" y="-6"/>
      <point x="853" y="84"/>
      <point x="853" y="287" type="curve" smooth="yes"/>
      <point x="853" y="447"/>
      <point x="758" y="549"/>
      <point x="720" y="549" type="curve" smooth="yes"/>
      <point x="710" y="549"/>
      <point x="702" y="546"/>
      <point x="699" y="542" type="curve"/>
      <point x="770" y="499"/>
      <point x="825" y="406"/>
      <point x="825" y="287" type="curve" smooth="yes"/>
      <point x="825" y="97"/>
      <point x="716" y="19"/>
      <point x="596" y="19" type="curve" smooth="yes"/>
      <point x="474" y="19"/>
      <point x="317" y="104"/>
      <point x="317" y="339" type="curve" smooth="yes"/>
      <point x="317" y="436"/>
      <point x="365" y="524"/>
      <point x="456" y="524" type="curve" smooth="yes"/>
      <point x="540" y="524"/>
      <point x="595" y="439"/>
      <point x="595" y="326" type="curve" smooth="yes"/>
      <point x="595" y="135"/>
      <point x="479" y="19"/>
      <point x="331" y="19" type="curve" smooth="yes"/>
      <point x="177" y="19"/>
      <point x="76" y="140"/>
      <point x="76" y="312" type="curve" smooth="yes"/>
      <point x="76" y="437"/>
      <point x="144" y="524"/>
      <point x="244" y="524" type="curve" smooth="yes"/>
      <point x="294" y="524"/>
      <point x="327" y="502"/>
      <point x="352" y="477" type="curve"/>
      <point x="366" y="500" type="line"/>
      <point x="333" y="528"/>
      <point x="298" y="549"/>
      <point x="244" y="549" type="curve" smooth="yes"/>
      <point x="144" y="549"/>
      <point x="48" y="470"/>
      <point x="48" y="312" type="curve" smooth="yes"/>
      <point x="48" y="122"/>
      <point x="166" y="-6"/>
    </contour>
  </outline>
</glyph>
<glyph name="ramlym" format="2">
  <advance width="646"/>
  <unicode hex="0D30"/>
  <outline>
    <contour>
      <point x="182" y="-6" type="curve" smooth="yes"/>
      <point x="191" y="-6"/>
      <point x="196" y="-4"/>
      <point x="202" y="1" type="curve"/>
      <point x="119" y="52"/>
      <point x="76" y="154"/>
      <point x="76" y="256" type="curve" smooth="yes"/>
      <point x="76" y="398"/>
      <point x="169" y="524"/>
      <point x="325" y="524" type="curve" smooth="yes"/>
      <point x="469" y="524"/>
      <point x="570" y="406"/>
      <point x="570" y="237" type="curve" smooth="yes"/>
      <point x="570" y="106"/>
      <point x="522" y="19"/>
      <point x="428" y="19" type="curve" smooth="yes"/>
      <point x="352" y="19"/>
      <point x="297" y="92"/>
      <point x="297" y="206" type="curve" smooth="yes"/>
      <point x="297" y="340"/>
      <point x="365" y="441"/>
      <point x="447" y="498" type="curve"/>
      <point x="429" y="516" type="line"/>
      <point x="337" y="453"/>
      <point x="269" y="343"/>
      <point x="269" y="206" type="curve" smooth="yes"/>
      <point x="269" y="88"/>
      <point x="328" y="-6"/>
      <point x="428" y="-6" type="curve" smooth="yes"/>
      <point x="539" y="-6"/>
      <point x="598" y="90"/>
      <point x="598" y="237" type="curve" smooth="yes"/>
      <point x="598" y="421"/>
      <point x="484" y="549"/>
      <point x="325" y="549" type="curve" smooth="yes"/>
      <point x="170" y="549"/>
      <point x="48" y="433"/>
      <point x="48" y="256" type="curve" smooth="yes"/>
      <point x="48" y="110"/>
      <point x="138" y="-6"/>
    </contour>
  </outline>
</glyph>
<glyph name="rramlym" format="2">
  <advance width="620"/>
  <unicode hex="0D31"/>
  <outline>
    <contour>
      <point x="182" y="-6" type="curve" smooth="yes"/>
      <point x="192" y="-6"/>
      <point x="197" y="-4"/>
      <point x="203" y="0" type="curve"/>
      <point x="134" y="48"/>
      <point x="76" y="142"/>
      <point x="76" y="264" type="curve" smooth="yes"/>
      <point x="76" y="427"/>
      <point x="187" y="524"/>
      <point x="313" y="524" type="curve" smooth="yes"/>
      <point x="439" y="524"/>
      <point x="544" y="427"/>
      <point x="544" y="264" type="curve" smooth="yes"/>
      <point x="544" y="150"/>
      <point x="500" y="61"/>
      <point x="425" y="0" type="curve"/>
      <point x="430" y="-5"/>
      <point x="436" y="-6"/>
      <point x="444" y="-6" type="curve" smooth="yes"/>
      <point x="470" y="-6"/>
      <point x="572" y="84"/>
      <point x="572" y="265" type="curve" smooth="yes"/>
      <point x="572" y="443"/>
      <point x="456" y="549"/>
      <point x="313" y="549" type="curve" smooth="yes"/>
      <point x="175" y="549"/>
      <point x="48" y="443"/>
      <point x="48" y="264" type="curve" smooth="yes"/>
      <point x="48" y="111"/>
      <point x="146" y="-6"/>
    </contour>
  </outline>
</glyph>
<glyph name="lamlym" format="2">
  <advance width="763"/>
  <unicode hex="0D32"/>
  <outline>
    <contour>
      <point x="76" y="0" type="line"/>
      <point x="685" y="0" type="line"/>
      <point x="685" y="543" type="line"/>
      <point x="658" y="543" type="line"/>
      <point x="658" y="25" type="line"/>
      <point x="103" y="25" type="line"/>
      <point x="103" y="323" type="line" smooth="yes"/>
      <point x="103" y="453"/>
      <point x="165" y="524"/>
      <point x="277" y="524" type="curve" smooth="yes"/>
      <point x="386" y="524"/>
      <point x="445" y="453"/>
      <point x="445" y="324" type="curve" smooth="yes"/>
      <point x="445" y="261" type="line"/>
      <point x="87" y="261" type="line"/>
      <point x="87" y="236" type="line"/>
      <point x="472" y="236" type="line"/>
      <point x="472" y="324" type="line" smooth="yes"/>
      <point x="472" y="475"/>
      <point x="396" y="549"/>
      <point x="277" y="549" type="curve" smooth="yes"/>
      <point x="154" y="549"/>
      <point x="76" y="474"/>
      <point x="76" y="324" type="curve" smooth="yes"/>
    </contour>
  </outline>
</glyph>
<glyph name="llamlym" format="2">
  <advance width="640"/>
  <unicode hex="0D33"/>
  <outline>
    <contour>
      <point x="193" y="-170" type="curve" smooth="yes"/>
      <point x="585" y="-170" type="line"/>
      <point x="585" y="-145" type="line"/>
      <point x="195" y="-145" type="line" smooth="yes"/>
      <point x="100" y="-145"/>
      <point x="81" y="-110"/>
      <point x="81" y="-72" type="curve" smooth="yes"/>
      <point x="81" y="-29"/>
      <point x="108" y="0"/>
      <point x="194" y="0" type="curve" smooth="yes"/>
      <point x="425" y="0" type="line" smooth="yes"/>
      <point x="552" y="0"/>
      <point x="596" y="55"/>
      <point x="596" y="140" type="curve" smooth="yes"/>
      <point x="596" y="220"/>
      <point x="542" y="262"/>
      <point x="477" y="273" type="curve"/>
      <point x="477" y="275" type="line"/>
      <point x="554" y="293"/>
      <point x="585" y="337"/>
      <point x="585" y="400" type="curve" smooth="yes"/>
      <point x="585" y="482"/>
      <point x="530" y="549"/>
      <point x="363" y="549" type="curve" smooth="yes"/>
      <point x="161" y="549"/>
      <point x="50" y="433"/>
      <point x="50" y="304" type="curve" smooth="yes"/>
      <point x="50" y="164"/>
      <point x="128" y="102"/>
      <point x="216" y="102" type="curve" smooth="yes"/>
      <point x="303" y="102"/>
      <point x="359" y="164"/>
      <point x="359" y="246" type="curve" smooth="yes"/>
      <point x="359" y="334"/>
      <point x="292" y="381"/>
      <point x="226" y="381" type="curve" smooth="yes"/>
      <point x="148" y="381"/>
      <point x="98" y="329"/>
      <point x="64" y="274" type="curve"/>
      <point x="69" y="242" type="line"/>
      <point x="108" y="305"/>
      <point x="150" y="356"/>
      <point x="224" y="356" type="curve" smooth="yes"/>
      <point x="285" y="356"/>
      <point x="331" y="311"/>
      <point x="331" y="240" type="curve" smooth="yes"/>
      <point x="331" y="181"/>
      <point x="289" y="127"/>
      <point x="216" y="127" type="curve" smooth="yes"/>
      <point x="132" y="127"/>
      <point x="77" y="189"/>
      <point x="77" y="300" type="curve" smooth="yes"/>
      <point x="77" y="431"/>
      <point x="186" y="524"/>
      <point x="363" y="524" type="curve" smooth="yes"/>
      <point x="499" y="524"/>
      <point x="557" y="479"/>
      <point x="557" y="400" type="curve" smooth="yes"/>
      <point x="557" y="326"/>
      <point x="503" y="290"/>
      <point x="420" y="288" type="curve"/>
      <point x="420" y="263" type="line"/>
      <point x="496" y="261"/>
      <point x="568" y="226"/>
      <point x="568" y="140" type="curve" smooth="yes"/>
      <point x="568" y="73"/>
      <point x="539" y="25"/>
      <point x="420" y="25" type="curve" smooth="yes"/>
      <point x="193" y="25" type="line" smooth="yes"/>
      <point x="101" y="25"/>
      <point x="53" y="-8"/>
      <point x="53" y="-71" type="curve" smooth="yes"/>
      <point x="53" y="-131"/>
      <point x="92" y="-170"/>
    </contour>
  </outline>
</glyph>
<glyph name="lllamlym" format="2">
  <advance width="579"/>
  <unicode hex="0D34"/>
  <outline>
    <contour>
      <point x="247" y="-6" type="curve" smooth="yes"/>
      <point x="334" y="-6"/>
      <point x="377" y="49"/>
      <point x="377" y="116" type="curve" smooth="yes"/>
      <point x="377" y="164"/>
      <point x="361" y="207"/>
      <point x="330" y="261" type="curve" smooth="yes"/>
      <point x="301" y="312"/>
      <point x="280" y="357"/>
      <point x="280" y="403" type="curve" smooth="yes"/>
      <point x="280" y="480"/>
      <point x="331" y="524"/>
      <point x="394" y="524" type="curve" smooth="yes"/>
      <point x="459" y="524"/>
      <point x="511" y="480"/>
      <point x="511" y="403" type="curve" smooth="yes"/>
      <point x="511" y="290"/>
      <point x="421" y="228"/>
      <point x="290" y="228" type="curve" smooth="yes"/>
      <point x="140" y="228"/>
      <point x="71" y="304"/>
      <point x="71" y="409" type="curve" smooth="yes"/>
      <point x="71" y="463"/>
      <point x="90" y="511"/>
      <point x="132" y="543" type="curve"/>
      <point x="130" y="546"/>
      <point x="126" y="549"/>
      <point x="119" y="549" type="curve" smooth="yes"/>
      <point x="86" y="549"/>
      <point x="43" y="488"/>
      <point x="43" y="409" type="curve" smooth="yes"/>
      <point x="43" y="290"/>
      <point x="127" y="203"/>
      <point x="291" y="203" type="curve" smooth="yes"/>
      <point x="432" y="203"/>
      <point x="539" y="276"/>
      <point x="539" y="403" type="curve" smooth="yes"/>
      <point x="539" y="485"/>
      <point x="482" y="549"/>
      <point x="394" y="549" type="curve" smooth="yes"/>
      <point x="321" y="549"/>
      <point x="252" y="500"/>
      <point x="252" y="403" type="curve" smooth="yes"/>
      <point x="252" y="353"/>
      <point x="274" y="306"/>
      <point x="306" y="249" type="curve" smooth="yes"/>
      <point x="341" y="187"/>
      <point x="349" y="159"/>
      <point x="349" y="116" type="curve" smooth="yes"/>
      <point x="349" y="59"/>
      <point x="311" y="19"/>
      <point x="246" y="19" type="curve" smooth="yes"/>
      <point x="201" y="19"/>
      <point x="175" y="31"/>
      <point x="150" y="46" type="curve"/>
      <point x="147" y="40"/>
      <point x="146" y="37"/>
      <point x="146" y="31" type="curve" smooth="yes"/>
      <point x="146" y="14"/>
      <point x="188" y="-6"/>
    </contour>
  </outline>
</glyph>
<glyph name="vamlym" format="2">
  <advance width="859"/>
  <unicode hex="0D35"/>
  <outline>
    <contour>
      <point x="182" y="-6" type="curve" smooth="yes"/>
      <point x="192" y="-6"/>
      <point x="197" y="-4"/>
      <point x="203" y="0" type="curve"/>
      <point x="134" y="48"/>
      <point x="76" y="142"/>
      <point x="76" y="264" type="curve" smooth="yes"/>
      <point x="76" y="427"/>
      <point x="185" y="524"/>
      <point x="308" y="524" type="curve" smooth="yes"/>
      <point x="431" y="524"/>
      <point x="534" y="427"/>
      <point x="534" y="265" type="curve" smooth="yes"/>
      <point x="534" y="173"/>
      <point x="498" y="97"/>
      <point x="419" y="18" type="curve"/>
      <point x="428" y="0" type="line"/>
      <point x="781" y="0" type="line"/>
      <point x="781" y="543" type="line"/>
      <point x="754" y="543" type="line"/>
      <point x="754" y="25" type="line"/>
      <point x="450" y="25" type="line"/>
      <point x="453" y="20" type="line"/>
      <point x="516" y="80"/>
      <point x="562" y="169"/>
      <point x="562" y="265" type="curve" smooth="yes"/>
      <point x="562" y="443"/>
      <point x="448" y="549"/>
      <point x="308" y="549" type="curve" smooth="yes"/>
      <point x="173" y="549"/>
      <point x="48" y="443"/>
      <point x="48" y="264" type="curve" smooth="yes"/>
      <point x="48" y="111"/>
      <point x="146" y="-6"/>
    </contour>
  </outline>
</glyph>
<glyph name="shamlym" format="2">
  <advance width="953"/>
  <unicode hex="0D36"/>
  <outline>
    <contour>
      <point x="245" y="-6" type="curve" smooth="yes"/>
      <point x="357" y="-6"/>
      <point x="420" y="64"/>
      <point x="420" y="208" type="curve" smooth="yes"/>
      <point x="420" y="291" type="line" smooth="yes"/>
      <point x="420" y="453"/>
      <point x="506" y="524"/>
      <point x="626" y="524" type="curve" smooth="yes"/>
      <point x="776" y="524"/>
      <point x="877" y="406"/>
      <point x="877" y="237" type="curve" smooth="yes"/>
      <point x="877" y="106"/>
      <point x="829" y="19"/>
      <point x="735" y="19" type="curve" smooth="yes"/>
      <point x="659" y="19"/>
      <point x="604" y="92"/>
      <point x="604" y="206" type="curve" smooth="yes"/>
      <point x="604" y="340"/>
      <point x="672" y="441"/>
      <point x="754" y="498" type="curve"/>
      <point x="736" y="516" type="line"/>
      <point x="644" y="453"/>
      <point x="576" y="343"/>
      <point x="576" y="206" type="curve" smooth="yes"/>
      <point x="576" y="88"/>
      <point x="635" y="-6"/>
      <point x="735" y="-6" type="curve" smooth="yes"/>
      <point x="846" y="-6"/>
      <point x="905" y="90"/>
      <point x="905" y="237" type="curve" smooth="yes"/>
      <point x="905" y="421"/>
      <point x="791" y="549"/>
      <point x="626" y="549" type="curve" smooth="yes"/>
      <point x="494" y="549"/>
      <point x="392" y="471"/>
      <point x="392" y="296" type="curve" smooth="yes"/>
      <point x="392" y="214" type="line" smooth="yes"/>
      <point x="392" y="88"/>
      <point x="350" y="19"/>
      <point x="246" y="19" type="curve" smooth="yes"/>
      <point x="150" y="19"/>
      <point x="76" y="89"/>
      <point x="76" y="260" type="curve" smooth="yes"/>
      <point x="76" y="398"/>
      <point x="138" y="496"/>
      <point x="212" y="542" type="curve"/>
      <point x="207" y="547"/>
      <point x="202" y="549"/>
      <point x="194" y="549" type="curve" smooth="yes"/>
      <point x="153" y="549"/>
      <point x="48" y="444"/>
      <point x="48" y="260" type="curve" smooth="yes"/>
      <point x="48" y="72"/>
      <point x="133" y="-6"/>
    </contour>
  </outline>
</glyph>
<glyph name="ssamlym" format="2">
  <advance width="1013"/>
  <unicode hex="0D37"/>
  <outline>
    <contour>
      <point x="148" y="-4" type="curve" smooth="yes"/>
      <point x="159" y="-4"/>
      <point x="163" y="0"/>
      <point x="166" y="6" type="curve"/>
      <point x="116" y="34"/>
      <point x="68" y="76"/>
      <point x="68" y="164" type="curve" smooth="yes"/>
      <point x="68" y="241"/>
      <point x="128" y="301"/>
      <point x="208" y="301" type="curve" smooth="yes"/>
      <point x="289" y="301"/>
      <point x="339" y="241"/>
      <point x="339" y="167" type="curve" smooth="yes"/>
      <point x="339" y="90"/>
      <point x="296" y="45"/>
      <point x="257" y="12" type="curve"/>
      <point x="264" y="0" type="line"/>
      <point x="760" y="0" type="line"/>
      <point x="760" y="25" type="line"/>
      <point x="304" y="25" type="line"/>
      <point x="339" y="56"/>
      <point x="367" y="104"/>
      <point x="367" y="167" type="curve" smooth="yes"/>
      <point x="367" y="268"/>
      <point x="292" y="326"/>
      <point x="208" y="326" type="curve" smooth="yes"/>
      <point x="125" y="326"/>
      <point x="40" y="268"/>
      <point x="40" y="164" type="curve" smooth="yes"/>
      <point x="40" y="52"/>
      <point x="121" y="-4"/>
    </contour>
    <contour>
      <point x="624" y="0" type="line"/>
      <point x="935" y="0" type="line"/>
      <point x="935" y="543" type="line"/>
      <point x="909" y="544" type="line"/>
      <point x="871" y="341"/>
      <point x="751" y="262"/>
      <point x="623" y="262" type="curve" smooth="yes"/>
      <point x="525" y="262"/>
      <point x="442" y="305"/>
      <point x="442" y="418" type="curve" smooth="yes"/>
      <point x="442" y="483"/>
      <point x="481" y="524"/>
      <point x="535" y="524" type="curve" smooth="yes"/>
      <point x="594" y="524"/>
      <point x="624" y="480"/>
      <point x="624" y="400" type="curve" smooth="yes"/>
    </contour>
    <contour>
      <point x="651" y="25" type="line"/>
      <point x="651" y="406" type="line" smooth="yes"/>
      <point x="651" y="504"/>
      <point x="606" y="549"/>
      <point x="535" y="549" type="curve" smooth="yes"/>
      <point x="472" y="549"/>
      <point x="414" y="504"/>
      <point x="414" y="418" type="curve" smooth="yes"/>
      <point x="414" y="294"/>
      <point x="505" y="237"/>
      <point x="623" y="237" type="curve" smooth="yes"/>
      <point x="771" y="237"/>
      <point x="879" y="321"/>
      <point x="918" y="488" type="curve"/>
      <point x="912" y="485" type="line"/>
      <point x="909" y="416"/>
      <point x="908" y="340"/>
      <point x="908" y="290" type="curve" smooth="yes"/>
      <point x="908" y="25" type="line"/>
    </contour>
  </outline>
</glyph>
<glyph name="samlym" format="2">
  <advance width="1119"/>
  <unicode hex="0D38"/>
  <outline>
    <contour>
      <point x="925" y="549" type="curve" smooth="yes"/>
      <point x="917" y="549"/>
      <point x="912" y="547"/>
      <point x="907" y="542" type="curve"/>
      <point x="981" y="496"/>
      <point x="1043" y="398"/>
      <point x="1043" y="260" type="curve" smooth="yes"/>
      <point x="1043" y="89"/>
      <point x="966" y="19"/>
      <point x="873" y="19" type="curve" smooth="yes"/>
      <point x="769" y="19"/>
      <point x="727" y="88"/>
      <point x="727" y="214" type="curve" smooth="yes"/>
      <point x="727" y="344" type="line" smooth="yes"/>
      <point x="727" y="495"/>
      <point x="655" y="549"/>
      <point x="571" y="549" type="curve" smooth="yes"/>
      <point x="475" y="549"/>
      <point x="427" y="488"/>
      <point x="414" y="404" type="curve"/>
      <point x="425" y="396" type="line"/>
      <point x="414" y="476"/>
      <point x="356" y="549"/>
      <point x="257" y="549" type="curve" smooth="yes"/>
      <point x="133" y="549"/>
      <point x="48" y="461"/>
      <point x="48" y="286" type="curve" smooth="yes"/>
      <point x="48" y="99"/>
      <point x="153" y="-6"/>
      <point x="194" y="-6" type="curve" smooth="yes"/>
      <point x="202" y="-6"/>
      <point x="208" y="-3"/>
      <point x="212" y="1" type="curve"/>
      <point x="138" y="47"/>
      <point x="76" y="145"/>
      <point x="76" y="286" type="curve" smooth="yes"/>
      <point x="76" y="452"/>
      <point x="157" y="524"/>
      <point x="257" y="524" type="curve" smooth="yes"/>
      <point x="347" y="524"/>
      <point x="406" y="451"/>
      <point x="406" y="357" type="curve" smooth="yes"/>
      <point x="406" y="0" type="line"/>
      <point x="433" y="0" type="line"/>
      <point x="433" y="360" type="line" smooth="yes"/>
      <point x="433" y="467"/>
      <point x="486" y="524"/>
      <point x="571" y="524" type="curve" smooth="yes"/>
      <point x="652" y="524"/>
      <point x="699" y="468"/>
      <point x="699" y="335" type="curve" smooth="yes"/>
      <point x="699" y="208" type="line" smooth="yes"/>
      <point x="699" y="64"/>
      <point x="761" y="-6"/>
      <point x="873" y="-6" type="curve" smooth="yes"/>
      <point x="982" y="-6"/>
      <point x="1071" y="72"/>
      <point x="1071" y="260" type="curve" smooth="yes"/>
      <point x="1071" y="444"/>
      <point x="966" y="549"/>
    </contour>
  </outline>
</glyph>
<glyph name="hamlym" format="2">
  <advance width="1082"/>
  <unicode hex="0D39"/>
  <outline>
    <contour>
      <point x="906" y="-6" type="curve" smooth="yes"/>
      <point x="932" y="-6"/>
      <point x="1034" y="84"/>
      <point x="1034" y="265" type="curve" smooth="yes"/>
      <point x="1034" y="443"/>
      <point x="920" y="549"/>
      <point x="780" y="549" type="curve" smooth="yes"/>
      <point x="645" y="549"/>
      <point x="520" y="443"/>
      <point x="520" y="264" type="curve" smooth="yes"/>
      <point x="520" y="137"/>
      <point x="584" y="47"/>
      <point x="616" y="23" type="curve"/>
      <point x="626" y="25" type="line"/>
      <point x="304" y="25" type="line"/>
      <point x="339" y="56"/>
      <point x="367" y="104"/>
      <point x="367" y="167" type="curve" smooth="yes"/>
      <point x="367" y="268"/>
      <point x="292" y="326"/>
      <point x="208" y="326" type="curve" smooth="yes"/>
      <point x="125" y="326"/>
      <point x="40" y="268"/>
      <point x="40" y="164" type="curve" smooth="yes"/>
      <point x="40" y="52"/>
      <point x="121" y="-4"/>
      <point x="148" y="-4" type="curve" smooth="yes"/>
      <point x="159" y="-4"/>
      <point x="163" y="0"/>
      <point x="166" y="6" type="curve"/>
      <point x="116" y="34"/>
      <point x="68" y="76"/>
      <point x="68" y="164" type="curve" smooth="yes"/>
      <point x="68" y="241"/>
      <point x="128" y="301"/>
      <point x="208" y="301" type="curve" smooth="yes"/>
      <point x="289" y="301"/>
      <point x="339" y="241"/>
      <point x="339" y="167" type="curve" smooth="yes"/>
      <point x="339" y="90"/>
      <point x="296" y="45"/>
      <point x="257" y="12" type="curve"/>
      <point x="264" y="0" type="line"/>
      <point x="641" y="0" type="line"/>
      <point x="651" y="19" type="line"/>
      <point x="598" y="67"/>
      <point x="548" y="150"/>
      <point x="548" y="264" type="curve" smooth="yes"/>
      <point x="548" y="427"/>
      <point x="657" y="524"/>
      <point x="780" y="524" type="curve" smooth="yes"/>
      <point x="903" y="524"/>
      <point x="1006" y="427"/>
      <point x="1006" y="264" type="curve" smooth="yes"/>
      <point x="1006" y="150"/>
      <point x="962" y="61"/>
      <point x="887" y="0" type="curve"/>
      <point x="892" y="-5"/>
      <point x="898" y="-6"/>
    </contour>
  </outline>
</glyph>
<glyph name="tttamlym" format="2">
  <advance width="714"/>
  <unicode hex="0D3A"/>
  <outline>
    <contour>
      <point x="28" y="0" type="line"/>
      <point x="697" y="0" type="line"/>
      <point x="697" y="25" type="line"/>
      <point x="54" y="25" type="line"/>
      <point x="248" y="536" type="line"/>
      <point x="222" y="545" type="line"/>
      <point x="21" y="12" type="line"/>
    </contour>
    <contour>
      <point x="367" y="-179" type="line"/>
      <point x="394" y="-179" type="line"/>
      <point x="394" y="23" type="line"/>
      <point x="367" y="23" type="line"/>
    </contour>
  </outline>
</glyph>
<glyph name="avagrahamlym" format="2">
  <advance width="255"/>
  <unicode hex="0D3D"/>
  <outline>
    <contour>
      <point x="11" y="-220" type="curve" smooth="yes"/>
      <point x="84" y="-220"/>
      <point x="141" y="-174"/>
      <point x="141" y="-72" type="curve" smooth="yes"/>
      <point x="141" y="595" type="line" smooth="yes"/>
      <point x="141" y="683"/>
      <point x="180" y="723"/>
      <point x="243" y="723" type="curve" smooth="yes"/>
      <point x="265" y="723"/>
      <point x="285" y="719"/>
      <point x="303" y="706" type="curve"/>
      <point x="306" y="711"/>
      <point x="307" y="716"/>
      <point x="307" y="720" type="curve" smooth="yes"/>
      <point x="307" y="737"/>
      <point x="273" y="748"/>
      <point x="244" y="748" type="curve" smooth="yes"/>
      <point x="171" y="748"/>
      <point x="114" y="702"/>
      <point x="114" y="600" type="curve" smooth="yes"/>
      <point x="114" y="-67" type="line" smooth="yes"/>
      <point x="114" y="-155"/>
      <point x="75" y="-195"/>
      <point x="12" y="-195" type="curve" smooth="yes"/>
      <point x="-10" y="-195"/>
      <point x="-30" y="-191"/>
      <point x="-48" y="-178" type="curve"/>
      <point x="-51" y="-183"/>
      <point x="-52" y="-187"/>
      <point x="-52" y="-192" type="curve" smooth="yes"/>
      <point x="-52" y="-209"/>
      <point x="-18" y="-220"/>
    </contour>
  </outline>
</glyph>
<glyph name="aavowelsignmlym" format="2">
  <advance width="478"/>
  <unicode hex="0D3E"/>
  <outline>
    <contour>
      <point x="222" y="-6" type="curve" smooth="yes"/>
      <point x="359" y="-6"/>
      <point x="430" y="126"/>
      <point x="430" y="277" type="curve" smooth="yes"/>
      <point x="430" y="422"/>
      <point x="369" y="549"/>
      <point x="226" y="549" type="curve" smooth="yes"/>
      <point x="102" y="549"/>
      <point x="38" y="447"/>
      <point x="38" y="387" type="curve" smooth="yes"/>
      <point x="38" y="370"/>
      <point x="46" y="362"/>
      <point x="57" y="360" type="curve"/>
      <point x="66" y="462"/>
      <point x="140" y="524"/>
      <point x="226" y="524" type="curve" smooth="yes"/>
      <point x="347" y="524"/>
      <point x="402" y="410"/>
      <point x="402" y="277" type="curve" smooth="yes"/>
      <point x="402" y="138"/>
      <point x="337" y="19"/>
      <point x="222" y="19" type="curve" smooth="yes"/>
      <point x="117" y="19"/>
      <point x="59" y="86"/>
      <point x="50" y="183" type="curve"/>
      <point x="40" y="181"/>
      <point x="32" y="171"/>
      <point x="32" y="154" type="curve" smooth="yes"/>
      <point x="32" y="98"/>
      <point x="80" y="-6"/>
    </contour>
  </outline>
</glyph>
<glyph name="ivowelsignmlym" format="2">
  <advance width="183"/>
  <unicode hex="0D3F"/>
  <outline>
    <contour>
      <point x="78" y="0" type="line"/>
      <point x="105" y="0" type="line"/>
      <point x="105" y="646" type="line" smooth="yes"/>
      <point x="105" y="766"/>
      <point x="57" y="836"/>
      <point x="-32" y="836" type="curve" smooth="yes"/>
      <point x="-108" y="836"/>
      <point x="-176" y="790"/>
      <point x="-176" y="692" type="curve" smooth="yes"/>
      <point x="-176" y="656"/>
      <point x="-165" y="635"/>
      <point x="-148" y="635" type="curve" smooth="yes"/>
      <point x="-146" y="635"/>
      <point x="-144" y="635"/>
      <point x="-141" y="636" type="curve"/>
      <point x="-147" y="656"/>
      <point x="-149" y="674"/>
      <point x="-149" y="692" type="curve" smooth="yes"/>
      <point x="-149" y="766"/>
      <point x="-106" y="811"/>
      <point x="-34" y="811" type="curve" smooth="yes"/>
      <point x="47" y="811"/>
      <point x="78" y="739"/>
      <point x="78" y="644" type="curve" smooth="yes"/>
    </contour>
  </outline>
</glyph>
<glyph name="iivowelsignmlym" format="2">
  <advance width="183"/>
  <unicode hex="0D40"/>
  <outline>
    <contour>
      <point x="78" y="0" type="line"/>
      <point x="105" y="0" type="line"/>
      <point x="105" y="613" type="line" smooth="yes"/>
      <point x="105" y="778"/>
      <point x="26" y="836"/>
      <point x="-76" y="836" type="curve" smooth="yes"/>
      <point x="-182" y="836"/>
      <point x="-238" y="765"/>
      <point x="-238" y="700" type="curve" smooth="yes"/>
      <point x="-238" y="641"/>
      <point x="-198" y="595"/>
      <point x="-135" y="595" type="curve" smooth="yes"/>
      <point x="-64" y="595"/>
      <point x="-31" y="642"/>
      <point x="-31" y="696" type="curve" smooth="yes"/>
      <point x="-31" y="754"/>
      <point x="-64" y="793"/>
      <point x="-129" y="816" type="curve"/>
      <point x="-142" y="802" type="line"/>
      <point x="-72" y="770"/>
      <point x="-58" y="731"/>
      <point x="-58" y="696" type="curve" smooth="yes"/>
      <point x="-58" y="652"/>
      <point x="-86" y="620"/>
      <point x="-135" y="620" type="curve" smooth="yes"/>
      <point x="-182" y="620"/>
      <point x="-212" y="652"/>
      <point x="-212" y="700" type="curve" smooth="yes"/>
      <point x="-212" y="765"/>
      <point x="-158" y="811"/>
      <point x="-76" y="811" type="curve" smooth="yes"/>
      <point x="5" y="811"/>
      <point x="78" y="769"/>
      <point x="78" y="613" type="curve" smooth="yes"/>
    </contour>
  </outline>
</glyph>
<glyph name="uvowelsignmlym" format="2">
  <advance width="269"/>
  <unicode hex="0D41"/>
  <outline>
    <contour>
      <point x="124" y="-203" type="curve" smooth="yes"/>
      <point x="224" y="-203"/>
      <point x="272" y="-138"/>
      <point x="272" y="-66" type="curve" smooth="yes"/>
      <point x="272" y="19"/>
      <point x="217" y="67"/>
      <point x="128" y="121" type="curve"/>
      <point x="119" y="121" type="line"/>
      <point x="33" y="70"/>
      <point x="-24" y="19"/>
      <point x="-24" y="-66" type="curve" smooth="yes"/>
      <point x="-24" y="-138"/>
      <point x="24" y="-203"/>
    </contour>
    <contour>
      <point x="124" y="-178" type="curve" smooth="yes"/>
      <point x="50" y="-178"/>
      <point x="3" y="-132"/>
      <point x="3" y="-66" type="curve" smooth="yes"/>
      <point x="3" y="0"/>
      <point x="43" y="50"/>
      <point x="133" y="99" type="curve"/>
      <point x="116" y="99" type="line"/>
      <point x="201" y="52"/>
      <point x="245" y="0"/>
      <point x="245" y="-66" type="curve" smooth="yes"/>
      <point x="245" y="-132"/>
      <point x="198" y="-178"/>
    </contour>
    <contour>
      <point x="128" y="103" type="line"/>
      <point x="185" y="209"/>
      <point x="217" y="322"/>
      <point x="217" y="418" type="curve" smooth="yes"/>
      <point x="217" y="493"/>
      <point x="180" y="549"/>
      <point x="101" y="549" type="curve" smooth="yes"/>
      <point x="65" y="549"/>
      <point x="36" y="537"/>
      <point x="36" y="518" type="curve" smooth="yes"/>
      <point x="36" y="515"/>
      <point x="37" y="513"/>
      <point x="38" y="511" type="curve"/>
      <point x="49" y="516"/>
      <point x="70" y="523"/>
      <point x="101" y="523" type="curve" smooth="yes"/>
      <point x="162" y="523"/>
      <point x="189" y="478"/>
      <point x="189" y="413" type="curve" smooth="yes"/>
      <point x="189" y="318"/>
      <point x="155" y="202"/>
      <point x="105" y="109" type="curve"/>
    </contour>
  </outline>
</glyph>
<glyph name="uuvowelsignmlym" format="2">
  <advance width="269"/>
  <unicode hex="0D42"/>
  <outline>
    <contour>
      <point x="124" y="-203" type="curve" smooth="yes"/>
      <point x="225" y="-203"/>
      <point x="272" y="-137"/>
      <point x="272" y="-67" type="curve" smooth="yes"/>
      <point x="272" y="19"/>
      <point x="217" y="67"/>
      <point x="128" y="121" type="curve"/>
      <point x="119" y="121" type="line"/>
      <point x="33" y="70"/>
      <point x="-24" y="19"/>
      <point x="-24" y="-67" type="curve" smooth="yes"/>
      <point x="-24" y="-137"/>
      <point x="23" y="-203"/>
    </contour>
    <contour>
      <point x="124" y="-178" type="curve" smooth="yes"/>
      <point x="49" y="-178"/>
      <point x="2" y="-131"/>
      <point x="2" y="-67" type="curve" smooth="yes"/>
      <point x="2" y="-8"/>
      <point x="26" y="34"/>
      <point x="67" y="65" type="curve"/>
      <point x="66" y="66" type="line"/>
      <point x="44" y="39"/>
      <point x="30" y="19"/>
      <point x="30" y="-9" type="curve" smooth="yes"/>
      <point x="30" y="-74"/>
      <point x="78" y="-93"/>
      <point x="124" y="-93" type="curve" smooth="yes"/>
      <point x="170" y="-93"/>
      <point x="218" y="-74"/>
      <point x="218" y="-9" type="curve" smooth="yes"/>
      <point x="218" y="16"/>
      <point x="205" y="39"/>
      <point x="182" y="67" type="curve"/>
      <point x="183" y="64" type="line"/>
      <point x="221" y="33"/>
      <point x="246" y="-8"/>
      <point x="246" y="-67" type="curve" smooth="yes"/>
      <point x="246" y="-131"/>
      <point x="199" y="-178"/>
    </contour>
    <contour>
      <point x="124" y="-68" type="curve" smooth="yes"/>
      <point x="89" y="-68"/>
      <point x="54" y="-51"/>
      <point x="54" y="-8" type="curve" smooth="yes"/>
      <point x="54" y="39"/>
      <point x="87" y="68"/>
      <point x="131" y="101" type="curve"/>
      <point x="117" y="101" type="line"/>
      <point x="161" y="68"/>
      <point x="194" y="39"/>
      <point x="194" y="-8" type="curve" smooth="yes"/>
      <point x="194" y="-51"/>
      <point x="159" y="-68"/>
    </contour>
    <contour>
      <point x="128" y="103" type="line"/>
      <point x="185" y="209"/>
      <point x="217" y="322"/>
      <point x="217" y="418" type="curve" smooth="yes"/>
      <point x="217" y="493"/>
      <point x="180" y="549"/>
      <point x="101" y="549" type="curve" smooth="yes"/>
      <point x="65" y="549"/>
      <point x="36" y="537"/>
      <point x="36" y="518" type="curve" smooth="yes"/>
      <point x="36" y="515"/>
      <point x="37" y="513"/>
      <point x="38" y="511" type="curve"/>
      <point x="49" y="516"/>
      <point x="70" y="523"/>
      <point x="101" y="523" type="curve" smooth="yes"/>
      <point x="162" y="523"/>
      <point x="189" y="478"/>
      <point x="189" y="413" type="curve" smooth="yes"/>
      <point x="189" y="318"/>
      <point x="155" y="202"/>
      <point x="105" y="109" type="curve"/>
    </contour>
  </outline>
</glyph>
<glyph name="rvocalicvowelsignmlym" format="2">
  <advance width="206"/>
  <unicode hex="0D43"/>
  <outline>
    <contour>
      <point x="37" y="-308" type="curve" smooth="yes"/>
      <point x="139" y="-308"/>
      <point x="209" y="-248"/>
      <point x="209" y="-115" type="curve" smooth="yes"/>
      <point x="209" y="-20"/>
      <point x="182" y="47"/>
      <point x="137" y="147" type="curve" smooth="yes"/>
      <point x="97" y="236"/>
      <point x="64" y="315"/>
      <point x="64" y="400" type="curve" smooth="yes"/>
      <point x="64" y="483"/>
      <point x="97" y="528"/>
      <point x="130" y="553" type="curve"/>
      <point x="127" y="554"/>
      <point x="123" y="555"/>
      <point x="117" y="555" type="curve" smooth="yes"/>
      <point x="90" y="555"/>
      <point x="36" y="520"/>
      <point x="36" y="400" type="curve" smooth="yes"/>
      <point x="36" y="315"/>
      <point x="65" y="243"/>
      <point x="113" y="136" type="curve" smooth="yes"/>
      <point x="163" y="25"/>
      <point x="182" y="-26"/>
      <point x="182" y="-113" type="curve" smooth="yes"/>
      <point x="182" y="-236"/>
      <point x="124" y="-283"/>
      <point x="35" y="-283" type="curve" smooth="yes"/>
      <point x="-36" y="-283"/>
      <point x="-102" y="-250"/>
      <point x="-102" y="-164" type="curve" smooth="yes"/>
      <point x="-102" y="-97"/>
      <point x="-60" y="-63"/>
      <point x="-9" y="-63" type="curve" smooth="yes"/>
      <point x="60" y="-63"/>
      <point x="85" y="-113"/>
      <point x="85" y="-165" type="curve" smooth="yes"/>
      <point x="85" y="-209"/>
      <point x="71" y="-248"/>
      <point x="42" y="-289" type="curve"/>
      <point x="66" y="-296" type="line"/>
      <point x="97" y="-249"/>
      <point x="112" y="-212"/>
      <point x="112" y="-163" type="curve" smooth="yes"/>
      <point x="112" y="-95"/>
      <point x="70" y="-38"/>
      <point x="-9" y="-38" type="curve" smooth="yes"/>
      <point x="-78" y="-38"/>
      <point x="-129" y="-86"/>
      <point x="-129" y="-163" type="curve" smooth="yes"/>
      <point x="-129" y="-250"/>
      <point x="-66" y="-308"/>
    </contour>
  </outline>
</glyph>
<glyph name="rrvocalicvowelsignmlym" format="2">
  <advance width="206"/>
  <unicode hex="0D44"/>
  <outline>
    <contour>
      <point x="-14" y="-308" type="curve" smooth="yes"/>
      <point x="140" y="-308"/>
      <point x="209" y="-248"/>
      <point x="209" y="-115" type="curve" smooth="yes"/>
      <point x="209" y="-20"/>
      <point x="182" y="47"/>
      <point x="137" y="147" type="curve" smooth="yes"/>
      <point x="97" y="236"/>
      <point x="64" y="315"/>
      <point x="64" y="400" type="curve" smooth="yes"/>
      <point x="64" y="483"/>
      <point x="97" y="528"/>
      <point x="130" y="553" type="curve"/>
      <point x="127" y="554"/>
      <point x="123" y="555"/>
      <point x="117" y="555" type="curve" smooth="yes"/>
      <point x="90" y="555"/>
      <point x="36" y="520"/>
      <point x="36" y="400" type="curve" smooth="yes"/>
      <point x="36" y="315"/>
      <point x="65" y="243"/>
      <point x="113" y="136" type="curve" smooth="yes"/>
      <point x="163" y="25"/>
      <point x="182" y="-26"/>
      <point x="182" y="-113" type="curve" smooth="yes"/>
      <point x="182" y="-234"/>
      <point x="124" y="-283"/>
      <point x="-14" y="-283" type="curve" smooth="yes"/>
      <point x="-129" y="-283"/>
      <point x="-197" y="-233"/>
      <point x="-197" y="-147" type="curve" smooth="yes"/>
      <point x="-197" y="-90"/>
      <point x="-165" y="-64"/>
      <point x="-130" y="-64" type="curve" smooth="yes"/>
      <point x="-88" y="-64"/>
      <point x="-68" y="-94"/>
      <point x="-68" y="-132" type="curve" smooth="yes"/>
      <point x="-68" y="-219" type="line"/>
      <point x="-42" y="-219" type="line"/>
      <point x="-42" y="-130" type="line" smooth="yes"/>
      <point x="-42" y="-86"/>
      <point x="-13" y="-63"/>
      <point x="21" y="-63" type="curve" smooth="yes"/>
      <point x="69" y="-63"/>
      <point x="84" y="-105"/>
      <point x="84" y="-138" type="curve" smooth="yes"/>
      <point x="84" y="-183"/>
      <point x="63" y="-213"/>
      <point x="51" y="-220" type="curve"/>
      <point x="55" y="-224"/>
      <point x="61" y="-225"/>
      <point x="69" y="-225" type="curve" smooth="yes"/>
      <point x="84" y="-225"/>
      <point x="111" y="-196"/>
      <point x="111" y="-136" type="curve" smooth="yes"/>
      <point x="111" y="-89"/>
      <point x="83" y="-39"/>
      <point x="22" y="-39" type="curve" smooth="yes"/>
      <point x="-21" y="-39"/>
      <point x="-47" y="-66"/>
      <point x="-57" y="-98" type="curve"/>
      <point x="-52" y="-101" type="line"/>
      <point x="-62" y="-66"/>
      <point x="-85" y="-39"/>
      <point x="-131" y="-39" type="curve" smooth="yes"/>
      <point x="-177" y="-39"/>
      <point x="-224" y="-76"/>
      <point x="-224" y="-147" type="curve" smooth="yes"/>
      <point x="-224" y="-244"/>
      <point x="-149" y="-308"/>
    </contour>
  </outline>
</glyph>
<glyph name="evowelsignmlym" format="2">
  <advance width="640"/>
  <unicode hex="0D46"/>
  <outline>
    <contour>
      <point x="237" y="-6" type="curve" smooth="yes"/>
      <point x="329" y="-6"/>
      <point x="388" y="60"/>
      <point x="388" y="143" type="curve" smooth="yes"/>
      <point x="388" y="235"/>
      <point x="329" y="295"/>
      <point x="247" y="295" type="curve" smooth="yes"/>
      <point x="161" y="295"/>
      <point x="105" y="237"/>
      <point x="72" y="182" type="curve"/>
      <point x="81" y="154" type="line"/>
      <point x="124" y="227"/>
      <point x="177" y="270"/>
      <point x="245" y="270" type="curve" smooth="yes"/>
      <point x="308" y="270"/>
      <point x="360" y="227"/>
      <point x="360" y="143" type="curve" smooth="yes"/>
      <point x="360" y="65"/>
      <point x="301" y="19"/>
      <point x="237" y="19" type="curve" smooth="yes"/>
      <point x="128" y="19"/>
      <point x="75" y="129"/>
      <point x="75" y="248" type="curve" smooth="yes"/>
      <point x="75" y="416"/>
      <point x="174" y="524"/>
      <point x="326" y="524" type="curve" smooth="yes"/>
      <point x="460" y="524"/>
      <point x="564" y="425"/>
      <point x="564" y="255" type="curve" smooth="yes"/>
      <point x="564" y="122"/>
      <point x="496" y="36"/>
      <point x="438" y="1" type="curve"/>
      <point x="442" y="-3"/>
      <point x="449" y="-6"/>
      <point x="462" y="-6" type="curve" smooth="yes"/>
      <point x="488" y="-6"/>
      <point x="592" y="83"/>
      <point x="592" y="255" type="curve" smooth="yes"/>
      <point x="592" y="444"/>
      <point x="472" y="549"/>
      <point x="326" y="549" type="curve" smooth="yes"/>
      <point x="163" y="549"/>
      <point x="48" y="431"/>
      <point x="48" y="250" type="curve" smooth="yes"/>
      <point x="48" y="100"/>
      <point x="121" y="-6"/>
    </contour>
  </outline>
</glyph>
<glyph name="eevowelsignmlym" format="2">
  <advance width="525"/>
  <unicode hex="0D47"/>
  <outline>
    <contour>
      <point x="315" y="-6" type="curve" smooth="yes"/>
      <point x="434" y="-6"/>
      <point x="485" y="66"/>
      <point x="485" y="133" type="curve" smooth="yes"/>
      <point x="485" y="188"/>
      <point x="444" y="238"/>
      <point x="376" y="238" type="curve" smooth="yes"/>
      <point x="305" y="238"/>
      <point x="266" y="188"/>
      <point x="266" y="133" type="curve" smooth="yes"/>
      <point x="266" y="76"/>
      <point x="301" y="39"/>
      <point x="341" y="14" type="curve"/>
      <point x="367" y="22" type="line"/>
      <point x="310" y="58"/>
      <point x="293" y="98"/>
      <point x="293" y="133" type="curve" smooth="yes"/>
      <point x="293" y="179"/>
      <point x="325" y="213"/>
      <point x="376" y="213" type="curve" smooth="yes"/>
      <point x="428" y="213"/>
      <point x="458" y="175"/>
      <point x="458" y="133" type="curve" smooth="yes"/>
      <point x="458" y="58"/>
      <point x="390" y="19"/>
      <point x="314" y="19" type="curve"/>
      <point x="149" y="19"/>
      <point x="75" y="152"/>
      <point x="75" y="269" type="curve" smooth="yes"/>
      <point x="75" y="391"/>
      <point x="149" y="524"/>
      <point x="314" y="524" type="curve"/>
      <point x="391" y="524"/>
      <point x="458" y="485"/>
      <point x="458" y="410" type="curve" smooth="yes"/>
      <point x="458" y="368"/>
      <point x="428" y="330"/>
      <point x="376" y="330" type="curve" smooth="yes"/>
      <point x="325" y="330"/>
      <point x="293" y="364"/>
      <point x="293" y="410" type="curve" smooth="yes"/>
      <point x="293" y="445"/>
      <point x="310" y="485"/>
      <point x="367" y="521" type="curve"/>
      <point x="341" y="529" type="line"/>
      <point x="301" y="504"/>
      <point x="266" y="467"/>
      <point x="266" y="410" type="curve" smooth="yes"/>
      <point x="266" y="355"/>
      <point x="305" y="305"/>
      <point x="376" y="305" type="curve" smooth="yes"/>
      <point x="444" y="305"/>
      <point x="485" y="355"/>
      <point x="485" y="410" type="curve" smooth="yes"/>
      <point x="485" y="477"/>
      <point x="434" y="549"/>
      <point x="315" y="549" type="curve" smooth="yes"/>
      <point x="122" y="549"/>
      <point x="47" y="393"/>
      <point x="47" y="269" type="curve" smooth="yes"/>
      <point x="47" y="150"/>
      <point x="122" y="-6"/>
    </contour>
  </outline>
</glyph>
<glyph name="viramamlym" format="2">
  <unicode hex="0D4D"/>
  <outline>
    <contour>
      <point x="-87" y="605" type="curve" smooth="yes"/>
      <point x="13" y="605"/>
      <point x="53" y="668"/>
      <point x="53" y="721" type="curve" smooth="yes"/>
      <point x="53" y="757"/>
      <point x="40" y="776"/>
      <point x="25" y="776" type="curve" smooth="yes"/>
      <point x="22" y="776"/>
      <point x="19" y="775"/>
      <point x="16" y="774" type="curve"/>
      <point x="23" y="759"/>
      <point x="26" y="742"/>
      <point x="26" y="727" type="curve" smooth="yes"/>
      <point x="26" y="671"/>
      <point x="-10" y="629"/>
      <point x="-87" y="629" type="curve" smooth="yes"/>
      <point x="-165" y="629"/>
      <point x="-202" y="671"/>
      <point x="-202" y="727" type="curve" smooth="yes"/>
      <point x="-202" y="742"/>
      <point x="-199" y="759"/>
      <point x="-192" y="774" type="curve"/>
      <point x="-195" y="775"/>
      <point x="-198" y="776"/>
      <point x="-201" y="776" type="curve" smooth="yes"/>
      <point x="-216" y="776"/>
      <point x="-229" y="757"/>
      <point x="-229" y="721" type="curve" smooth="yes"/>
      <point x="-229" y="668"/>
      <point x="-189" y="605"/>
    </contour>
  </outline>
</glyph>
<glyph name="rephmlym" format="2">
  <unicode hex="0D4E"/>
  <outline>
    <contour>
      <point x="-279" y="623" type="curve" smooth="yes"/>
      <point x="-270" y="623"/>
      <point x="-258" y="665"/>
      <point x="-258" y="725" type="curve" smooth="yes"/>
      <point x="-258" y="767"/>
      <point x="-271" y="774"/>
      <point x="-280" y="774" type="curve" smooth="yes"/>
      <point x="-290" y="774"/>
      <point x="-302" y="767"/>
      <point x="-302" y="725" type="curve" smooth="yes"/>
      <point x="-302" y="665"/>
      <point x="-290" y="623"/>
    </contour>
  </outline>
</glyph>
<glyph name="uni0D4F" format="2">
  <advance width="1125"/>
  <unicode hex="0D4F"/>
  <outline>
    <contour>
      <point x="697" y="269" type="line"/>
      <point x="697" y="0" type="line"/>
      <point x="715" y="0" type="line"/>
      <point x="715" y="357" type="line" smooth="yes"/>
      <point x="715" y="456"/>
      <point x="777" y="524"/>
      <point x="870" y="524" type="curve" smooth="yes"/>
      <point x="944" y="524"/>
      <point x="1049" y="475"/>
      <point x="1049" y="254" type="curve" smooth="yes"/>
      <point x="1049" y="-15"/>
      <point x="866" y="-150"/>
      <point x="558" y="-150" type="curve" smooth="yes"/>
      <point x="287" y="-150"/>
      <point x="81" y="-36"/>
      <point x="81" y="241" type="curve" smooth="yes"/>
      <point x="81" y="374"/>
      <point x="138" y="488"/>
      <point x="198" y="536" type="curve"/>
      <point x="194" y="540"/>
      <point x="188" y="542"/>
      <point x="180" y="542" type="curve" smooth="yes"/>
      <point x="144" y="542"/>
      <point x="54" y="411"/>
      <point x="54" y="241" type="curve" smooth="yes"/>
      <point x="54" y="-40"/>
      <point x="255" y="-175"/>
      <point x="558" y="-175" type="curve" smooth="yes"/>
      <point x="885" y="-175"/>
      <point x="1077" y="-31"/>
      <point x="1077" y="254" type="curve" smooth="yes"/>
      <point x="1077" y="489"/>
      <point x="961" y="549"/>
      <point x="870" y="549" type="curve" smooth="yes"/>
      <point x="782" y="549"/>
      <point x="714" y="498"/>
      <point x="698" y="403" type="curve"/>
    </contour>
    <contour>
      <point x="403" y="-6" type="curve" smooth="yes"/>
      <point x="495" y="-6"/>
      <point x="554" y="60"/>
      <point x="554" y="143" type="curve" smooth="yes"/>
      <point x="554" y="235"/>
      <point x="495" y="295"/>
      <point x="413" y="295" type="curve" smooth="yes"/>
      <point x="327" y="295"/>
      <point x="271" y="237"/>
      <point x="238" y="182" type="curve"/>
      <point x="247" y="154" type="line"/>
      <point x="290" y="227"/>
      <point x="343" y="270"/>
      <point x="411" y="270" type="curve" smooth="yes"/>
      <point x="474" y="270"/>
      <point x="526" y="227"/>
      <point x="526" y="143" type="curve" smooth="yes"/>
      <point x="526" y="65"/>
      <point x="467" y="19"/>
      <point x="403" y="19" type="curve" smooth="yes"/>
      <point x="294" y="19"/>
      <point x="241" y="129"/>
      <point x="241" y="261" type="curve" smooth="yes"/>
      <point x="241" y="416"/>
      <point x="350" y="524"/>
      <point x="484" y="524" type="curve" smooth="yes"/>
      <point x="613" y="524"/>
      <point x="688" y="448"/>
      <point x="688" y="320" type="curve" smooth="yes"/>
      <point x="688" y="0" type="line"/>
      <point x="705" y="0" type="line"/>
      <point x="705" y="354" type="line"/>
      <point x="706" y="389" type="line"/>
      <point x="681" y="481"/>
      <point x="614" y="549"/>
      <point x="484" y="549" type="curve"/>
      <point x="335" y="549"/>
      <point x="214" y="431"/>
      <point x="214" y="261" type="curve" smooth="yes"/>
      <point x="214" y="100"/>
      <point x="285" y="-6"/>
    </contour>
  </outline>
</glyph>
<glyph name="machillumlym" format="2">
  <advance width="546"/>
  <unicode hex="0D54"/>
  <outline>
    <contour>
      <point x="70" y="0" type="line"/>
      <point x="529" y="0" type="line"/>
      <point x="529" y="25" type="line"/>
      <point x="293" y="211"/>
      <point x="249" y="268"/>
      <point x="249" y="376" type="curve" smooth="yes"/>
      <point x="249" y="433"/>
      <point x="266" y="481"/>
      <point x="283" y="527" type="curve" smooth="yes"/>
      <point x="301" y="576"/>
      <point x="314" y="613"/>
      <point x="314" y="660" type="curve" smooth="yes"/>
      <point x="314" y="745"/>
      <point x="261" y="784"/>
      <point x="193" y="784" type="curve" smooth="yes"/>
      <point x="148" y="784"/>
      <point x="120" y="769"/>
      <point x="120" y="750" type="curve" smooth="yes"/>
      <point x="120" y="747"/>
      <point x="121" y="745"/>
      <point x="122" y="743" type="curve"/>
      <point x="138" y="750"/>
      <point x="159" y="758"/>
      <point x="192" y="758" type="curve" smooth="yes"/>
      <point x="244" y="758"/>
      <point x="286" y="728"/>
      <point x="286" y="658" type="curve" smooth="yes"/>
      <point x="286" y="613"/>
      <point x="273" y="576"/>
      <point x="254" y="525" type="curve" smooth="yes"/>
      <point x="236" y="477"/>
      <point x="221" y="425"/>
      <point x="221" y="376" type="curve" smooth="yes"/>
      <point x="221" y="265"/>
      <point x="270" y="196"/>
      <point x="492" y="25" type="curve"/>
      <point x="97" y="25" type="line"/>
      <point x="97" y="306" type="line" smooth="yes"/>
      <point x="97" y="448"/>
      <point x="162" y="506"/>
      <point x="264" y="506" type="curve" smooth="yes"/>
      <point x="362" y="506"/>
      <point x="410" y="432"/>
      <point x="410" y="355" type="curve" smooth="yes"/>
      <point x="410" y="230"/>
      <point x="323" y="145"/>
      <point x="91" y="29" type="curve"/>
      <point x="100" y="8" type="line"/>
      <point x="343" y="125"/>
      <point x="438" y="223"/>
      <point x="438" y="355" type="curve" smooth="yes"/>
      <point x="438" y="432"/>
      <point x="390" y="531"/>
      <point x="265" y="531" type="curve" smooth="yes"/>
      <point x="149" y="531"/>
      <point x="70" y="457"/>
      <point x="70" y="312" type="curve" smooth="yes"/>
    </contour>
  </outline>
</glyph>
<glyph name="yachillumlym" format="2">
  <advance width="899"/>
  <unicode hex="0D55"/>
  <outline>
    <contour>
      <point x="592" y="-6" type="curve" smooth="yes"/>
      <point x="733" y="-6"/>
      <point x="849" y="64"/>
      <point x="849" y="277" type="curve" smooth="yes"/>
      <point x="849" y="339"/>
      <point x="833" y="406"/>
      <point x="806" y="474" type="curve" smooth="yes"/>
      <point x="775" y="552"/>
      <point x="757" y="600"/>
      <point x="757" y="658" type="curve" smooth="yes"/>
      <point x="757" y="728"/>
      <point x="799" y="758"/>
      <point x="850" y="758" type="curve" smooth="yes"/>
      <point x="884" y="758"/>
      <point x="905" y="750"/>
      <point x="921" y="743" type="curve"/>
      <point x="922" y="745"/>
      <point x="923" y="747"/>
      <point x="923" y="750" type="curve" smooth="yes"/>
      <point x="923" y="768"/>
      <point x="895" y="784"/>
      <point x="850" y="784" type="curve" smooth="yes"/>
      <point x="782" y="784"/>
      <point x="729" y="745"/>
      <point x="729" y="660" type="curve" smooth="yes"/>
      <point x="729" y="599"/>
      <point x="748" y="548"/>
      <point x="780" y="465" type="curve" smooth="yes"/>
      <point x="807" y="394"/>
      <point x="821" y="336"/>
      <point x="821" y="277" type="curve" smooth="yes"/>
      <point x="821" y="87"/>
      <point x="723" y="19"/>
      <point x="592" y="19" type="curve" smooth="yes"/>
      <point x="466" y="19"/>
      <point x="317" y="111"/>
      <point x="317" y="339" type="curve" smooth="yes"/>
      <point x="317" y="436"/>
      <point x="365" y="524"/>
      <point x="456" y="524" type="curve" smooth="yes"/>
      <point x="540" y="524"/>
      <point x="595" y="439"/>
      <point x="595" y="326" type="curve" smooth="yes"/>
      <point x="595" y="135"/>
      <point x="479" y="19"/>
      <point x="331" y="19" type="curve" smooth="yes"/>
      <point x="177" y="19"/>
      <point x="76" y="140"/>
      <point x="76" y="312" type="curve" smooth="yes"/>
      <point x="76" y="437"/>
      <point x="144" y="524"/>
      <point x="244" y="524" type="curve" smooth="yes"/>
      <point x="294" y="524"/>
      <point x="327" y="502"/>
      <point x="352" y="477" type="curve"/>
      <point x="366" y="500" type="line"/>
      <point x="333" y="528"/>
      <point x="298" y="549"/>
      <point x="244" y="549" type="curve" smooth="yes"/>
      <point x="144" y="549"/>
      <point x="48" y="470"/>
      <point x="48" y="312" type="curve" smooth="yes"/>
      <point x="48" y="122"/>
      <point x="166" y="-6"/>
      <point x="330" y="-6" type="curve"/>
      <point x="485" y="-6"/>
      <point x="623" y="111"/>
      <point x="623" y="326" type="curve" smooth="yes"/>
      <point x="623" y="440"/>
      <point x="568" y="549"/>
      <point x="456" y="549" type="curve" smooth="yes"/>
      <point x="353" y="549"/>
      <point x="289" y="457"/>
      <point x="289" y="339" type="curve" smooth="yes"/>
      <point x="289" y="99"/>
      <point x="452" y="-6"/>
    </contour>
  </outline>
</glyph>
<glyph name="lllachillumlym" format="2">
  <advance width="593"/>
  <unicode hex="0D56"/>
  <outline>
    <contour>
      <point x="263" y="-6" type="curve" smooth="yes"/>
      <point x="323" y="-6"/>
      <point x="385" y="27"/>
      <point x="385" y="119" type="curve" smooth="yes"/>
      <point x="385" y="177"/>
      <point x="361" y="224"/>
      <point x="337" y="270" type="curve" smooth="yes"/>
      <point x="315" y="312"/>
      <point x="294" y="353"/>
      <point x="294" y="403" type="curve" smooth="yes"/>
      <point x="294" y="480"/>
      <point x="342" y="524"/>
      <point x="405" y="524" type="curve" smooth="yes"/>
      <point x="472" y="524"/>
      <point x="521" y="482"/>
      <point x="521" y="403" type="curve" smooth="yes"/>
      <point x="521" y="290"/>
      <point x="431" y="228"/>
      <point x="295" y="228" type="curve" smooth="yes"/>
      <point x="140" y="228"/>
      <point x="71" y="304"/>
      <point x="71" y="409" type="curve" smooth="yes"/>
      <point x="71" y="463"/>
      <point x="90" y="511"/>
      <point x="132" y="543" type="curve"/>
      <point x="130" y="546"/>
      <point x="126" y="549"/>
      <point x="119" y="549" type="curve" smooth="yes"/>
      <point x="86" y="549"/>
      <point x="43" y="488"/>
      <point x="43" y="409" type="curve" smooth="yes"/>
      <point x="43" y="290"/>
      <point x="127" y="203"/>
      <point x="296" y="203" type="curve" smooth="yes"/>
      <point x="442" y="203"/>
      <point x="549" y="276"/>
      <point x="549" y="403" type="curve" smooth="yes"/>
      <point x="549" y="484"/>
      <point x="497" y="549"/>
      <point x="405" y="549" type="curve" smooth="yes"/>
      <point x="335" y="549"/>
      <point x="266" y="500"/>
      <point x="266" y="403" type="curve" smooth="yes"/>
      <point x="266" y="348"/>
      <point x="288" y="305"/>
      <point x="311" y="263" type="curve" smooth="yes"/>
      <point x="334" y="220"/>
      <point x="357" y="176"/>
      <point x="357" y="120" type="curve" smooth="yes"/>
      <point x="357" y="50"/>
      <point x="312" y="19"/>
      <point x="261" y="19" type="curve" smooth="yes"/>
      <point x="173" y="19"/>
      <point x="149" y="87"/>
      <point x="149" y="144" type="curve" smooth="yes"/>
      <point x="149" y="202"/>
      <point x="165" y="267"/>
      <point x="229" y="413" type="curve" smooth="yes"/>
      <point x="283" y="537"/>
      <point x="300" y="590"/>
      <point x="300" y="660" type="curve" smooth="yes"/>
      <point x="300" y="745"/>
      <point x="247" y="784"/>
      <point x="179" y="784" type="curve" smooth="yes"/>
      <point x="134" y="784"/>
      <point x="106" y="768"/>
      <point x="106" y="750" type="curve" smooth="yes"/>
      <point x="106" y="748"/>
      <point x="107" y="745"/>
      <point x="108" y="743" type="curve"/>
      <point x="124" y="750"/>
      <point x="145" y="758"/>
      <point x="178" y="758" type="curve" smooth="yes"/>
      <point x="230" y="758"/>
      <point x="272" y="728"/>
      <point x="272" y="658" type="curve" smooth="yes"/>
      <point x="272" y="586"/>
      <point x="253" y="535"/>
      <point x="205" y="424" type="curve" smooth="yes"/>
      <point x="146" y="288"/>
      <point x="121" y="215"/>
      <point x="121" y="144" type="curve" smooth="yes"/>
      <point x="121" y="71"/>
      <point x="155" y="-6"/>
    </contour>
  </outline>
</glyph>
<glyph name="aulengthmarkmlym" format="2">
  <advance width="675"/>
  <unicode hex="0D57"/>
  <outline>
    <contour>
      <point x="369" y="-6" type="curve" smooth="yes"/>
      <point x="502" y="-6"/>
      <point x="625" y="60"/>
      <point x="625" y="303" type="curve" smooth="yes"/>
      <point x="625" y="459"/>
      <point x="560" y="549"/>
      <point x="461" y="549" type="curve" smooth="yes"/>
      <point x="376" y="549"/>
      <point x="332" y="490"/>
      <point x="318" y="428" type="curve"/>
      <point x="324" y="422" type="line"/>
      <point x="310" y="492"/>
      <point x="269" y="549"/>
      <point x="189" y="549" type="curve" smooth="yes"/>
      <point x="93" y="549"/>
      <point x="35" y="475"/>
      <point x="35" y="384" type="curve" smooth="yes"/>
      <point x="35" y="292"/>
      <point x="84" y="228"/>
      <point x="111" y="228" type="curve" smooth="yes"/>
      <point x="117" y="228"/>
      <point x="124" y="230"/>
      <point x="128" y="233" type="curve"/>
      <point x="87" y="272"/>
      <point x="63" y="318"/>
      <point x="63" y="383" type="curve" smooth="yes"/>
      <point x="63" y="474"/>
      <point x="116" y="524"/>
      <point x="188" y="524" type="curve" smooth="yes"/>
      <point x="256" y="524"/>
      <point x="306" y="475"/>
      <point x="306" y="365" type="curve" smooth="yes"/>
      <point x="306" y="233" type="line"/>
      <point x="333" y="233" type="line"/>
      <point x="333" y="361" type="line" smooth="yes"/>
      <point x="333" y="474"/>
      <point x="386" y="524"/>
      <point x="460" y="524" type="curve" smooth="yes"/>
      <point x="544" y="524"/>
      <point x="597" y="450"/>
      <point x="597" y="303" type="curve" smooth="yes"/>
      <point x="597" y="80"/>
      <point x="490" y="19"/>
      <point x="369" y="19" type="curve" smooth="yes"/>
      <point x="284" y="19"/>
      <point x="236" y="41"/>
      <point x="199" y="64" type="curve"/>
      <point x="195" y="61"/>
      <point x="193" y="57"/>
      <point x="193" y="50" type="curve" smooth="yes"/>
      <point x="193" y="34"/>
      <point x="242" y="-6"/>
    </contour>
  </outline>
</glyph>
<glyph name="uni0D58" format="2">
  <advance width="1153"/>
  <unicode hex="0D58"/>
  <outline>
    <contour>
      <point x="423" y="187" type="line"/>
      <point x="423" y="544" type="line"/>
      <point x="406" y="544" type="line"/>
      <point x="406" y="187" type="line" smooth="yes"/>
      <point x="406" y="88"/>
      <point x="344" y="20"/>
      <point x="254" y="20" type="curve" smooth="yes"/>
      <point x="177" y="20"/>
      <point x="76" y="69"/>
      <point x="76" y="260" type="curve" smooth="yes"/>
      <point x="76" y="398"/>
      <point x="140" y="500"/>
      <point x="212" y="543" type="curve"/>
      <point x="208" y="547"/>
      <point x="202" y="550"/>
      <point x="193" y="550" type="curve" smooth="yes"/>
      <point x="150" y="550"/>
      <point x="48" y="438"/>
      <point x="48" y="260" type="curve" smooth="yes"/>
      <point x="48" y="55"/>
      <point x="160" y="-5"/>
      <point x="254" y="-5" type="curve" smooth="yes"/>
      <point x="339" y="-5"/>
      <point x="407" y="46"/>
      <point x="423" y="141" type="curve"/>
    </contour>
    <contour>
      <point x="416" y="186" type="line"/>
      <point x="416" y="134" type="line"/>
      <point x="429" y="58"/>
      <point x="475" y="-5"/>
      <point x="574" y="-5" type="curve" smooth="yes"/>
      <point x="661" y="-5"/>
      <point x="716" y="50"/>
      <point x="730" y="142" type="curve"/>
      <point x="729" y="187" type="line"/>
      <point x="729" y="544" type="line"/>
      <point x="712" y="544" type="line"/>
      <point x="712" y="190" type="line" smooth="yes"/>
      <point x="712" y="94"/>
      <point x="665" y="20"/>
      <point x="574" y="20" type="curve" smooth="yes"/>
      <point x="481" y="20"/>
      <point x="433" y="88"/>
      <point x="433" y="189" type="curve" smooth="yes"/>
      <point x="433" y="544" type="line"/>
      <point x="416" y="544" type="line"/>
    </contour>
    <contour>
      <point x="721" y="167" type="line"/>
      <point x="720" y="148" type="line"/>
      <point x="731" y="68"/>
      <point x="789" y="-5"/>
      <point x="888" y="-5" type="curve" smooth="yes"/>
      <point x="1016" y="-5"/>
      <point x="1104" y="89"/>
      <point x="1104" y="298" type="curve" smooth="yes"/>
      <point x="1104" y="655"/>
      <point x="866" y="775"/>
      <point x="622" y="775" type="curve" smooth="yes"/>
      <point x="457" y="775"/>
      <point x="344" y="737"/>
      <point x="344" y="711" type="curve" smooth="yes"/>
      <point x="344" y="707"/>
      <point x="345" y="702"/>
      <point x="346" y="698" type="curve"/>
      <point x="420" y="729"/>
      <point x="488" y="750"/>
      <point x="619" y="750" type="curve" smooth="yes"/>
      <point x="864" y="750"/>
      <point x="1076" y="627"/>
      <point x="1076" y="298" type="curve" smooth="yes"/>
      <point x="1076" y="95"/>
      <point x="993" y="20"/>
      <point x="888" y="20" type="curve" smooth="yes"/>
      <point x="798" y="20"/>
      <point x="739" y="93"/>
      <point x="739" y="190" type="curve" smooth="yes"/>
      <point x="739" y="544" type="line"/>
      <point x="721" y="544" type="line"/>
    </contour>
  </outline>
</glyph>
<glyph name="uni0D59" format="2">
  <advance width="939"/>
  <unicode hex="0D59"/>
  <outline>
    <contour>
      <point x="182" y="-6" type="curve" smooth="yes"/>
      <point x="191" y="-6"/>
      <point x="196" y="-4"/>
      <point x="202" y="1" type="curve"/>
      <point x="119" y="52"/>
      <point x="76" y="154"/>
      <point x="76" y="256" type="curve" smooth="yes"/>
      <point x="76" y="398"/>
      <point x="169" y="524"/>
      <point x="327" y="524" type="curve" smooth="yes"/>
      <point x="469" y="524"/>
      <point x="570" y="406"/>
      <point x="570" y="233" type="curve" smooth="yes"/>
      <point x="570" y="101"/>
      <point x="522" y="19"/>
      <point x="418" y="19" type="curve" smooth="yes"/>
      <point x="369" y="19"/>
      <point x="300" y="44"/>
      <point x="300" y="140" type="curve" smooth="yes"/>
      <point x="300" y="207"/>
      <point x="344" y="283"/>
      <point x="503" y="283" type="curve" smooth="yes"/>
      <point x="745" y="283" type="line" smooth="yes"/>
      <point x="855" y="283"/>
      <point x="916" y="327"/>
      <point x="916" y="420" type="curve" smooth="yes"/>
      <point x="916" y="493"/>
      <point x="874" y="543"/>
      <point x="795" y="543" type="curve" smooth="yes"/>
      <point x="722" y="543"/>
      <point x="668" y="493"/>
      <point x="668" y="420" type="curve" smooth="yes"/>
      <point x="668" y="371"/>
      <point x="691" y="326"/>
      <point x="720" y="293" type="curve"/>
      <point x="748" y="296" type="line"/>
      <point x="715" y="335"/>
      <point x="695" y="371"/>
      <point x="695" y="418" type="curve" smooth="yes"/>
      <point x="695" y="485"/>
      <point x="742" y="519"/>
      <point x="795" y="519" type="curve" smooth="yes"/>
      <point x="850" y="519"/>
      <point x="889" y="484"/>
      <point x="889" y="419" type="curve" smooth="yes"/>
      <point x="889" y="334"/>
      <point x="828" y="308"/>
      <point x="746" y="308" type="curve" smooth="yes"/>
      <point x="504" y="308" type="line" smooth="yes"/>
      <point x="330" y="308"/>
      <point x="272" y="219"/>
      <point x="272" y="140" type="curve" smooth="yes"/>
      <point x="272" y="34"/>
      <point x="347" y="-6"/>
      <point x="418" y="-6" type="curve" smooth="yes"/>
      <point x="539" y="-6"/>
      <point x="597" y="83"/>
      <point x="597" y="233" type="curve" smooth="yes"/>
      <point x="597" y="421"/>
      <point x="484" y="549"/>
      <point x="327" y="549" type="curve" smooth="yes"/>
      <point x="170" y="549"/>
      <point x="48" y="433"/>
      <point x="48" y="256" type="curve" smooth="yes"/>
      <point x="48" y="110"/>
      <point x="138" y="-6"/>
    </contour>
  </outline>
</glyph>
